<?xml version="1.0" encoding="UTF-8"?> <svg xmlns="http://www.w3.org/2000/svg" width="57" height="57" viewBox="0 0 57 57" fill="none"> <rect width="57" height="57" rx="28.5" fill="#E9F4FF"></rect> <path d="M38.9312 33.5987H38.2995V22.8898C38.2995 21.8478 37.4493 21 36.4043 21H21.1586C20.1136 21 19.2635 21.8478 19.2635 22.8898V33.5987H18.6317C18.2828 33.5987 18 33.8807 18 34.2286V35.4884C18 37.2252 19.417 38.6381 21.1586 38.6381H36.4043C38.146 38.6381 39.563 37.2252 39.563 35.4884V34.2286C39.563 33.8807 39.2801 33.5987 38.9312 33.5987ZM20.5269 22.8898C20.5269 22.5425 20.8103 22.2599 21.1586 22.2599H36.4043C36.7527 22.2599 37.036 22.5425 37.036 22.8898V33.5987H32.614C32.2651 33.5987 31.9822 33.8807 31.9822 34.2286V34.8585H25.5807V34.2286C25.5807 33.8807 25.2979 33.5987 24.949 33.5987H20.5269V22.8898ZM38.2995 35.4884C38.2995 36.5305 37.4493 37.3782 36.4043 37.3782H21.1586C20.1136 37.3782 19.2635 36.5305 19.2635 35.4884V34.8585H19.8952H24.3173V35.4884C24.3173 35.8363 24.6001 36.1184 24.949 36.1184H32.614C32.9628 36.1184 33.2457 35.8363 33.2457 35.4884V34.8585H37.6678H38.2995V35.4884Z" fill="#6C89C3"></path> <path d="M24.9497 28.5591H22.4227C22.0739 28.5591 21.791 28.8411 21.791 29.189V31.7087C21.791 32.0566 22.0739 32.3387 22.4227 32.3387H24.9497C25.2985 32.3387 25.5814 32.0566 25.5814 31.7087V29.189C25.5814 28.8411 25.2985 28.5591 24.9497 28.5591ZM24.3179 31.0788H23.0545V29.8189H24.3179V31.0788Z" fill="#6C89C3"></path> <path d="M30.0866 26.0396H27.4755C27.1266 26.0396 26.8438 26.3216 26.8438 26.6695V31.7089C26.8438 32.0568 27.1266 32.3389 27.4755 32.3389H30.0866C30.4355 32.3389 30.7183 32.0568 30.7183 31.7089V26.6695C30.7183 26.3216 30.4355 26.0396 30.0866 26.0396ZM29.4549 31.079H28.1072V27.2994H29.4549V31.079Z" fill="#6C89C3"></path> <path d="M35.1411 23.5195H32.6141C32.2653 23.5195 31.9824 23.8016 31.9824 24.1495V31.7087C31.9824 32.0565 32.2653 32.3386 32.6141 32.3386H35.1411C35.4899 32.3386 35.7728 32.0565 35.7728 31.7087V24.1495C35.7728 23.8016 35.4899 23.5195 35.1411 23.5195ZM34.5093 31.0787H33.2459V24.7794H34.5093V31.0787Z" fill="#6C89C3"></path> </svg> 