<?xml version="1.0" encoding="UTF-8"?> <svg xmlns="http://www.w3.org/2000/svg" width="57" height="57" viewBox="0 0 57 57" fill="none"> <rect width="57" height="57" rx="28.5" fill="#E9F4FF"></rect> <path d="M39.1689 22.186H34.4634C34.2611 22.186 34.0972 22.35 34.0972 22.5522C34.0972 22.7545 34.2611 22.9185 34.4634 22.9185H39.1689C39.7747 22.9185 40.2676 23.4113 40.2676 24.0171V36.4507C40.2676 37.0564 39.7747 37.5493 39.1689 37.5493H29.931C29.9297 37.5493 29.9285 37.5491 29.9272 37.5491C29.9259 37.5491 29.9247 37.5493 29.9234 37.5493H27.0767C27.0754 37.5493 27.0742 37.5491 27.0729 37.5491C27.0716 37.5491 27.0704 37.5493 27.0691 37.5493H17.8311C17.2253 37.5493 16.7324 37.0564 16.7324 36.4507V24.0171C16.7324 23.4113 17.2253 22.9185 17.8311 22.9185H23.8792V23.287C23.8792 23.4095 23.8843 23.5308 23.8936 23.6509H17.9775C17.6948 23.6509 17.4648 23.8809 17.4648 24.1636V33.2462C17.4648 33.4485 17.6288 33.6124 17.8311 33.6124C18.0333 33.6124 18.1973 33.4485 18.1973 33.2462V24.3833H24.0089C24.3219 25.6855 25.1788 26.7773 26.3223 27.3974V28.2178C26.3223 28.4101 26.1997 28.5804 26.017 28.6417L22.4825 29.8302C21.3381 30.2146 20.5693 31.2834 20.5693 32.4898V36.0846H18.1973V34.9552C18.1973 34.7529 18.0333 34.589 17.8311 34.589C17.6288 34.589 17.4648 34.7529 17.4648 34.9552V36.3043C17.4648 36.587 17.6948 36.817 17.9775 36.817H39.0225C39.3052 36.817 39.5352 36.587 39.5352 36.3043V24.1636C39.5352 23.8809 39.3052 23.6509 39.0225 23.6509H33.1099C33.117 23.5456 33.1208 23.4397 33.1208 23.3332V19.2149C33.1208 17.9944 32.1279 17.0015 30.9074 17.0015H26.0926C24.8721 17.0015 23.8792 17.9944 23.8792 19.2149V22.186H17.8311C16.8214 22.186 16 23.0074 16 24.0171V36.4507C16 37.4604 16.8214 38.2817 17.8311 38.2817H26.7066V39.8042H26.244C25.3151 39.8042 24.5594 40.5599 24.5594 41.4888C24.5594 41.7715 24.7894 42.0015 25.0721 42.0015H31.9278C32.2105 42.0015 32.4405 41.7715 32.4405 41.4888C32.4405 40.5599 31.6848 39.8042 30.7559 39.8042H30.2933V38.2817H39.1689C40.1786 38.2817 41 37.4604 41 36.4507V24.0171C41 23.0074 40.1786 22.186 39.1689 22.186V22.186ZM35.6982 36.0845H21.3018V32.4897C21.3018 31.5983 21.87 30.8085 22.7159 30.5244L23.5432 30.2462C23.4958 30.5129 23.476 30.7838 23.4863 31.0567C23.4957 31.3063 23.5296 31.5537 23.5874 31.7962C22.7867 32.0064 22.1942 32.7363 22.1942 33.6021V34.8073C22.1942 35.1482 22.4716 35.4256 22.8125 35.4256H23.1547C23.357 35.4256 23.5209 35.2617 23.5209 35.0594C23.5209 34.8571 23.357 34.6932 23.1547 34.6932H22.9267V33.6021C22.9267 32.9768 23.4351 32.468 24.0603 32.4675C24.0606 32.4675 24.0609 32.4676 24.0612 32.4676C24.0617 32.4676 24.0622 32.4675 24.0626 32.4675C24.6875 32.4683 25.1957 32.9769 25.1957 33.602V34.6931H24.9676C24.7653 34.6931 24.6014 34.857 24.6014 35.0593C24.6014 35.2616 24.7653 35.4255 24.9676 35.4255H25.3098C25.6507 35.4255 25.9281 35.1481 25.9281 34.8072V33.602C25.9281 32.6651 25.2344 31.8875 24.3337 31.7551C24.2664 31.5183 24.2274 31.275 24.2182 31.029C24.2045 30.6694 24.2539 30.3139 24.364 29.9701L26.008 29.4173L28.0748 31.482C28.3316 31.7385 28.7496 31.7385 29.0065 31.4819L31.0527 29.4378L32.8503 30.0422C32.9812 30.3845 33.0479 30.7533 33.0445 31.1182C33.0415 31.4457 32.9805 31.7761 32.8688 32.0859C32.0631 32.2094 31.444 32.9068 31.444 33.7459C31.444 34.672 32.198 35.4254 33.1249 35.4254C34.0517 35.4254 34.8057 34.6719 34.8057 33.7459C34.8057 32.9924 34.3064 32.3533 33.6211 32.1412C33.7197 31.8114 33.7737 31.467 33.777 31.1251C33.7795 30.8579 33.7515 30.5891 33.6953 30.3262L34.2842 30.5242C35.13 30.8084 35.6982 31.5981 35.6982 32.4896V36.0845ZM30.3487 29.106L28.5407 30.9121L26.6932 29.0666C26.9189 28.8491 27.0547 28.5458 27.0547 28.2177V27.7152C27.5048 27.8654 27.985 27.9479 28.4837 27.9496C28.4892 27.9496 28.4947 27.9496 28.5002 27.9496C28.9987 27.9496 29.485 27.8712 29.9453 27.7204V28.2177C29.9453 28.5659 30.0976 28.8868 30.3487 29.106V29.106ZM33.1243 32.799H33.1247H33.1252C33.648 32.7992 34.0733 33.224 34.0733 33.746C34.0733 34.2683 33.6479 34.6931 33.1249 34.6931C32.602 34.6931 32.1765 34.2683 32.1765 33.746C32.1765 33.224 32.6017 32.7993 33.1243 32.799ZM33.0012 24.3833H38.8027V36.0845H36.4307V32.4897C36.4307 31.2834 35.6618 30.2145 34.5176 29.8301L30.9828 28.6416C30.8003 28.5803 30.6777 28.41 30.6777 28.2177V27.4072C31.072 27.1962 31.4375 26.9262 31.7632 26.6016C32.385 25.9821 32.808 25.2171 33.0012 24.3833V24.3833ZM24.6116 19.2149C24.6116 18.3982 25.2759 17.7339 26.0926 17.7339H30.9074C31.724 17.7339 32.3884 18.3982 32.3884 19.2149V21.4098C32.0163 21.3674 31.5576 21.2558 31.0871 20.9949C30.6726 20.7652 30.3142 20.4577 30.0217 20.081C29.8338 19.8388 29.4871 19.7813 29.2325 19.95C28.7312 20.2824 28.1957 20.564 27.6408 20.7873C26.6792 21.1742 25.6618 21.3881 24.6116 21.4259V19.2149ZM24.6116 22.1594C25.756 22.1213 26.8653 21.8888 27.9143 21.4667C28.474 21.2416 29.0156 20.9614 29.5258 20.6333C29.8636 21.0419 30.2688 21.3788 30.7319 21.6355C31.3365 21.9706 31.925 22.1025 32.3884 22.1463V23.3332C32.3884 24.3724 31.9828 25.3489 31.2463 26.0828C30.9301 26.3979 30.5694 26.6515 30.1785 26.8387C30.1624 26.845 30.1467 26.8523 30.1318 26.8607C29.6232 27.096 29.0648 27.2194 28.4863 27.2171H28.4862C26.3498 27.2098 24.6116 25.4467 24.6116 23.287C24.6116 23.2822 24.6114 22.1632 24.6116 22.1594ZM27.439 38.2817H29.5609V39.8042H27.439V38.2817ZM30.756 40.5366C31.2054 40.5366 31.5831 40.8496 31.6825 41.269H25.3175C25.4169 40.8496 25.7946 40.5366 26.244 40.5366H30.756Z" fill="#6C89C3"></path> </svg> 