<?xml version="1.0" encoding="UTF-8"?> <svg xmlns="http://www.w3.org/2000/svg" width="36" height="36" viewBox="0 0 36 36" fill="none"> <rect width="36" height="36" rx="18" fill="#E9F4FF"></rect> <path d="M21.4512 10.1177H14.5476C13.8869 10.1177 13.3535 10.6534 13.3535 11.3129V25.3319C13.3535 25.9908 13.8869 26.526 14.5476 26.526H21.4512C22.1107 26.526 22.6453 25.9908 22.6453 25.3319V11.3129C22.6453 10.6534 22.1107 10.1177 21.4512 10.1177ZM16.2959 10.8436H19.7041C19.7902 10.8436 19.8601 10.9721 19.8601 11.1312C19.8601 11.2902 19.7902 11.4194 19.7041 11.4194H16.2959C16.2092 11.4194 16.1404 11.2902 16.1404 11.1312C16.1404 10.9721 16.2092 10.8436 16.2959 10.8436ZM18 25.3463C17.5797 25.3463 17.2376 25.0042 17.2376 24.5833C17.2376 24.1624 17.5797 23.8215 18 23.8215C18.4191 23.8215 18.7612 24.1624 18.7612 24.5833C18.7612 25.0042 18.4191 25.3463 18 25.3463ZM21.7508 22.7339H14.2486V12.1345H21.7508V22.7339Z" fill="#6C89C3"></path> </svg> 