<?xml version="1.0" encoding="UTF-8"?> <svg xmlns="http://www.w3.org/2000/svg" width="57" height="57" viewBox="0 0 57 57" fill="none"> <rect width="57" height="57" rx="28.5" fill="#E9F4FF"></rect> <path d="M30.7038 26.0562H27.04V28.563H24.5332V32.2268H27.04V34.7336H30.7038V32.2268H33.2107V28.563H30.7038V26.0562ZM32.0537 29.72V31.0698H29.5468V33.5766H28.197V31.0698H25.6902V29.72H28.197V27.2131H29.5468V29.72H32.0537Z" fill="#6C89C3"></path> <path d="M32.585 23.5496V20.0015H25.161V23.5496H19V37.2407H38.746V23.5496H32.585ZM35.0822 36.0837H22.6638V33.8031L20.157 32.5472V28.248L22.6638 26.9921V24.7066H35.0822V26.9921L37.589 28.248V32.5472L35.0822 33.8031V36.0837ZM37.589 26.9539L36.2392 26.2777V24.7066H37.589V26.9539ZM26.318 21.1585H31.428V23.5496H26.318V21.1585ZM21.5068 24.7066V26.2777L20.157 26.9539V24.7066H21.5068ZM20.157 33.8413L21.5068 34.5175V36.0837H20.157V33.8413ZM36.2392 36.0837V34.5175L37.589 33.8413V36.0837H36.2392Z" fill="#6C89C3"></path> </svg> 