<?xml version="1.0" encoding="UTF-8"?> <svg xmlns="http://www.w3.org/2000/svg" width="57" height="57" viewBox="0 0 57 57" fill="none"> <rect width="57" height="57" rx="28.5" fill="#E9F4FF"></rect> <path fill-rule="evenodd" clip-rule="evenodd" d="M40.6074 23.6171C40.3655 23.3747 40.0309 23.2242 39.6624 23.2242H33.9105V20.0094C33.9105 18.9017 33.0099 18 31.9038 18H22.0066C20.9006 18 20 18.9017 20 20.0094V38.9328C20 39.9921 20.8658 40.8612 21.9256 40.8612H31.9847C33.0447 40.8612 33.9102 39.9944 33.9102 38.9328V34.2976H39.6624C40.0309 34.2976 40.3655 34.147 40.6074 33.9046C40.8498 33.6622 41 33.3272 41 32.9581V24.5637C41 24.1946 40.8499 23.8597 40.6074 23.6171V23.6171ZM24.2119 19.3396H29.6965V20.1041C29.6965 20.4189 29.4368 20.6789 29.1226 20.6789H24.7861C24.4716 20.6789 24.2122 20.4189 24.2122 20.1041V19.3396H24.2119ZM32.5726 38.9328C32.5726 39.2549 32.3061 39.5217 31.9847 39.5217H21.9256C21.6051 39.5217 21.3378 39.2588 21.3378 38.9328V36.5342C21.6997 36.7308 22.1136 36.8427 22.5527 36.8427H31.3561C31.7955 36.8427 32.2103 36.7304 32.5726 36.5331V38.9328ZM31.3561 35.5031H22.5527C22.2154 35.5031 21.9104 35.3677 21.6907 35.1489C21.4864 34.9459 21.3545 34.67 21.3378 34.364V20.0094C21.3378 19.6412 21.6392 19.3396 22.0066 19.3396H22.8744V20.1041C22.8744 21.1584 23.7334 22.0185 24.7861 22.0185H29.1226C30.1753 22.0185 31.0343 21.1584 31.0343 20.1041V19.3396H31.9037C32.2712 19.3396 32.5726 19.6412 32.5726 20.0094V23.2242H26.33C25.9615 23.2242 25.6267 23.3747 25.3847 23.6171C25.1425 23.8597 24.9922 24.1946 24.9922 24.5637V32.9581C24.9922 33.3272 25.1425 33.6622 25.3847 33.9046C25.6267 34.147 25.9615 34.2976 26.33 34.2976H32.5726C32.5726 34.9666 32.026 35.5031 31.3561 35.5031V35.5031ZM39.6624 32.9579C39.6624 32.9581 39.6626 32.9581 39.6624 32.9581C39.6624 32.9583 39.6624 32.9583 39.6624 32.9581H26.3301C26.3301 32.7068 26.33 26.9829 26.3301 24.5637C29.2824 24.5637 39.6626 24.5637 39.6624 24.5638V32.9579Z" fill="#6C89C3"></path> <path fill-rule="evenodd" clip-rule="evenodd" d="M26.956 37.5347C26.5876 37.5347 26.2871 37.8355 26.2871 38.2044C26.2871 38.5733 26.5876 38.8742 26.956 38.8742C27.3245 38.8742 27.6248 38.5733 27.6248 38.2044C27.6248 37.8355 27.3245 37.5347 26.956 37.5347Z" fill="#6C89C3"></path> <path fill-rule="evenodd" clip-rule="evenodd" d="M28.3368 28.3591H28.6935C29.063 28.3591 29.3624 28.0591 29.3624 27.6893C29.3624 27.3193 29.063 27.0195 28.6935 27.0195H28.3368C27.9675 27.0195 27.668 27.3193 27.668 27.6893C27.668 28.0591 27.9675 28.3591 28.3368 28.3591V28.3591Z" fill="#6C89C3"></path> <path fill-rule="evenodd" clip-rule="evenodd" d="M28.3368 31.0382H34.8469C35.2164 31.0382 35.5157 30.7384 35.5157 30.3685C35.5157 29.9987 35.2164 29.6987 34.8469 29.6987H28.3368C27.9675 29.6987 27.668 29.9987 27.668 30.3685C27.668 30.7384 27.9675 31.0382 28.3368 31.0382V31.0382Z" fill="#6C89C3"></path> <path fill-rule="evenodd" clip-rule="evenodd" d="M31.3682 28.3591H31.7248C32.0943 28.3591 32.3938 28.0591 32.3938 27.6893C32.3938 27.3193 32.0943 27.0195 31.7248 27.0195H31.3682C30.9989 27.0195 30.6992 27.3193 30.6992 27.6893C30.6992 28.0591 30.9989 28.3591 31.3682 28.3591V28.3591Z" fill="#6C89C3"></path> <path fill-rule="evenodd" clip-rule="evenodd" d="M34.4012 28.3591H34.758C35.1273 28.3591 35.4268 28.0591 35.4268 27.6893C35.4268 27.3193 35.1273 27.0195 34.758 27.0195H34.4012C34.032 27.0195 33.7324 27.3193 33.7324 27.6893C33.7324 28.0591 34.032 28.3591 34.4012 28.3591V28.3591Z" fill="#6C89C3"></path> <path fill-rule="evenodd" clip-rule="evenodd" d="M37.4326 28.3591H37.7892C38.1587 28.3591 38.4581 28.0591 38.4581 27.6893C38.4581 27.3193 38.1587 27.0195 37.7892 27.0195H37.4326C37.0633 27.0195 36.7637 27.3193 36.7637 27.6893C36.7637 28.0591 37.0633 28.3591 37.4326 28.3591V28.3591Z" fill="#6C89C3"></path> </svg> 