<?xml version="1.0" encoding="UTF-8"?> <svg xmlns="http://www.w3.org/2000/svg" width="66" height="66" viewBox="0 0 66 66" fill="none"> <path d="M66 33C66 14.7746 51.2254 0 33 0C14.7746 0 0 14.7746 0 33C0 51.2254 14.7746 66 33 66C51.2254 66 66 51.2254 66 33Z" fill="#E9F4FF"></path> <path d="M31.9296 22.2078C31.9296 21.6548 32.3794 21.2051 32.9323 21.2051C33.4852 21.2051 33.9351 21.6549 33.9351 22.2078C33.9351 22.4505 34.1318 22.6472 34.3745 22.6472C34.6173 22.6472 34.814 22.4505 34.814 22.2078C34.814 21.1702 33.9699 20.3262 32.9323 20.3262C31.8948 20.3262 31.0507 21.1703 31.0507 22.2078C31.0507 22.4505 31.2474 22.6472 31.4901 22.6472C31.7329 22.6472 31.9296 22.4505 31.9296 22.2078Z" fill="#6C89C3"></path> <path d="M47.8093 37.6872C46.8248 37.0109 45.671 36.6534 44.4726 36.6534H43.3933C42.1978 36.6534 41.0344 36.0028 40.1166 34.8212C38.8726 33.0726 38.4906 30.8558 38.4503 29.7662C41.2447 27.2081 42.6599 24.8995 42.6599 22.8885C42.6599 22.6408 42.6496 22.3922 42.6295 22.1497C42.6292 22.1474 42.6291 22.1452 42.6288 22.1429C42.5723 21.5704 42.5392 20.2205 42.5379 18.4392C42.5378 18.1966 42.3411 18 42.0985 18H40.1729C39.9301 18 39.7334 18.1968 39.7334 18.4395C39.7334 18.6821 39.9301 18.8789 40.1729 18.8789H41.66C41.6662 20.4678 41.6998 21.674 41.7538 22.2257C41.7719 22.4431 41.781 22.6661 41.781 22.8885C41.781 24.9649 39.9519 27.4976 36.3439 30.4168C35.3861 31.1953 34.1807 31.6235 32.9461 31.6235C32.9379 31.6235 32.93 31.6235 32.9218 31.6235C31.6851 31.6235 30.4765 31.1943 29.5172 30.4136C25.9117 27.4961 24.0835 24.9643 24.0835 22.8885C24.0835 22.6543 24.0926 22.4332 24.1103 22.2352C24.1579 21.7503 24.1807 20.8632 24.1915 20.2045C24.1981 19.7993 24.2024 19.355 24.2043 18.879H38.1354C38.3782 18.879 38.5749 18.6822 38.5749 18.4395C38.5749 18.1968 38.3782 18.0001 38.1354 18.0001H23.7657C23.5231 18.0001 23.3264 18.1966 23.3262 18.4392C23.3258 19.0782 23.3212 19.6673 23.3126 20.1902C23.2976 21.1113 23.271 21.7888 23.2352 22.1532C23.2148 22.3809 23.2046 22.6284 23.2046 22.8885C23.2046 24.8995 24.62 27.2081 27.4142 29.7657C27.3741 30.8553 26.9921 33.0724 25.748 34.8212C24.8302 36.0028 23.667 36.6533 22.4716 36.6535C22.4715 36.6535 22.4713 36.6535 22.4712 36.6535H21.4935C20.8967 36.6535 20.3105 36.7426 19.7507 36.9155C19.7465 36.9167 19.7424 36.9182 19.7383 36.9195C19.1933 37.0891 18.6733 37.3379 18.1934 37.6624C18.0725 37.7442 18 37.8806 18 38.0265V45.3783C18 46.8238 19.1761 48 20.6218 48C20.8645 48 21.0612 47.8032 21.0612 47.5605C21.0612 47.3179 20.8645 47.1211 20.6218 47.1211C19.6608 47.1211 18.8789 46.3392 18.8789 45.3782V38.2661C19.1593 38.0946 19.4542 37.9527 19.7595 37.8403C21.4691 39.4981 23.4865 40.7952 25.7619 41.6956C28.0385 42.5965 30.4506 43.0561 32.9333 43.0618C36.0063 43.0547 39.0478 42.3285 41.7288 40.9615C41.945 40.8513 42.031 40.5867 41.9207 40.3704C41.8104 40.1542 41.5458 40.0683 41.3296 40.1786C38.771 41.4831 35.8669 42.1762 32.9332 42.1829C30.5631 42.1775 28.2591 41.7386 26.0853 40.8783C24.0927 40.0899 22.3085 38.9832 20.77 37.5845C21.0081 37.5502 21.2497 37.5323 21.4935 37.5323H22.3219C23.8365 38.7 25.5173 39.6041 27.3213 40.219C29.1268 40.8343 31.0115 41.1468 32.9232 41.1478H32.9323C34.8409 41.1478 36.7228 40.8373 38.5261 40.2248C40.3363 39.6099 42.023 38.7039 43.5426 37.5323H44.4725C44.6861 37.5323 44.8977 37.5463 45.1069 37.5727C44.4472 38.1728 43.7367 38.7244 42.9861 39.2171C42.7832 39.3502 42.7266 39.6227 42.8598 39.8256C42.9442 39.9541 43.0845 40.024 43.2276 40.024C43.3103 40.024 43.394 40.0007 43.4683 39.9519C44.425 39.324 45.3195 38.6047 46.1323 37.8136C46.4765 37.9341 46.8079 38.092 47.121 38.2869V45.3782C47.1211 46.3392 46.3392 47.1211 45.3782 47.1211H22.6605C22.4177 47.1211 22.221 47.3179 22.221 47.5605C22.221 47.8032 22.4177 48 22.6605 48H45.3782C46.8238 48 48 46.8238 48 45.3782V38.0494C48 37.9046 47.9287 37.7692 47.8093 37.6872V37.6872ZM38.2434 39.3926C36.5314 39.9741 34.7446 40.269 32.9323 40.269C32.9294 40.269 32.9265 40.269 32.9237 40.269C31.1085 40.268 29.3189 39.9713 27.6049 39.3871C26.1824 38.9023 24.8401 38.2285 23.602 37.3787C24.6577 37.0883 25.6416 36.3937 26.448 35.3525C26.4516 35.348 26.455 35.3433 26.4584 35.3387C27.596 33.7438 28.0788 31.7924 28.2351 30.491C28.4699 30.6913 28.7123 30.893 28.9634 31.0961C30.0782 32.0033 31.4835 32.5025 32.9198 32.5025C32.9292 32.5025 32.9385 32.5025 32.948 32.5025C34.3819 32.5024 35.7843 32.0043 36.8975 31.0995C37.1498 30.8953 37.3935 30.6927 37.6294 30.4914C37.7858 31.7927 38.2685 33.7439 39.4061 35.3386C39.4094 35.3433 39.4129 35.3479 39.4164 35.3525C40.2229 36.3937 41.2071 37.088 42.2629 37.3782C41.02 38.2315 39.672 38.9073 38.2434 39.3926V39.3926Z" fill="#6C89C3"></path> <path d="M29.8716 26.8859C29.7794 27.0371 29.787 27.2289 29.8909 27.3723C29.9947 27.5158 30.1746 27.5829 30.347 27.5425C32.0306 27.1483 33.8327 27.1482 35.5177 27.5425C35.551 27.5503 35.5846 27.5541 35.6178 27.5541C35.7567 27.5541 35.89 27.4881 35.9738 27.3723C36.0776 27.2289 36.0852 27.0371 35.993 26.8859C35.4149 25.9374 34.6231 24.6383 32.9321 24.6383C31.2416 24.6383 30.4498 25.9374 29.8716 26.8859ZM32.9322 25.5172C33.7313 25.5172 34.2604 25.9492 34.6791 26.4911C34.1022 26.4082 33.5179 26.3665 32.9322 26.3665C32.3465 26.3665 31.7622 26.4082 31.1857 26.491C31.6043 25.9493 32.1334 25.5172 32.9322 25.5172Z" fill="#6C89C3"></path> <path d="M35.1736 35.8389H34.3757C34.3469 35.7446 34.3092 35.6542 34.2634 35.5687L34.6476 35.1845C34.8192 35.0129 34.8192 34.7346 34.6476 34.563C34.4759 34.3914 34.1977 34.3914 34.0261 34.563L33.6419 34.9472C33.5564 34.9015 33.466 34.8637 33.3718 34.835V34.0371C33.3718 33.7944 33.1751 33.5977 32.9323 33.5977C32.6896 33.5977 32.4929 33.7944 32.4929 34.0371V34.835C32.3986 34.8637 32.3082 34.9015 32.2227 34.9473L31.1902 33.9148C31.0186 33.7431 30.7404 33.7431 30.5687 33.9148C30.3971 34.0864 30.3971 34.3646 30.5687 34.5362L31.6012 35.5687C31.5555 35.6542 31.5177 35.7446 31.4889 35.8389H30.691C30.4483 35.8389 30.2516 36.0357 30.2516 36.2784C30.2516 36.5211 30.4483 36.7178 30.691 36.7178H31.4889C31.5177 36.8121 31.5555 36.9025 31.6012 36.988L31.217 37.3721C31.0454 37.5438 31.0454 37.822 31.217 37.9936C31.3028 38.0794 31.4153 38.1223 31.5278 38.1223C31.6402 38.1223 31.7527 38.0794 31.8385 37.9936L32.2227 37.6094C32.3082 37.6552 32.3986 37.6929 32.4929 37.7217V38.5196C32.4929 38.7623 32.6896 38.959 32.9324 38.959C33.1751 38.959 33.3718 38.7623 33.3718 38.5196V37.7217C33.4661 37.6929 33.5565 37.6552 33.6419 37.6094L34.6745 38.642C34.7603 38.7278 34.8728 38.7707 34.9853 38.7707C35.0977 38.7707 35.2102 38.7278 35.296 38.642C35.4677 38.4704 35.4677 38.1921 35.296 38.0205L34.2634 36.988C34.3092 36.9025 34.347 36.8121 34.3758 36.7178H35.1736C35.4164 36.7178 35.6131 36.5211 35.6131 36.2784C35.6131 36.0357 35.4163 35.8389 35.1736 35.8389V35.8389ZM32.9323 36.9083C32.5849 36.9083 32.3023 36.6257 32.3023 36.2783C32.3023 35.931 32.5849 35.6484 32.9323 35.6484C33.2797 35.6484 33.5623 35.931 33.5623 36.2783C33.5623 36.6257 33.2796 36.9083 32.9323 36.9083Z" fill="#6C89C3"></path> <path d="M18.2444 28.2923L20.5361 29.4282L19.9079 29.8979C19.7814 29.9926 19.7154 30.1478 19.7351 30.3046C19.7548 30.4613 19.8571 30.5955 20.003 30.6559L24.765 32.6265C24.8195 32.649 24.8765 32.6599 24.9329 32.6599C25.0611 32.6599 25.1862 32.6037 25.2716 32.5005C25.3945 32.352 25.4063 32.1406 25.3005 31.9794L23.7919 29.6791L24.4092 29.1839C24.5129 29.1008 24.5734 28.9751 24.5738 28.8422C24.5741 28.7093 24.5142 28.5834 24.411 28.4996L21.0735 25.7945C20.9172 25.6677 20.6948 25.6635 20.5337 25.7839L18.1764 27.5466C18.0542 27.638 17.9881 27.7863 18.0019 27.9384C18.0158 28.0906 18.1076 28.2246 18.2444 28.2923V28.2923ZM20.786 26.6929L23.4342 28.8394L22.9305 29.2434C22.7538 29.3851 22.7138 29.6379 22.838 29.8273L23.7837 31.2693L21.053 30.1392L21.6351 29.7039C21.7574 29.6125 21.8235 29.4642 21.8096 29.3121C21.7958 29.16 21.7039 29.0261 21.5671 28.9582L19.2754 27.8224L20.786 26.6929Z" fill="#6C89C3"></path> <path d="M20.6862 34.8887C20.7459 35.0352 20.8797 35.1384 21.0366 35.1588L23.3586 35.4601C23.3778 35.4626 23.3968 35.4638 23.4157 35.4638C23.6332 35.4638 23.8223 35.3023 23.851 35.0808C23.8822 34.8401 23.7125 34.6197 23.4717 34.5885L21.9186 34.3869L22.3772 33.8062C22.4753 33.682 22.499 33.5147 22.4393 33.3681C22.3797 33.2215 22.2458 33.1184 22.0889 33.098L19.7669 32.7967C19.5268 32.7654 19.3057 32.9352 19.2746 33.1759C19.2433 33.4166 19.4131 33.637 19.6539 33.6683L21.207 33.8698L20.7484 34.4505C20.6502 34.5748 20.6265 34.7422 20.6862 34.8887V34.8887Z" fill="#6C89C3"></path> <path d="M41.4263 28.865C41.4266 28.9979 41.4871 29.1235 41.5908 29.2067L42.2081 29.7019L40.6995 32.0021C40.5938 32.1634 40.6055 32.3747 40.7284 32.5233C40.8138 32.6265 40.9389 32.6827 41.0671 32.6827C41.1235 32.6827 41.1806 32.6718 41.235 32.6493L45.997 30.6787C46.143 30.6183 46.2453 30.4841 46.2649 30.3274C46.2846 30.1706 46.2187 30.0153 46.0921 29.9207L45.4639 29.451L47.7556 28.3151C47.8924 28.2473 47.9842 28.1134 47.9981 27.9613C48.012 27.8092 47.9459 27.6609 47.8236 27.5694L45.4663 25.8069C45.3052 25.6864 45.0828 25.6907 44.9264 25.8174L41.5889 28.5226C41.4857 28.6062 41.4259 28.7321 41.4263 28.865V28.865ZM43.0695 29.266L42.5658 28.862L45.2141 26.7155L46.7247 27.845L44.433 28.9808C44.2962 29.0486 44.2044 29.1826 44.1905 29.3347C44.1766 29.4867 44.2427 29.6351 44.365 29.7265L44.9471 30.1618L42.2164 31.2919L43.1621 29.8499C43.2863 29.6605 43.2462 29.4078 43.0695 29.266V29.266Z" fill="#6C89C3"></path> <path d="M46.7256 33.1985C46.6944 32.9578 46.4736 32.7883 46.2333 32.8193L43.9113 33.1207C43.7543 33.1411 43.6205 33.2442 43.5609 33.3907C43.5012 33.5373 43.5249 33.7046 43.623 33.8288L44.0816 34.4096L42.5285 34.6111C42.2878 34.6424 42.118 34.8628 42.1492 35.1035C42.1779 35.325 42.3669 35.4865 42.5844 35.4865C42.6033 35.4865 42.6224 35.4852 42.6416 35.4828L44.9636 35.1814C45.1206 35.161 45.2544 35.0579 45.314 34.9114C45.3737 34.7648 45.35 34.5975 45.2519 34.4733L44.7933 33.8925L46.3464 33.691C46.5871 33.6597 46.7568 33.4393 46.7256 33.1985V33.1985Z" fill="#6C89C3"></path> <path d="M29.087 38.66C29.3295 38.66 29.5262 38.4633 29.5262 38.2207C29.5262 37.9781 29.3295 37.7814 29.087 37.7814C28.8444 37.7814 28.6478 37.9781 28.6478 38.2207C28.6478 38.4633 28.8444 38.66 29.087 38.66Z" fill="#6C89C3"></path> <path d="M28.8604 35.83C29.103 35.83 29.2996 35.6333 29.2996 35.3906C29.2996 35.148 29.103 34.9513 28.8604 34.9513C28.6179 34.9513 28.4213 35.148 28.4213 35.3906C28.4213 35.6333 28.6179 35.83 28.8604 35.83Z" fill="#6C89C3"></path> <path d="M36.5367 33.6034C36.7792 33.6034 36.9759 33.4067 36.9759 33.1641C36.9759 32.9214 36.7792 32.7247 36.5367 32.7247C36.2942 32.7247 36.0975 32.9214 36.0975 33.1641C36.0975 33.4067 36.2942 33.6034 36.5367 33.6034Z" fill="#6C89C3"></path> <path d="M36.888 37.5294C37.1306 37.5294 37.3272 37.3327 37.3272 37.0901C37.3272 36.8475 37.1306 36.6508 36.888 36.6508C36.6455 36.6508 36.4489 36.8475 36.4489 37.0901C36.4489 37.3327 36.6455 37.5294 36.888 37.5294Z" fill="#6C89C3"></path> </svg> 