<?xml version="1.0" encoding="UTF-8"?> <svg xmlns="http://www.w3.org/2000/svg" width="36" height="36" viewBox="0 0 36 36" fill="none"> <rect width="36" height="36" rx="18" fill="#E9F4FF"></rect> <path d="M24.9287 16.8192C24.9287 16.0898 24.3336 15.4965 23.6022 15.4965H20.4031L20.8689 14.2296C20.8704 14.2255 20.8718 14.2214 20.8732 14.2173C21.0976 13.5459 21.0411 12.8415 20.7098 12.18C20.4597 11.6814 19.9572 11.3716 19.3983 11.3716H19.2429C18.8665 11.3716 18.5481 11.6648 18.518 12.039C18.4654 12.6934 18.1839 13.3133 17.7254 13.7846L15.1634 16.3783H14.9064V15.9374C14.9064 15.6939 14.7084 15.4965 14.4642 15.4965H11.8113C11.5671 15.4965 11.3691 15.6939 11.3691 15.9374V23.8736C11.3691 24.1171 11.5671 24.3145 11.8113 24.3145H14.4643C14.7084 24.3145 14.9064 24.1171 14.9064 23.8736V23.4327H22.2757C23.0072 23.4327 23.6022 22.8393 23.6022 22.11C23.6022 21.8743 23.5401 21.6529 23.4313 21.4611C23.7997 21.2258 24.0444 20.8141 24.0444 20.3464C24.0444 20.1107 23.9823 19.8893 23.8735 19.6975C24.2419 19.4622 24.4865 19.0505 24.4865 18.5828C24.4865 18.3471 24.4245 18.1257 24.3157 17.9338C24.684 17.6986 24.9287 17.2869 24.9287 16.8192ZM14.0221 16.8192V22.9918V23.4327H12.2534V16.3783H14.0221V16.8192ZM23.6022 17.2601H23.16H22.2757C22.0315 17.2601 21.8335 17.4575 21.8335 17.701C21.8335 17.9445 22.0315 18.1419 22.2757 18.1419H23.16C23.4038 18.1419 23.6022 18.3397 23.6022 18.5828C23.6022 18.8259 23.4038 19.0237 23.16 19.0237H22.7178H21.8335C21.5894 19.0237 21.3914 19.2211 21.3914 19.4646C21.3914 19.7081 21.5893 19.9055 21.8335 19.9055H22.7178C22.9617 19.9055 23.16 20.1033 23.16 20.3465C23.16 20.5896 22.9617 20.7874 22.7178 20.7874H22.2757C22.2525 20.7874 22.2299 20.7897 22.2077 20.7931H21.362C21.1178 20.7931 20.9198 20.9905 20.9198 21.234C20.9198 21.4775 21.1178 21.6749 21.362 21.6749H22.2463C22.2661 21.6749 22.2855 21.6732 22.3047 21.6706C22.535 21.6856 22.7178 21.8767 22.7178 22.1101C22.7178 22.3532 22.5195 22.551 22.2757 22.551H14.9064V17.2601H15.3486C15.467 17.2601 15.5805 17.2127 15.6636 17.1285L18.3566 14.4022C18.3574 14.4014 18.3581 14.4007 18.3588 14.3999C18.9271 13.8164 19.2882 13.0588 19.3851 12.2533H19.3983C19.6201 12.2533 19.8196 12.3763 19.9187 12.5742C20.1452 13.0263 20.1847 13.4833 20.0361 13.9325L19.355 15.7856C19.3052 15.9208 19.3249 16.0718 19.4077 16.1898C19.4904 16.3079 19.6257 16.3783 19.7701 16.3783H23.6022C23.846 16.3783 24.0444 16.5761 24.0444 16.8192C24.0444 17.0623 23.846 17.2601 23.6022 17.2601Z" fill="#6C89C3"></path> </svg> 