<?xml version="1.0" encoding="UTF-8"?> <svg xmlns="http://www.w3.org/2000/svg" width="66" height="66" viewBox="0 0 66 66" fill="none"> <path d="M66 33C66 14.7746 51.2254 0 33 0C14.7746 0 0 14.7746 0 33C0 51.2254 14.7746 66 33 66C51.2254 66 66 51.2254 66 33Z" fill="#E9F4FF"></path> <path d="M34.7502 22.125C34.7502 20.402 33.3483 19 31.6252 19C29.9021 19 28.5002 20.402 28.5002 22.125V41.5824C27.7025 42.4002 27.2502 43.494 27.2502 44.625C27.2502 47.0371 29.2131 49 31.6253 49C34.0373 49 36.0002 47.0371 36.0002 44.625C36.0002 43.494 35.5479 42.4002 34.7502 41.5824V22.125ZM31.6252 47.75C29.9022 47.75 28.5002 46.348 28.5002 44.625C28.5002 43.74 28.8707 42.9185 29.544 42.3124C29.6752 42.1934 29.7503 42.0249 29.7503 41.8479V22.125C29.7503 21.091 30.5913 20.25 31.6253 20.25C32.6592 20.25 33.5003 21.091 33.5003 22.125V41.8479C33.5003 42.0249 33.5753 42.1933 33.7066 42.3123C34.3798 42.9184 34.7503 43.74 34.7503 44.625C34.7502 46.348 33.3483 47.75 31.6252 47.75Z" fill="#6C89C3"></path> <path d="M32.2501 42.8651V32.125C32.2501 31.7796 31.9706 31.5 31.6251 31.5C31.2797 31.5 31.0001 31.7796 31.0001 32.125V42.8651C30.2742 43.124 29.7501 43.8113 29.7501 44.625C29.7501 45.6589 30.5912 46.5 31.6251 46.5C32.6591 46.5 33.5001 45.6589 33.5001 44.625C33.5001 43.8113 32.9761 43.124 32.2501 42.8651ZM31.6251 45.25C31.2803 45.25 31.0001 44.9699 31.0001 44.625C31.0001 44.2802 31.2802 44 31.6251 44C31.9699 44 32.2501 44.2801 32.2501 44.625C32.2501 44.9699 31.97 45.25 31.6251 45.25Z" fill="#6C89C3"></path> <path d="M26.6251 39H22.8751C22.5297 39 22.2501 39.2795 22.2501 39.625C22.2501 39.9705 22.5297 40.25 22.8751 40.25H26.6251C26.9706 40.25 27.2502 39.9705 27.2502 39.625C27.2502 39.2795 26.9706 39 26.6251 39Z" fill="#6C89C3"></path> <path d="M26.625 36.5H25.375C25.0296 36.5 24.75 36.7796 24.75 37.125C24.75 37.4704 25.0296 37.75 25.375 37.75H26.625C26.9705 37.75 27.25 37.4704 27.25 37.125C27.25 36.7796 26.9705 36.5 26.625 36.5Z" fill="#6C89C3"></path> <path d="M26.625 34H25.375C25.0296 34 24.75 34.2796 24.75 34.625C24.75 34.9705 25.0296 35.25 25.375 35.25H26.625C26.9705 35.25 27.25 34.9705 27.25 34.625C27.25 34.2796 26.9705 34 26.625 34Z" fill="#6C89C3"></path> <path d="M22.8751 32.75H26.6251C26.9706 32.75 27.2502 32.4705 27.2502 32.125C27.2502 31.7796 26.9706 31.5 26.6251 31.5H22.8751C22.5297 31.5 22.2501 31.7796 22.2501 32.125C22.2501 32.4705 22.5297 32.75 22.8751 32.75Z" fill="#6C89C3"></path> <path d="M22.8751 25.25H26.6251C26.9706 25.25 27.2502 24.9705 27.2502 24.625C27.2502 24.2796 26.9706 24 26.6251 24H22.8751C22.5297 24 22.2501 24.2796 22.2501 24.625C22.2501 24.9705 22.5297 25.25 22.8751 25.25Z" fill="#6C89C3"></path> <path d="M26.625 29H25.375C25.0296 29 24.75 29.2795 24.75 29.625C24.75 29.9704 25.0296 30.25 25.375 30.25H26.625C26.9705 30.25 27.25 29.9704 27.25 29.625C27.25 29.2795 26.9705 29 26.625 29Z" fill="#6C89C3"></path> <path d="M26.625 26.5H25.375C25.0296 26.5 24.75 26.7796 24.75 27.125C24.75 27.4705 25.0296 27.75 25.375 27.75H26.625C26.9705 27.75 27.25 27.4705 27.25 27.125C27.25 26.7796 26.9705 26.5 26.625 26.5Z" fill="#6C89C3"></path> <path d="M40.3752 29H41.6251C42.6591 29 43.5001 29.841 43.5001 30.875C43.5001 31.2204 43.7797 31.5 44.1252 31.5C44.4706 31.5 44.7502 31.2204 44.7502 30.875C44.7502 29.152 43.3482 27.75 41.6252 27.75H40.3752C38.6522 27.75 37.2502 29.152 37.2502 30.875V35.875C37.2502 37.598 38.6522 38.9999 40.3752 38.9999H41.6251C43.3482 38.9999 44.7501 37.598 44.7501 35.875C44.7501 35.5295 44.4706 35.2499 44.1251 35.2499C43.7796 35.2499 43.5001 35.5295 43.5001 35.875C43.5001 36.9089 42.6591 37.75 41.6251 37.75H40.3752C39.3412 37.75 38.5002 36.9089 38.5002 35.875V30.875C38.5002 29.841 39.3412 29 40.3752 29Z" fill="#6C89C3"></path> <path d="M47.8752 27.75C46.8413 27.75 46.0002 28.5911 46.0002 29.625C46.0002 30.6589 46.8413 31.5 47.8752 31.5C48.9092 31.5 49.7502 30.6589 49.7502 29.625C49.7502 28.5911 48.9092 27.75 47.8752 27.75ZM47.8752 30.25C47.5304 30.25 47.2502 29.9699 47.2502 29.625C47.2502 29.2802 47.5304 29 47.8752 29C48.2201 29 48.5003 29.2801 48.5003 29.625C48.5002 29.9699 48.2201 30.25 47.8752 30.25Z" fill="#6C89C3"></path> </svg> 