<?xml version="1.0" encoding="UTF-8"?> <svg xmlns="http://www.w3.org/2000/svg" width="66" height="66" viewBox="0 0 66 66" fill="none"> <path d="M66 33C66 14.7746 51.2254 0 33 0C14.7746 0 0 14.7746 0 33C0 51.2254 14.7746 66 33 66C51.2254 66 66 51.2254 66 33Z" fill="#E9F4FF"></path> <path d="M47.8933 32.3135C45.6247 29.088 42.9416 26.7007 39.9186 25.218C37.0149 23.7938 33.8575 23.2815 30.7873 23.7367C30.4672 23.7841 30.2462 24.0821 30.2936 24.4021C30.341 24.7222 30.6388 24.9437 30.9591 24.8958C35.519 24.22 40.022 25.8159 43.7854 29.3368C43.6999 29.6482 43.546 29.946 43.3377 30.1954C43.0759 30.5075 42.7504 30.7222 42.4212 30.7999C42.4209 30.7999 42.4205 30.8001 42.4201 30.8002C42.4199 30.8002 42.4198 30.8002 42.4196 30.8002C41.9167 30.9204 41.4369 31.2289 41.0684 31.6691C40.7107 32.0965 40.4724 32.6329 40.3974 33.1795C40.3535 33.5001 40.5777 33.7956 40.8984 33.8396C40.9254 33.8433 40.9522 33.8451 40.9787 33.8451C41.267 33.8451 41.5182 33.6323 41.5585 33.3387C41.6038 33.0077 41.749 32.6819 41.9671 32.4213C42.175 32.173 42.4325 32.002 42.6921 31.9399C42.6924 31.9399 42.6927 31.9397 42.693 31.9396C42.7057 31.9366 42.7184 31.933 42.7311 31.9297C42.8118 32.0813 42.8631 32.2635 42.8783 32.4633C42.9024 32.7966 42.8269 33.1478 42.6657 33.4523C42.5144 33.7383 42.6235 34.0929 42.9095 34.2443C42.9969 34.2905 43.0907 34.3124 43.1831 34.3124C43.3932 34.3124 43.5964 34.1991 43.7015 34.0005C43.9679 33.4971 44.0874 32.9364 44.047 32.3766C44.0201 32.0222 43.9262 31.6887 43.7754 31.3981C43.9404 31.2662 44.0954 31.1155 44.2364 30.9474C44.4165 30.7318 44.57 30.4922 44.6929 30.2385C45.3906 30.9737 46.0593 31.7782 46.6937 32.6505C45.188 34.7219 43.4854 36.4221 41.6235 37.717C41.5071 37.55 41.3962 37.4002 41.2947 37.2735C41.0509 36.9683 40.6637 36.5623 40.1184 36.5619C40.1181 36.5619 40.1178 36.5619 40.1175 36.5619C39.5723 36.5619 39.1841 36.9675 38.9396 37.2728C38.4957 37.8267 37.8771 38.8068 37.3702 39.8549C32.0714 41.5762 26.6489 40.132 22.2119 35.9685C22.2975 35.6565 22.4524 35.357 22.663 35.1047C22.923 34.7934 23.2475 34.5791 23.5767 34.5013C24.0807 34.3829 24.5615 34.0739 24.9297 33.6319C25.29 33.2014 25.5284 32.6643 25.601 32.1193C25.6437 31.7985 25.4183 31.5039 25.0975 31.4612C24.7767 31.4185 24.4821 31.6439 24.4394 31.9647C24.3957 32.2924 24.2507 32.6174 24.0302 32.8809C23.8229 33.1297 23.5666 33.3001 23.3086 33.3606C23.3083 33.3606 23.3081 33.3607 23.3079 33.3608C23.3078 33.3608 23.3077 33.3608 23.3077 33.3608C23.2944 33.3639 23.2813 33.3677 23.2681 33.3711C23.187 33.2192 23.1359 33.0367 23.1214 32.8356C23.0963 32.5057 23.1719 32.1553 23.3341 31.8489C23.4854 31.5628 23.3763 31.2083 23.0903 31.0569C22.8043 30.9054 22.4498 31.0147 22.2983 31.3005C22.0301 31.8072 21.9106 32.3687 21.9527 32.9222C21.9783 33.2767 22.0719 33.6109 22.2235 33.9026C22.0586 34.0347 21.9038 34.1855 21.7634 34.3536C21.5826 34.5703 21.4285 34.8105 21.3052 35.0647C20.6095 34.3296 19.9414 33.5247 19.306 32.6505C21.2988 29.9075 23.6131 27.8317 26.1896 26.4779C26.4761 26.3273 26.5863 25.9731 26.4358 25.6866C26.2852 25.4001 25.9309 25.2901 25.6446 25.4405C22.7971 26.9367 20.261 29.2492 18.1066 32.3136C17.9645 32.5158 17.9645 32.7854 18.1066 32.9876C19.0339 34.3065 20.0447 35.4939 21.1221 36.538C21.1503 36.5723 21.1823 36.6036 21.2178 36.6308C23.1131 38.4459 25.2123 39.8177 27.4286 40.6733C29.2459 41.3749 31.122 41.7263 32.9991 41.7262C34.2689 41.7261 35.5393 41.5649 36.7919 41.243C36.5945 41.8223 36.4708 42.3741 36.4708 42.8357C36.4708 43.9378 36.8709 44.8693 37.6279 45.5297C38.2896 46.107 39.1736 46.4248 40.1169 46.4248C41.9288 46.4248 43.7631 45.192 43.7631 42.8357C43.7631 41.696 43.01 40.0082 42.2522 38.7079C44.3433 37.2616 46.2391 35.3401 47.8934 32.9876C48.0355 32.7854 48.0355 32.5157 47.8933 32.3135V32.3135ZM40.1169 45.253C38.8853 45.253 37.6426 44.5055 37.6426 42.8357C37.6426 41.6348 38.9636 39.117 39.8541 38.0056C39.8541 38.0056 39.8541 38.0056 39.8542 38.0055C39.9934 37.8318 40.079 37.7664 40.1174 37.743C40.1555 37.7665 40.2409 37.832 40.3796 38.0056C41.2701 39.117 42.5911 41.6348 42.5911 42.8357C42.5911 44.5055 41.3485 45.253 40.1169 45.253V45.253Z" fill="#6C89C3"></path> <path d="M32.9992 35.4698C34.5522 35.4698 35.8158 34.2051 35.8158 32.6506C35.8158 31.0961 34.5523 29.8314 32.9992 29.8314C31.4462 29.8314 30.1827 31.0961 30.1827 32.6506C30.1827 34.2051 31.4462 35.4698 32.9992 35.4698ZM32.9992 31.0033C33.9061 31.0033 34.6439 31.7423 34.6439 32.6506C34.6439 33.5589 33.9061 34.2979 32.9992 34.2979C32.0924 34.2979 31.3546 33.5589 31.3546 32.6506C31.3546 31.7423 32.0924 31.0033 32.9992 31.0033V31.0033Z" fill="#6C89C3"></path> <path d="M32.9991 38.7971C36.3847 38.7971 39.1391 36.0397 39.1391 32.6505C39.1391 29.2613 36.3847 26.5039 32.9991 26.5039C29.6135 26.5039 26.8591 29.2613 26.8591 32.6505C26.8591 36.0397 29.6135 38.7971 32.9991 38.7971ZM32.9991 27.6758C35.7385 27.6758 37.9672 29.9074 37.9672 32.6505C37.9672 35.3936 35.7385 37.6252 32.9991 37.6252C30.2597 37.6252 28.031 35.3936 28.031 32.6505C28.031 29.9074 30.2597 27.6758 32.9991 27.6758V27.6758Z" fill="#6C89C3"></path> <path d="M28.3121 25.5175H28.3138C28.6374 25.5175 28.8989 25.2551 28.8989 24.9315C28.8989 24.608 28.6357 24.3456 28.3121 24.3456C27.9885 24.3456 27.7262 24.608 27.7262 24.9315C27.7262 25.2551 27.9885 25.5175 28.3121 25.5175V25.5175Z" fill="#6C89C3"></path> </svg> 