<?xml version="1.0" encoding="UTF-8"?> <svg xmlns="http://www.w3.org/2000/svg" width="66" height="66" viewBox="0 0 66 66" fill="none"> <path d="M66 33C66 14.7746 51.2254 0 33 0C14.7746 0 0 14.7746 0 33C0 51.2254 14.7746 66 33 66C51.2254 66 66 51.2254 66 33Z" fill="#E9F4FF"></path> <path d="M25.7372 44.5002C25.5084 44.2714 25.1374 44.2714 24.9086 44.5002L22.6881 46.7207C22.4593 46.9496 22.4593 47.3205 22.6881 47.5493C22.8025 47.6637 22.9524 47.7209 23.1023 47.7209C23.2523 47.7209 23.4022 47.6636 23.5167 47.5493L25.7372 45.3287C25.966 45.1 25.966 44.729 25.7372 44.5002V44.5002Z" fill="#6C89C3"></path> <path d="M24.1846 43.0239C24.0726 42.7202 23.7355 42.565 23.4321 42.677L20.6207 43.714C20.3171 43.826 20.1618 44.1629 20.2738 44.4665C20.3611 44.7032 20.5852 44.8498 20.8235 44.8498C20.8909 44.8498 20.9594 44.8381 21.0263 44.8134L23.8377 43.7764C24.1412 43.6644 24.2966 43.3274 24.1846 43.0239V43.0239Z" fill="#6C89C3"></path> <path d="M27.2134 46.0527C26.9098 45.9408 26.5729 46.096 26.4609 46.3996L25.4239 49.2111C25.312 49.5147 25.4673 49.8516 25.7709 49.9636C25.8377 49.9883 25.9062 50 25.9735 50C26.2119 50 26.436 49.8534 26.5233 49.6167L27.5603 46.8052C27.6723 46.5015 27.517 46.1647 27.2134 46.0527Z" fill="#6C89C3"></path> <path d="M41.091 44.5002C40.8622 44.2714 40.4912 44.2714 40.2624 44.5002C40.0336 44.729 40.0336 45.0999 40.2624 45.3287L42.483 47.5493C42.5974 47.6637 42.7473 47.7209 42.8973 47.7209C43.0472 47.7209 43.1972 47.6637 43.3115 47.5494C43.5403 47.3206 43.5403 46.9496 43.3115 46.7208L41.091 44.5002Z" fill="#6C89C3"></path> <path d="M45.3802 43.7138L42.5672 42.6768C42.2635 42.5649 41.9267 42.7203 41.8148 43.0238C41.7028 43.3275 41.8582 43.6643 42.1618 43.7762L44.9749 44.8133C45.0418 44.8379 45.1102 44.8496 45.1775 44.8496C45.4159 44.8496 45.64 44.703 45.7273 44.4662C45.8392 44.1627 45.6839 43.8258 45.3802 43.7138Z" fill="#6C89C3"></path> <path d="M39.5404 46.4C39.4286 46.0963 39.0918 45.9408 38.7881 46.0526C38.4845 46.1644 38.329 46.5012 38.4408 46.8048L39.4761 49.6163C39.5634 49.8532 39.7875 50 40.026 50C40.0932 50 40.1616 49.9883 40.2284 49.9637C40.532 49.8519 40.6875 49.5151 40.5757 49.2115L39.5404 46.4Z" fill="#6C89C3"></path> <path d="M39.6542 42.7528C39.7378 42.7943 39.8265 42.814 39.9139 42.814C40.1295 42.814 40.3371 42.6944 40.4393 42.4881L40.441 42.4848C40.5847 42.1949 40.4653 41.845 40.1754 41.7013C39.8854 41.5577 39.5331 41.6778 39.3894 41.9677C39.2458 42.2576 39.3642 42.6091 39.6542 42.7528Z" fill="#6C89C3"></path> <path d="M38.4001 43.6036C38.2157 43.3376 37.8507 43.2714 37.5847 43.4558C36.8494 43.9655 36.0864 44.3683 35.3153 44.6534C34.4474 44.9769 33.7117 45.1276 32.9998 45.1276C32.2878 45.1276 31.5521 44.9769 30.6835 44.6531C27.18 43.3526 24.0694 39.6478 23.5487 36.3545C23.5467 36.3336 23.5434 36.3131 23.5392 36.293C23.4951 35.996 23.4718 35.7024 23.4718 35.4145V32.0685C24.8777 30.7363 25.8883 30.2823 27.4318 29.8479C28.2442 29.6203 28.6249 29.7332 29.3832 29.9582C29.572 30.0142 29.786 30.0776 30.025 30.1402C35.152 31.4816 37.201 31.7197 41.2832 32.1942C41.6772 32.2401 42.0907 32.2881 42.5277 32.3395V35.4145C42.5277 36.7654 42.002 38.3369 41.0477 39.8395C40.8742 40.1127 40.955 40.4748 41.2281 40.6483C41.3255 40.7101 41.4342 40.7397 41.5417 40.7397C41.7355 40.7397 41.9252 40.6435 42.0369 40.4678C42.7619 39.3262 43.2663 38.136 43.5172 36.9992H43.9093C45.6606 36.9992 46.6055 35.3813 46.6055 33.859C46.6055 33.1915 46.4273 32.5692 46.1038 32.1068C45.7096 31.5434 45.1153 31.2331 44.4303 31.2331H43.6394L43.3283 28.3641C43.2277 27.4248 43.2906 27.3267 43.6048 27.0177C43.7256 26.8986 43.8622 26.7795 44.0068 26.6533C44.7601 25.9963 45.7915 25.0965 45.9256 22.8922C45.937 22.7054 45.8584 22.5244 45.7141 22.4052C45.5699 22.2859 45.3774 22.2428 45.1959 22.289C44.8823 22.3691 44.5944 22.4465 44.3404 22.5149C42.4772 23.0165 42.0344 23.1356 40.2767 22.0517C37.4026 20.2796 34.8267 19.6645 32.4019 20.1713C30.343 20.6016 28.8456 21.7463 27.6425 22.666C27.5457 22.74 27.4518 22.8117 27.3603 22.8811C26.381 22.6102 25.3885 22.7352 24.535 23.2437C23.5116 23.8534 22.7893 24.9698 22.6027 26.2293C22.3217 28.1093 22.3015 28.835 22.3001 31.2332H21.5709C20.8856 31.2332 20.291 31.5435 19.8965 32.1069C19.5727 32.5693 19.3944 33.1917 19.3944 33.8593C19.3944 35.3816 20.3398 36.9993 22.0919 36.9993H22.4834C22.8095 38.4709 23.5606 40.0287 24.6521 41.4533C26.1786 43.4457 28.1758 44.9723 30.275 45.7515C31.2779 46.1254 32.1437 46.2994 32.9998 46.2994C33.8558 46.2994 34.7217 46.1254 35.7231 45.7521C36.5851 45.4333 37.4361 44.9847 38.2523 44.4189C38.5182 44.2345 38.5844 43.8695 38.4001 43.6036V43.6036ZM43.6996 35.4146V32.4049H44.4303C44.7344 32.4049 44.9678 32.5272 45.1437 32.7786C45.3281 33.0421 45.4338 33.4359 45.4338 33.8591C45.4338 34.6503 45.0278 35.8275 43.9093 35.8275H43.6861C43.6948 35.6883 43.6996 35.5505 43.6996 35.4146ZM23.7618 26.4017C23.8973 25.486 24.4106 24.6818 25.1347 24.2503C25.5844 23.9824 26.3197 23.7356 27.2696 24.0815C27.4544 24.1487 27.6603 24.1188 27.8183 24.0021C27.9915 23.8741 28.1676 23.7394 28.354 23.5969C30.6519 21.8402 33.799 19.4344 39.6617 23.0492C41.8502 24.3987 42.726 24.1629 44.645 23.6465C44.6453 23.6464 44.6456 23.6463 44.646 23.6462C44.4026 24.7531 43.8332 25.2499 43.2366 25.7703C43.0851 25.9024 42.9285 26.039 42.7827 26.1827C42.0761 26.8777 42.0514 27.4454 42.1632 28.4897L42.4518 31.1509C42.0921 31.1087 41.7486 31.0687 41.4185 31.0304C37.3907 30.5622 35.369 30.3272 30.3216 29.0067C30.101 28.949 29.9055 28.891 29.7164 28.8349C29.2064 28.6836 28.7634 28.5521 28.2256 28.5521C27.9015 28.5521 27.543 28.5999 27.1148 28.7199C25.7192 29.1126 24.6756 29.5393 23.4732 30.5081C23.4805 28.6925 23.5221 28.0051 23.7618 26.4017V26.4017ZM22.0919 35.8275C20.9725 35.8275 20.5662 34.6504 20.5662 33.8593C20.5662 33.4361 20.672 33.0424 20.8564 32.7789C21.0326 32.5273 21.2663 32.405 21.5709 32.405H22.3V35.4147C22.3 35.5507 22.3049 35.6885 22.3138 35.8275H22.0919V35.8275Z" fill="#6C89C3"></path> <path d="M31.2004 42.9136H34.8008C35.7039 42.9136 36.4387 42.1781 36.4387 41.2741C36.4387 39.3778 34.896 37.835 32.9998 37.835C31.1036 37.835 29.5608 39.3777 29.5608 41.2741C29.5608 42.1781 30.2963 42.9136 31.2004 42.9136V42.9136ZM32.9998 39.0068C34.2499 39.0068 35.2669 40.0238 35.2669 41.274C35.2669 41.5319 35.0578 41.7418 34.8008 41.7418H31.2004C30.9469 41.7418 30.7327 41.5276 30.7327 41.274C30.7325 40.0238 31.7496 39.0068 32.9998 39.0068Z" fill="#6C89C3"></path> <path d="M38.8619 37.1541C39.0726 37.1541 39.2764 37.0401 39.3811 36.8404C39.5315 36.5539 39.4212 36.1998 39.1347 36.0494L37.6527 35.2714L39.1347 34.4935C39.4212 34.343 39.5315 33.9889 39.3811 33.7024C39.2307 33.4159 38.8765 33.3055 38.5901 33.4559L36.1199 34.7527C35.927 34.8539 35.8063 35.0537 35.8063 35.2714C35.8063 35.4892 35.927 35.6889 36.1199 35.7901L38.5901 37.0869C38.677 37.1325 38.7701 37.1541 38.8619 37.1541V37.1541Z" fill="#6C89C3"></path> <path d="M26.6185 36.8403C26.7232 37.04 26.9269 37.1541 27.1378 37.1541C27.2295 37.1541 27.3226 37.1325 27.4095 37.087L29.8814 35.7902C30.0743 35.689 30.1951 35.4892 30.1951 35.2714C30.1951 35.0536 30.0743 34.8537 29.8814 34.7525L27.4095 33.4558C27.123 33.3055 26.7688 33.4159 26.6185 33.7025C26.4682 33.989 26.5786 34.3432 26.8651 34.4935L28.348 35.2714L26.8651 36.0493C26.5786 36.1995 26.4681 36.5537 26.6185 36.8403V36.8403Z" fill="#6C89C3"></path> </svg> 