<?xml version="1.0" encoding="UTF-8"?> <svg xmlns="http://www.w3.org/2000/svg" width="66" height="66" viewBox="0 0 66 66" fill="none"> <path d="M66 33C66 14.7746 51.2254 0 33 0C14.7746 0 0 14.7746 0 33C0 51.2254 14.7746 66 33 66C51.2254 66 66 51.2254 66 33Z" fill="#E9F4FF"></path> <path d="M38.498 43.6445C38.0375 43.6445 37.7239 43.9686 37.5281 44.2123C37.528 44.2124 37.5279 44.2125 37.5279 44.2126C36.9212 44.9689 35.7318 47.0025 35.7318 48.2764C35.7318 50.0644 37.1229 50.9999 38.4972 50.9999C39.8714 50.9999 41.2625 50.0644 41.2625 48.2764C41.2625 47.0049 40.0746 44.9704 39.4679 44.2122C39.2721 43.9686 38.9586 43.6445 38.498 43.6445V43.6445ZM38.4973 49.828C37.7041 49.828 36.9037 49.3483 36.9037 48.2764C36.9037 47.5288 37.7638 45.7916 38.4418 44.9463C38.4629 44.9199 38.4817 44.898 38.4981 44.8799C38.5143 44.8979 38.5328 44.9194 38.5537 44.9454C39.2456 45.81 40.0907 47.5169 40.0907 48.2764C40.0907 49.3483 39.2904 49.828 38.4973 49.828V49.828Z" fill="#6C89C3"></path> <path d="M27.6771 43.7692C27.223 43.7692 26.934 44.1291 26.8391 44.2474C26.8389 44.2475 26.8388 44.2476 26.8388 44.2478C26.3762 44.8248 25.4696 46.3814 25.4696 47.3647C25.4696 48.7928 26.5801 49.5401 27.6771 49.5401C28.7741 49.5401 29.8846 48.7928 29.8846 47.3647C29.8846 46.3814 28.9779 44.8248 28.5151 44.2474C28.4202 44.1291 28.1312 43.7692 27.6771 43.7692V43.7692ZM27.6771 48.3682C27.1994 48.3682 26.6415 48.1054 26.6415 47.3647C26.6415 46.8641 27.2012 45.7175 27.6771 45.0792C28.153 45.7175 28.7127 46.8641 28.7127 47.3647C28.7127 48.1054 28.1548 48.3682 27.6771 48.3682Z" fill="#6C89C3"></path> <path d="M40.4305 32.1521C40.2928 32.0251 40.1548 31.8979 40.0176 31.7695C39.3588 31.1531 38.9159 30.383 38.6237 29.3462C38.5359 29.0347 38.2123 28.8534 37.9008 28.9411C37.5893 29.0289 37.408 29.3525 37.4957 29.664C37.8436 30.8983 38.4066 31.867 39.2171 32.6253C39.3564 32.7555 39.4965 32.8847 39.636 33.0135C41.25 34.5018 42.6438 35.7871 42.2039 38.0493C41.7901 40.1671 39.7309 41.5548 37.6134 41.1424C37.3336 41.088 37.0647 41.0041 36.808 40.8935C37.3855 39.9968 37.7273 38.8899 37.7273 37.6932C37.7273 37.6909 37.727 37.6886 37.7269 37.6863C37.7269 37.6842 37.7272 37.682 37.7271 37.6798C37.7235 37.5243 37.7796 37.3797 37.8851 37.2729C37.9904 37.1663 38.1363 37.1088 38.2894 37.1099C38.6285 37.1134 38.9107 37.3922 38.9184 37.7316C38.9257 38.0505 39.1866 38.3041 39.5039 38.3041C39.5085 38.3041 39.5131 38.304 39.5176 38.304C39.8411 38.2966 40.0974 38.0283 40.09 37.7048C40.0679 36.7404 39.2656 35.9479 38.3014 35.9381C37.8235 35.9333 37.3816 36.115 37.0511 36.4496C36.7246 36.7803 36.5493 37.22 36.5555 37.6893C36.5555 37.6907 36.5554 37.6919 36.5554 37.6932C36.5554 40.0288 34.9603 41.9289 32.9998 41.9289C31.0393 41.9289 29.4444 40.0288 29.4444 37.6932C29.4444 37.692 29.4442 37.6907 29.4442 37.6893C29.4505 37.22 29.2751 36.7802 28.9486 36.4496C28.6225 36.1192 28.1857 35.938 27.717 35.938C27.7108 35.938 27.7045 35.938 27.6984 35.9381C26.7342 35.9479 25.9318 36.7404 25.9098 37.7047C25.9023 38.0282 26.1586 38.2965 26.4822 38.3039C26.4867 38.304 26.4912 38.304 26.4958 38.304C26.8132 38.304 27.074 38.0504 27.0813 37.7315C27.0891 37.3922 27.3712 37.1133 27.7103 37.1099C27.8672 37.1087 28.0093 37.1662 28.1146 37.2729C28.2201 37.3796 28.2762 37.5242 28.2726 37.6798C28.2725 37.6819 28.2728 37.6841 28.2728 37.6863C28.2728 37.6886 28.2724 37.6908 28.2724 37.6932C28.2724 38.8898 28.6143 39.9968 29.1917 40.8935C28.9349 41.0043 28.6659 41.0882 28.386 41.1424C26.2688 41.5547 24.2096 40.1671 23.796 38.0497C23.3562 35.7889 24.7485 34.5042 26.3605 33.0167C26.5013 32.8868 26.6425 32.7565 26.7829 32.625C28.5163 31.0024 28.766 28.7681 28.9863 26.7967C29.1307 25.5051 29.267 24.2851 29.8011 23.4544C30.1555 22.9039 30.8722 22.1719 33 22.1719C35.6234 22.1719 36.2978 23.2777 36.6357 24.4726C36.7238 24.7839 37.0472 24.965 37.359 24.8769C37.6704 24.7888 37.8515 24.4651 37.7634 24.1536C37.4759 23.1371 37.0017 22.3944 36.3138 21.8827C35.5151 21.2888 34.4312 21 33 21C30.9723 21 29.6035 21.5956 28.8157 22.8208C28.1332 23.8823 27.982 25.2348 27.822 26.6667C27.6145 28.523 27.4 30.4426 25.9824 31.7696C25.844 31.8991 25.7049 32.0275 25.5661 32.1555C23.853 33.7363 22.0815 35.371 22.6461 38.2739C23.1198 40.6991 25.2539 42.387 27.6369 42.387C27.9577 42.387 28.2834 42.3564 28.6098 42.2928C29.0835 42.201 29.5351 42.0452 29.9577 41.8285C30.7805 42.6218 31.8423 43.1007 33.0001 43.1007C34.1579 43.1007 35.2197 42.6218 36.0425 41.8284C36.4647 42.0449 36.9161 42.2006 37.3899 42.2927C37.7166 42.3563 38.0419 42.387 38.3631 42.387C40.7461 42.3868 42.8804 40.6987 43.3542 38.2734C43.919 35.369 42.1456 33.7336 40.4305 32.1521V32.1521Z" fill="#6C89C3"></path> <path d="M37.0305 26.9124V26.9158C37.0305 27.2394 37.2929 27.5001 37.6165 27.5001C37.94 27.5001 38.2024 27.2361 38.2024 26.9125C38.2024 26.5889 37.94 26.3265 37.6165 26.3265C37.2929 26.3265 37.0305 26.5888 37.0305 26.9124V26.9124Z" fill="#6C89C3"></path> </svg> 