<?xml version="1.0" encoding="UTF-8"?> <svg xmlns="http://www.w3.org/2000/svg" width="66" height="66" viewBox="0 0 66 66" fill="none"> <path d="M66 33C66 14.7746 51.2254 0 33 0C14.7746 0 0 14.7746 0 33C0 51.2254 14.7746 66 33 66C51.2254 66 66 51.2254 66 33Z" fill="#E9F4FF"></path> <path d="M41.6935 44.324L35.3346 43.0053C35.1053 42.4147 35.0906 41.7458 35.2981 41.1424L35.3682 40.9384C35.4399 40.884 35.51 40.8269 35.5785 40.7673C38.0008 38.6673 39.2291 36.7799 39.2291 35.1575C39.2291 34.9825 39.2225 34.8118 39.2091 34.6446C39.201 34.5556 39.1937 34.4402 39.1874 34.3021C40.2312 34.1373 41.0445 33.173 41.0577 32.0116C41.0621 31.6327 40.9831 31.2669 40.8297 30.9377V26.2331C40.8297 22.7962 38.22 20 35.0123 20H32.9015C32.6751 20 32.4916 20.1967 32.4916 20.4392C32.4916 20.6818 32.6751 20.8785 32.9015 20.8785H35.0123C37.7679 20.8785 40.0099 23.2806 40.0099 26.2331V29.9807C39.7569 29.8146 39.4753 29.7062 39.179 29.6617C39.1877 29.2477 39.1985 28.8436 39.2116 28.4649C39.2238 28.1089 39.1159 27.7608 38.9077 27.4847C38.8139 27.3602 38.6643 27.3005 38.5173 27.3282C38.3703 27.3561 38.2491 27.4674 38.2008 27.6188C37.7711 28.967 36.7456 29.9787 35.4577 30.325C35.1358 30.4116 34.8065 30.4539 34.4773 30.4509C35.1977 29.7965 35.7267 28.9166 35.9808 27.9208C36.018 27.7749 35.9825 27.6188 35.8869 27.5075C35.7913 27.3963 35.6491 27.3454 35.5101 27.3733L35.4811 27.379C35.4127 27.3927 35.3488 27.4247 35.2952 27.4722C34.2259 28.4186 32.8741 28.9236 31.4891 28.8954C30.1178 28.8671 28.798 28.3206 27.7732 27.3566C27.6093 27.2025 27.3616 27.2127 27.2093 27.3799C26.9437 27.6714 26.8052 28.0565 26.8193 28.4641C26.8323 28.8423 26.8432 29.2459 26.8519 29.6595C26.5556 29.704 26.2739 29.8124 26.021 29.9784V26.2331C26.021 23.2805 28.2629 20.8785 31.0186 20.8785C31.245 20.8785 31.4285 20.6818 31.4285 20.4392C31.4285 20.1967 31.245 20 31.0186 20C27.8108 20 25.2011 22.7962 25.2011 26.2331V30.9352C25.0476 31.2644 24.9685 31.6304 24.9729 32.0095C24.9862 33.171 25.7996 34.1354 26.8436 34.3C26.8371 34.4424 26.8297 34.5614 26.8213 34.6528C26.8083 34.8115 26.8017 34.9812 26.8017 35.1573C26.8017 36.7796 28.0295 38.6665 30.4499 40.7647C30.5065 40.8141 30.5643 40.8617 30.6231 40.9075L30.7039 41.1424C30.9129 41.7498 30.8966 42.4237 30.6628 43.0171L24.3606 44.324C22.596 44.69 21.3152 46.3533 21.3152 48.2791V49.5608C21.3152 49.8033 21.4987 50 21.7251 50H23.2432C23.4696 50 23.6531 49.8033 23.6531 49.5608C23.6531 49.3182 23.4696 49.1215 23.2432 49.1215H22.1351V48.2791C22.1351 46.7733 23.1366 45.4726 24.5165 45.1864L29.0414 44.2481C29.4143 46.2689 31.0645 47.7458 33.0271 47.7458C34.0435 47.7458 35.0164 47.3417 35.7665 46.6079C36.4102 45.9782 36.8438 45.1522 37.0123 44.2479L41.5377 45.1864C42.9175 45.4726 43.919 46.7733 43.919 48.2791V49.1216H25.1509C24.9245 49.1216 24.741 49.3182 24.741 49.5608C24.741 49.8034 24.9245 50.0001 25.1509 50.0001H44.3289C44.5554 50.0001 44.7389 49.8034 44.7389 49.5608V48.2791C44.739 46.3533 43.4581 44.69 41.6935 44.324V44.324ZM39.8433 30.9528C40.1023 31.2338 40.2424 31.606 40.2379 32.0008C40.23 32.6917 39.7693 33.2711 39.1624 33.4144C39.1495 32.6215 39.1499 31.5893 39.1637 30.5508C39.4198 30.6105 39.6545 30.7482 39.8433 30.9528V30.9528ZM25.7928 31.9987C25.7882 31.6039 25.9284 31.2317 26.1874 30.9507C26.3761 30.7459 26.611 30.6083 26.8671 30.5486C26.8809 31.5861 26.8814 32.6179 26.8684 33.4124C26.2614 33.2691 25.8006 32.6897 25.7928 31.9987V31.9987ZM27.6216 35.1573C27.6216 35.0068 27.6272 34.8628 27.6377 34.7341C27.7176 33.8605 27.7181 30.7389 27.6386 28.4318C27.6379 28.411 27.6381 28.3903 27.6394 28.3699C28.742 29.2504 30.0846 29.745 31.4734 29.7738C32.5715 29.7968 33.6505 29.5253 34.6163 28.9958C34.2483 29.5566 33.754 30.0177 33.1718 30.3289C33.0201 30.41 32.9306 30.5828 32.9467 30.7637C32.9628 30.9445 33.0812 31.0961 33.2445 31.145C34.0284 31.3796 34.8627 31.3907 35.6573 31.1771C36.774 30.8768 37.7276 30.1633 38.3698 29.1829C38.3138 31.3695 38.3216 33.9493 38.3927 34.725C38.4036 34.8619 38.4092 35.0074 38.4092 35.1575C38.4092 36.4828 37.2521 38.1865 35.062 40.0851C34.4876 40.5855 33.764 40.8608 33.0219 40.8608H33.0092C32.2676 40.8608 31.5427 40.5849 30.9666 40.0826C28.7783 38.1857 27.6216 36.4825 27.6216 35.1573V35.1573ZM33.0075 41.7393H33.0234C33.4845 41.7393 33.9404 41.6541 34.3707 41.4916C34.2735 42.1582 34.3609 42.8481 34.628 43.466C34.5817 44.3845 33.8696 45.1166 33.0009 45.1166C32.1323 45.1166 31.4202 44.3845 31.3739 43.466C31.6425 42.8444 31.7294 42.1499 31.6295 41.4795C32.0691 41.6499 32.5358 41.7393 33.0075 41.7393V41.7393ZM33.0271 46.8674C31.462 46.8674 30.1459 45.6912 29.8465 44.0811L30.6063 43.9236C30.8439 45.1061 31.8273 45.9951 33.0009 45.9951C34.1781 45.9951 35.1639 45.1008 35.3977 43.9131L36.2078 44.0811C35.9088 45.6921 34.5948 46.8674 33.0271 46.8674V46.8674Z" fill="#6C89C3"></path> <path d="M20.1685 23.7649C20.0295 23.8175 19.9275 23.9459 19.9013 24.1013C19.8752 24.2567 19.9289 24.4151 20.042 24.5163L23.7329 27.8188C23.8085 27.8865 23.9019 27.9209 23.9957 27.9209C24.0731 27.9209 24.1508 27.8975 24.219 27.85C24.3698 27.745 24.4392 27.5469 24.3899 27.3615L23.6875 24.7154L24.3751 24.4271C24.4905 24.3786 24.5793 24.2769 24.6167 24.1502C24.654 24.0236 24.6358 23.8856 24.5672 23.775L22.3492 20.1968C22.2454 20.0292 22.0486 19.9588 21.8714 20.0255L19.2818 21.004C19.1474 21.0547 19.0473 21.1765 19.0174 21.3257C18.9874 21.4748 19.0317 21.63 19.1347 21.7355L20.859 23.504L20.1685 23.7649ZM20.1832 21.5949L21.8429 20.9678L23.6031 23.8074L23.0418 24.0427C22.8451 24.1252 22.7391 24.3543 22.7969 24.572L23.2374 26.2309L21.1205 24.3368L21.7604 24.095C21.8948 24.0442 21.9948 23.9225 22.0248 23.7733C22.0547 23.6242 22.0104 23.469 21.9075 23.3635L20.1832 21.5949Z" fill="#6C89C3"></path> <path d="M23.1004 31.7864C23.2554 31.7864 23.4036 31.6918 23.4728 31.5311C23.5677 31.3109 23.478 31.0499 23.2724 30.9482L21.9453 30.292L22.5158 29.8744C22.6376 29.7852 22.7054 29.6327 22.6931 29.4751C22.6807 29.3176 22.5904 29.1792 22.4563 29.1129L20.4729 28.1321C20.2672 28.0304 20.0237 28.1266 19.9288 28.3468C19.8339 28.5671 19.9237 28.8281 20.1293 28.9297L21.4564 29.586L20.8859 30.0036C20.764 30.0928 20.6963 30.2453 20.7086 30.4029C20.721 30.5604 20.8113 30.6988 20.9453 30.765L22.9288 31.7459C22.9845 31.7734 23.0429 31.7864 23.1004 31.7864Z" fill="#6C89C3"></path> <path d="M46.9836 21.3617C46.9536 21.2126 46.8535 21.0908 46.7192 21.0401L44.1295 20.0616C43.9523 19.9947 43.7555 20.0653 43.6517 20.2329L41.4337 23.8111C41.3651 23.9217 41.3469 24.0597 41.3843 24.1863C41.4216 24.3129 41.5104 24.4147 41.6258 24.4632L42.3135 24.7515L41.6109 27.3976C41.5617 27.583 41.631 27.7811 41.7819 27.8861C41.8501 27.9336 41.9277 27.957 42.0051 27.957C42.0989 27.957 42.1924 27.9226 42.268 27.8549L45.9589 24.5524C46.072 24.4512 46.1257 24.2927 46.0995 24.1374C46.0734 23.982 45.9714 23.8536 45.8324 23.801L45.1419 23.5402L46.8663 21.7716C46.9692 21.6661 47.0136 21.5109 46.9836 21.3617V21.3617ZM44.0934 23.3995C43.9905 23.505 43.9461 23.6602 43.9761 23.8093C44.006 23.9585 44.1062 24.0803 44.2405 24.131L44.8804 24.3728L42.7635 26.267L43.204 24.608C43.2618 24.3903 43.1557 24.1613 42.9591 24.0787L42.3978 23.8434L44.158 21.0038L45.8177 21.6309L44.0934 23.3995Z" fill="#6C89C3"></path> <path d="M45.5269 28.1689L43.5434 29.1497C43.4094 29.2159 43.319 29.3543 43.3067 29.5119C43.2944 29.6695 43.3621 29.822 43.484 29.9112L44.0545 30.3287L42.7274 30.985C42.5218 31.0867 42.4321 31.3476 42.527 31.5679C42.5962 31.7286 42.7445 31.8232 42.8994 31.8232C42.9569 31.8232 43.0153 31.8101 43.071 31.7827L45.0544 30.8018C45.1884 30.7356 45.2788 30.5972 45.2911 30.4397C45.3035 30.2821 45.2357 30.1296 45.1138 30.0404L44.5433 29.6228L45.8704 28.9665C46.076 28.8649 46.1657 28.6039 46.0708 28.3836C45.976 28.1634 45.7324 28.0673 45.5269 28.1689Z" fill="#6C89C3"></path> <path d="M30.6172 22.5391C30.3908 22.5391 30.2072 22.7357 30.2072 22.9783C30.2072 23.2167 30.0262 23.4106 29.8038 23.4106C29.5773 23.4106 29.3938 23.6072 29.3938 23.8498C29.3938 24.0924 29.5773 24.289 29.8038 24.289C30.4783 24.289 31.0271 23.701 31.0271 22.9783C31.0271 22.7357 30.8436 22.5391 30.6172 22.5391V22.5391Z" fill="#6C89C3"></path> <path d="M33.077 24.289C33.3035 24.289 33.4869 24.0924 33.4869 23.8498C33.4869 23.6072 33.3035 23.4106 33.077 23.4106C32.8546 23.4106 32.6735 23.2167 32.6735 22.9783C32.6735 22.7357 32.49 22.5391 32.2636 22.5391C32.0371 22.5391 31.8536 22.7357 31.8536 22.9783C31.8537 23.701 32.4025 24.289 33.077 24.289Z" fill="#6C89C3"></path> <path d="M29.8038 25.1323C29.5773 25.1323 29.3938 25.329 29.3938 25.5716C29.3938 25.8141 29.5773 26.0108 29.8038 26.0108C30.0262 26.0108 30.2072 26.2047 30.2072 26.4431C30.2072 26.6856 30.3908 26.8823 30.6172 26.8823C30.8436 26.8823 31.0271 26.6856 31.0271 26.4431C31.0271 25.7203 30.4783 25.1323 29.8038 25.1323Z" fill="#6C89C3"></path> <path d="M32.2637 26.8823C32.4902 26.8823 32.6737 26.6856 32.6737 26.4431C32.6737 26.2047 32.8547 26.0108 33.0771 26.0108C33.3036 26.0108 33.4871 25.8141 33.4871 25.5716C33.4871 25.329 33.3036 25.1323 33.0771 25.1323C32.4025 25.1323 31.8538 25.7203 31.8538 26.4431C31.8538 26.6856 32.0373 26.8823 32.2637 26.8823Z" fill="#6C89C3"></path> </svg> 