<?xml version="1.0" encoding="UTF-8"?> <svg xmlns="http://www.w3.org/2000/svg" width="36" height="36" viewBox="0 0 36 36" fill="none"> <rect width="36" height="36" rx="18" fill="#E9F4FF"></rect> <path d="M24.3014 13.2632H12.3316C11.8009 13.2632 11.3691 13.6975 11.3691 14.2312V22.3989C11.3691 22.9327 11.8009 23.3669 12.3316 23.3669H19.3114L19.1006 24.6597C19.061 24.903 19.141 25.1234 19.3147 25.2492C19.4884 25.375 19.7215 25.3817 19.9384 25.2667L21.4443 24.4695C21.4863 24.4479 21.6021 24.4479 21.6441 24.4695L23.15 25.2667C23.253 25.3213 23.3597 25.3484 23.4619 25.3484C23.575 25.3484 23.6826 25.3152 23.7738 25.2492C23.9475 25.1234 24.0275 24.9029 23.9879 24.6596L23.7772 23.3669H24.3014C24.8321 23.3669 25.2639 22.9326 25.2639 22.3989V14.2312C25.2638 13.6974 24.832 13.2632 24.3014 13.2632ZM21.5442 21.7077C20.6194 21.7077 19.8668 20.9508 19.8668 20.0206C19.8668 19.0904 20.6194 18.3335 21.5442 18.3335C22.4691 18.3335 23.2217 19.0904 23.2217 20.0206C23.2217 20.9508 22.4691 21.7077 21.5442 21.7077ZM22.0284 23.7353C21.7478 23.5868 21.3406 23.5868 21.0601 23.7353L19.9955 24.299L20.3339 22.2225C20.6929 22.4229 21.1055 22.5374 21.5443 22.5374C21.9831 22.5374 22.3957 22.4228 22.7547 22.2225L22.8866 23.032C22.8869 23.0333 22.887 23.0348 22.8873 23.0361L23.0931 24.299L22.0284 23.7353ZM24.4389 22.3989C24.4389 22.4739 24.3759 22.5372 24.3014 22.5372H23.6419L23.4913 21.613C23.4907 21.6093 23.4897 21.6058 23.489 21.6022C23.8374 21.1697 24.0467 20.6193 24.0467 20.0206C24.0467 18.6328 22.9241 17.5038 21.5443 17.5038C20.1645 17.5038 19.0419 18.6328 19.0419 20.0206C19.0419 20.6193 19.2512 21.1696 19.5997 21.6022C19.5989 21.6058 19.5979 21.6093 19.5973 21.6129L19.4466 22.5379C19.442 22.5378 19.4375 22.5372 19.4329 22.5372H12.3316C12.2571 22.5372 12.1941 22.4739 12.1941 22.3989V14.2312C12.1941 14.1562 12.2571 14.0929 12.3316 14.0929H24.3014C24.3759 14.0929 24.4389 14.1562 24.4389 14.2312V22.3989Z" fill="#6C89C3"></path> <path d="M22.8421 15.6509H13.4926C13.2647 15.6509 13.0801 15.8366 13.0801 16.0657C13.0801 16.2949 13.2647 16.4806 13.4926 16.4806H22.8421C23.07 16.4806 23.2546 16.2949 23.2546 16.0657C23.2546 15.8366 23.07 15.6509 22.8421 15.6509Z" fill="#6C89C3"></path> <path d="M17.4524 17.9004H13.4926C13.2647 17.9004 13.0801 18.0861 13.0801 18.3153C13.0801 18.5444 13.2647 18.7301 13.4926 18.7301H17.4524C17.6802 18.7301 17.8648 18.5444 17.8648 18.3153C17.8648 18.0861 17.6802 17.9004 17.4524 17.9004Z" fill="#6C89C3"></path> </svg> 