<?xml version="1.0" encoding="UTF-8"?> <svg xmlns="http://www.w3.org/2000/svg" width="66" height="66" viewBox="0 0 66 66" fill="none"> <path d="M66 33C66 14.7746 51.2254 0 33 0C14.7746 0 0 14.7746 0 33C0 51.2254 14.7746 66 33 66C51.2254 66 66 51.2254 66 33Z" fill="#E9F4FF"></path> <path d="M25.7566 30.1639C25.5137 30.1639 25.3169 30.3607 25.3169 30.6036V39.8863C25.3169 40.8526 26.103 41.6388 27.0694 41.6388H38.9305C39.8968 41.6388 40.683 40.8526 40.683 39.8863V26.1526C40.683 25.1863 39.8968 24.4001 38.9305 24.4001H27.0694C26.1031 24.4001 25.3169 25.1863 25.3169 26.1526V28.7297C25.3169 28.9726 25.5137 29.1694 25.7566 29.1694C25.9995 29.1694 26.1963 28.9726 26.1963 28.7297V27.522H28.5627C29.9173 27.522 31.2632 27.8623 32.455 28.5062L33.3992 29.0164C34.719 29.7294 36.2095 30.1063 37.7096 30.1063H39.8034V39.8862C39.8034 40.3676 39.4117 40.7593 38.9304 40.7593H27.0694C26.588 40.7593 26.1963 40.3677 26.1963 39.8862V30.6036C26.1963 30.3607 25.9995 30.1639 25.7566 30.1639V30.1639ZM37.7096 29.2269C36.355 29.2269 35.0091 28.8866 33.8172 28.2426L32.8731 27.7325C31.5533 27.0195 30.0628 26.6426 28.5627 26.6426H26.1964V26.1526C26.1964 25.6712 26.5881 25.2796 27.0694 25.2796H38.9305C39.4119 25.2796 39.8036 25.6712 39.8036 26.1526V29.2269H37.7096Z" fill="#6C89C3"></path> <path d="M38.4842 36.6349C38.7271 36.6349 38.9239 36.438 38.9239 36.1952V31.9809C38.9239 31.583 38.6002 31.2592 38.2023 31.2592H27.7972C27.3993 31.2592 27.0756 31.583 27.0756 31.9809V39.1584C27.0756 39.5563 27.3992 39.8801 27.7972 39.8801H38.2023C38.6002 39.8801 38.924 39.5564 38.924 39.1584V38.0691C38.924 37.8262 38.7272 37.6294 38.4843 37.6294C38.2414 37.6294 38.0446 37.8262 38.0446 38.0691V39.0007H27.955V32.1386H38.0445V36.1951C38.0445 36.438 38.2413 36.6349 38.4842 36.6349V36.6349Z" fill="#6C89C3"></path> <path d="M38.9303 22.6413H37.7137C37.387 22.6413 37.0934 22.4515 36.9476 22.146C36.3257 20.8424 34.9912 20 33.5476 20H32.4521C31.0085 20 29.6739 20.8424 29.052 22.146C28.9063 22.4516 28.6127 22.6414 28.2859 22.6414H27.0693C25.1332 22.6414 23.558 24.2165 23.558 26.1527V37.132C23.558 37.3749 23.7548 37.5718 23.9977 37.5718C24.2406 37.5718 24.4374 37.3749 24.4374 37.132V26.1527C24.4374 24.7014 25.6181 23.5208 27.0693 23.5208H28.2859C28.9448 23.5208 29.5571 23.1298 29.8458 22.5246C30.3225 21.5252 31.3455 20.8794 32.4521 20.8794H33.5476C34.6541 20.8794 35.6771 21.5252 36.1538 22.5247C36.4426 23.1298 37.0548 23.5208 37.7137 23.5208H38.9303C40.3815 23.5208 41.5622 24.7014 41.5622 26.1527V39.8864C41.5622 41.3376 40.3815 42.5183 38.9303 42.5183H35.2937H30.706H27.0693C25.6181 42.5183 24.4374 41.3376 24.4374 39.8864V39.006C24.4374 38.7631 24.2406 38.5662 23.9977 38.5662C23.7548 38.5662 23.558 38.7631 23.558 39.006V39.8864C23.558 41.8225 25.1331 43.3977 27.0693 43.3977H30.2662V44.278C30.2662 44.8123 30.6215 45.2648 31.1081 45.4126V46.476C31.1081 46.8778 31.3283 47.2284 31.6539 47.4157V49.5604C31.6539 49.8032 31.8507 50.0001 32.0936 50.0001C32.3365 50.0001 32.5333 49.8032 32.5333 49.5604V47.5602H33.4663V49.5604C33.4663 49.8032 33.6631 50.0001 33.906 50.0001C34.1489 50.0001 34.3457 49.8032 34.3457 49.5604V47.4157C34.6713 47.2284 34.8915 46.8778 34.8915 46.476V45.4126C35.3781 45.2648 35.7334 44.8122 35.7334 44.278V43.3977H38.9303C40.8664 43.3977 42.4416 41.8225 42.4416 39.8864V26.1527C42.4416 24.2165 40.8664 22.6413 38.9303 22.6413V22.6413ZM32.1923 46.6807C32.0794 46.6807 31.9876 46.5888 31.9876 46.4759V45.4638H34.012V46.4759C34.012 46.5888 33.9201 46.6807 33.8072 46.6807H32.1923ZM34.854 44.2778C34.854 44.4469 34.7164 44.5844 34.5474 44.5844H34.4518H31.5479H31.4523C31.2832 44.5844 31.1457 44.4469 31.1457 44.2778V43.3976H34.854V44.2778H34.854Z" fill="#6C89C3"></path> <path d="M34.4701 23.2132C34.713 23.2132 34.9098 23.0163 34.9098 22.7734C34.9098 22.5306 34.713 22.3337 34.4701 22.3337H31.6045C31.3616 22.3337 31.1648 22.5306 31.1648 22.7734C31.1648 23.0163 31.3616 23.2132 31.6045 23.2132H34.4701Z" fill="#6C89C3"></path> <path d="M32.212 38.015H33.7874C34.1337 38.015 34.4155 37.7332 34.4155 37.3869V36.9853H34.8172C35.1634 36.9853 35.4452 36.7035 35.4452 36.3573V34.7818C35.4452 34.4355 35.1634 34.1538 34.8172 34.1538H34.4155V33.7521C34.4155 33.4058 34.1337 33.1241 33.7874 33.1241H32.212C31.8657 33.1241 31.5839 33.4058 31.5839 33.7521V34.1538H31.1822C30.836 34.1538 30.5542 34.4355 30.5542 34.7818V36.3573C30.5542 36.7036 30.836 36.9853 31.1822 36.9853H31.5839V37.3869C31.5839 37.7332 31.8657 38.015 32.212 38.015ZM31.4337 36.1058V35.0331H32.0236C32.2665 35.0331 32.4633 34.8362 32.4633 34.5934V34.0034H33.5361V34.5934C33.5361 34.8362 33.7329 35.0331 33.9758 35.0331H34.5657V36.1058H33.9758C33.7329 36.1058 33.5361 36.3027 33.5361 36.5455V37.1355H32.4633V36.5455C32.4633 36.3027 32.2665 36.1058 32.0236 36.1058H31.4337Z" fill="#6C89C3"></path> </svg> 