<?xml version="1.0" encoding="UTF-8"?> <svg xmlns="http://www.w3.org/2000/svg" width="66" height="66" viewBox="0 0 66 66" fill="none"> <path d="M66 33C66 14.7746 51.2254 0 33 0C14.7746 0 0 14.7746 0 33C0 51.2254 14.7746 66 33 66C51.2254 66 66 51.2254 66 33Z" fill="#E9F4FF"></path> <path d="M46.5262 42.3283L39.49 32.4045C38.7191 31.3172 38.3411 30.7746 38.174 30.321C38.0183 29.8986 38.0267 29.4861 38.0451 28.5824C38.052 28.2428 38.0606 27.8201 38.0606 27.3172V23.0438C38.9667 22.8979 39.6611 22.1105 39.6611 21.1637V19.9047C39.6611 18.8544 38.8069 18 37.7569 18H28.3566C27.3067 18 26.4525 18.8544 26.4525 19.9047V21.1637C26.4525 22.0707 27.0898 22.8312 27.94 23.0218V27.3173C27.94 27.8186 27.9482 28.2226 27.9554 28.579C27.9737 29.4843 27.982 29.8975 27.8263 30.3203C27.6594 30.7733 27.2814 31.3165 26.5106 32.4045L19.4746 42.3282C18.4235 43.8096 18.1266 45.419 18.6996 46.5282C19.0465 47.1996 19.8629 48 21.7821 48H24.9232C25.2468 48 25.5092 47.7376 25.5092 47.4141C25.5092 47.0905 25.2468 46.8281 24.9232 46.8281H21.7821C21.0483 46.8281 20.0985 46.6828 19.7408 45.9903C19.3754 45.2831 19.646 44.1117 20.4305 43.0061L27.4667 33.0821C28.1177 32.1632 28.5194 31.5829 28.7653 31.0887H37.2344C37.4803 31.5828 37.8823 32.1631 38.5341 33.0822L45.5701 43.0061C46.3541 44.1124 46.6246 45.2841 46.2591 45.991C45.9014 46.6829 44.952 46.8281 44.2186 46.8281H30.1829C29.8593 46.8281 29.5969 47.0905 29.5969 47.4141C29.5969 47.7376 29.8593 48 30.1829 48H44.2185C46.1369 48 46.9531 47.2002 47.3 46.5292C47.8732 45.4205 47.5767 43.8108 46.5262 42.3283V42.3283ZM27.6243 21.1637V19.9047C27.6243 19.5006 27.9528 19.1719 28.3566 19.1719H37.7569C38.1608 19.1719 38.4892 19.5006 38.4892 19.9047V21.1637C38.4892 21.5677 38.1608 21.8964 37.7569 21.8964H28.3566C27.9529 21.8964 27.6243 21.5677 27.6243 21.1637V21.1637ZM29.1052 29.9169C29.142 29.5509 29.1386 29.1264 29.1271 28.5553C29.12 28.2045 29.112 27.8067 29.112 27.3173V23.0683H36.8888V27.3173C36.8888 27.8082 36.8806 28.2069 36.8735 28.5586C36.8619 29.1281 36.8584 29.5517 36.895 29.917H29.1052V29.9169Z" fill="#6C89C3"></path> <path d="M36.6876 39.7008V37.6679C36.6876 36.4208 35.6732 35.4061 34.4265 35.4061C33.1788 35.4061 32.1637 36.4207 32.1637 37.6679V39.7008C32.1637 40.948 33.1788 41.9627 34.4265 41.9627C35.6732 41.9627 36.6876 40.948 36.6876 39.7008V39.7008ZM33.3356 39.7008V37.6679C33.3356 37.0669 33.8249 36.578 34.4265 36.578C35.0271 36.578 35.5157 37.0669 35.5157 37.6679V39.7008C35.5157 40.3018 35.0271 40.7908 34.4265 40.7908C33.8249 40.7908 33.3356 40.3018 33.3356 39.7008Z" fill="#6C89C3"></path> <path d="M31.0644 40.0314C31.0644 38.9656 30.1975 38.0985 29.132 38.0985H28.4729C28.0535 38.0985 27.7124 37.7571 27.7124 37.3375C27.7124 36.9188 28.0536 36.5781 28.4729 36.5781H30.4784C30.802 36.5781 31.0644 36.3157 31.0644 35.9922C31.0644 35.6686 30.802 35.4062 30.4784 35.4062H28.4729C27.4074 35.4062 26.5405 36.2726 26.5405 37.3375C26.5405 38.4033 27.4074 39.2704 28.4729 39.2704H29.132C29.5514 39.2704 29.8925 39.6118 29.8925 40.0314C29.8925 40.4501 29.5513 40.7908 29.132 40.7908H27.1265C26.8029 40.7908 26.5405 41.0532 26.5405 41.3768C26.5405 41.7003 26.8029 41.9627 27.1265 41.9627H29.132C30.1975 41.9627 31.0644 41.0963 31.0644 40.0314Z" fill="#6C89C3"></path> <path d="M37.6001 44.3439C37.4324 44.5115 37.3823 44.7635 37.473 44.9825C37.5637 45.2015 37.7773 45.3442 38.0143 45.3442H40.7471C41.0707 45.3442 41.333 45.0819 41.333 44.7583C41.333 44.4348 41.0707 44.1724 40.7471 44.1724H39.4292L40.7869 42.8151C41.5159 42.0833 41.5159 40.8927 40.7858 40.1599C40.2995 39.6744 39.7071 39.4819 39.1176 39.6176C38.4572 39.7698 37.9047 40.3172 37.6399 41.082C37.534 41.3878 37.696 41.7216 38.0018 41.8275C38.3078 41.9336 38.6414 41.7713 38.7473 41.4655C38.8753 41.0958 39.124 40.8187 39.3807 40.7595C39.5678 40.7165 39.762 40.7937 39.9568 40.988C40.2314 41.2637 40.2314 41.7123 39.9576 41.9871L37.6001 44.3439Z" fill="#6C89C3"></path> <path d="M27.553 46.8281C27.2294 46.8281 26.967 47.0905 26.967 47.4141C26.967 47.7376 27.2294 48 27.553 48H27.5546C27.8782 48 28.1397 47.7376 28.1397 47.4141C28.1397 47.0905 27.8766 46.8281 27.553 46.8281V46.8281Z" fill="#6C89C3"></path> </svg> 