<?xml version="1.0" encoding="UTF-8"?> <svg xmlns="http://www.w3.org/2000/svg" width="66" height="66" viewBox="0 0 66 66" fill="none"> <path d="M66 33C66 14.7746 51.2254 0 33 0C14.7746 0 0 14.7746 0 33C0 51.2254 14.7746 66 33 66C51.2254 66 66 51.2254 66 33Z" fill="#E9F4FF"></path> <path d="M16.3575 43.8905L23.6467 45.2261C24.0698 45.3963 24.5422 45.2126 24.7018 44.8159C24.8613 44.4192 24.6476 43.9596 24.2244 43.7894L18.4157 42.8557C18.4157 42.8557 20.7221 40.3032 23.1955 39.0617C25.6689 37.8202 29.4356 37.3976 29.4356 37.3976C30.5325 39.3186 32.2696 40.824 34.4001 41.6808C36.788 42.641 39.3834 42.6721 41.7084 41.7682C44.0335 40.8642 45.8096 39.1335 46.7099 36.895C47.6101 34.6564 47.5266 32.1779 46.4747 29.9159C45.4228 27.654 43.5284 25.8795 41.1406 24.9193C38.7528 23.959 36.1574 23.928 33.8323 24.8319C31.5073 25.7358 29.7311 27.4665 28.8309 29.7051C28.0277 31.7025 28.0083 33.8908 28.7605 35.9459C28.7605 35.9459 25.085 36.5685 22.5925 37.8127C20.1 39.057 17.4195 42.1075 17.4195 42.1075L18.587 35.4726C18.7466 35.0759 18.5328 34.6163 18.1097 34.4461C17.6865 34.2759 17.2141 34.4596 17.0546 34.8563L15.8801 42.864C15.7206 43.2607 15.9343 43.7203 16.3575 43.8905ZM34.5074 26.2836C36.4338 25.5347 38.5844 25.5603 40.5629 26.356C42.5413 27.1516 44.1109 28.6219 44.9825 30.496C45.8541 32.3702 45.9233 34.4239 45.1774 36.2787C44.4315 38.1335 42.9597 39.5675 41.0334 40.3165C39.1069 41.0654 36.9564 41.0397 34.9779 40.2441C32.9994 39.4485 31.4298 37.9781 30.5582 36.104C29.6867 34.2299 29.6175 32.1762 30.3634 30.3214C31.1093 28.4666 32.581 27.0326 34.5074 26.2836Z" fill="#6C89C3"></path> <path d="M26.875 23C25.8411 23 25 23.8411 25 24.875C25 25.9089 25.8411 26.75 26.875 26.75C27.9089 26.75 28.75 25.9089 28.75 24.875C28.75 23.8411 27.9089 23 26.875 23ZM26.875 25.5C26.5302 25.5 26.25 25.2199 26.25 24.875C26.25 24.5302 26.5301 24.25 26.875 24.25C27.2199 24.25 27.5 24.5301 27.5 24.875C27.5 25.2199 27.2198 25.5 26.875 25.5Z" fill="#6C89C3"></path> <path d="M24.875 29C23.8411 29 23 29.8411 23 30.875C23 31.9089 23.8411 32.75 24.875 32.75C25.9089 32.75 26.75 31.9089 26.75 30.875C26.75 29.8411 25.9089 29 24.875 29ZM24.875 31.5C24.5302 31.5 24.25 31.2199 24.25 30.875C24.25 30.5302 24.5301 30.25 24.875 30.25C25.2199 30.25 25.5 30.5301 25.5 30.875C25.5 31.2199 25.2198 31.5 24.875 31.5Z" fill="#6C89C3"></path> <path d="M32.875 44C31.8411 44 31 44.8411 31 45.875C31 46.9089 31.8411 47.75 32.875 47.75C33.9089 47.75 34.75 46.9089 34.75 45.875C34.75 44.8411 33.9089 44 32.875 44ZM32.875 46.5C32.5302 46.5 32.25 46.2199 32.25 45.875C32.25 45.5302 32.5301 45.25 32.875 45.25C33.2199 45.25 33.5 45.5301 33.5 45.875C33.5 46.2199 33.2198 46.5 32.875 46.5Z" fill="#6C89C3"></path> <path d="M39.875 46C38.8411 46 38 46.8411 38 47.875C38 48.9089 38.8411 49.75 39.875 49.75C40.9089 49.75 41.75 48.9089 41.75 47.875C41.75 46.8411 40.9089 46 39.875 46ZM39.875 48.5C39.5302 48.5 39.25 48.2199 39.25 47.875C39.25 47.5302 39.5301 47.25 39.875 47.25C40.2199 47.25 40.5 47.5301 40.5 47.875C40.5 48.2199 40.2198 48.5 39.875 48.5Z" fill="#6C89C3"></path> <path d="M32.875 18C31.8411 18 31 18.8411 31 19.875C31 20.9089 31.8411 21.75 32.875 21.75C33.9089 21.75 34.75 20.9089 34.75 19.875C34.75 18.8411 33.9089 18 32.875 18ZM32.875 20.5C32.5302 20.5 32.25 20.2199 32.25 19.875C32.25 19.5302 32.5301 19.25 32.875 19.25C33.2199 19.25 33.5 19.5301 33.5 19.875C33.5 20.2199 33.2198 20.5 32.875 20.5Z" fill="#6C89C3"></path> </svg> 