<?xml version="1.0" encoding="UTF-8"?> <svg xmlns="http://www.w3.org/2000/svg" width="36" height="36" viewBox="0 0 36 36" fill="none"> <rect width="36" height="36" rx="18" fill="#E9F4FF"></rect> <path d="M24.4389 15.3682H21.9197C21.2252 15.3682 20.6602 15.9348 20.6602 16.6313C20.6602 17.1803 21.0111 17.6486 21.4999 17.8223V22.9471C21.4999 23.8758 22.2533 24.6313 23.1793 24.6313C24.1053 24.6313 24.8587 23.8758 24.8587 22.9471V17.8223C25.3475 17.6486 25.6984 17.1803 25.6984 16.6313C25.6984 15.9348 25.1334 15.3682 24.4389 15.3682ZM23.1793 23.7892C22.7163 23.7892 22.3396 23.4114 22.3396 22.9471V20.4208H24.019V22.9471C24.019 23.4114 23.6423 23.7892 23.1793 23.7892ZM24.4389 17.0524C24.207 17.0524 24.019 17.2409 24.019 17.4734V19.5787H22.3396V17.4734C22.3396 17.2409 22.1516 17.0524 21.9197 17.0524C21.6882 17.0524 21.4999 16.8635 21.4999 16.6313C21.4999 16.3992 21.6882 16.2103 21.9197 16.2103H24.4389C24.6704 16.2103 24.8587 16.3992 24.8587 16.6313C24.8587 16.8635 24.6704 17.0524 24.4389 17.0524Z" fill="#6C89C3"></path> <path d="M17.695 17.3605V14.4542C18.1837 14.2804 18.5347 13.8121 18.5347 13.2632C18.5347 12.5667 17.9696 12 17.2751 12H14.756C14.0615 12 13.4964 12.5667 13.4964 13.2632C13.4964 13.8121 13.8474 14.2804 14.3361 14.4542V17.3615C13.4324 18.9251 12.2499 21.0443 11.598 22.0984C11.5957 22.1023 11.5934 22.1062 11.5911 22.1101C11.4459 22.3639 11.3691 22.6534 11.3691 22.9474C11.3691 23.876 12.1225 24.6316 13.0486 24.6316H18.9825C19.9086 24.6316 20.662 23.876 20.662 22.9474C20.662 22.6534 20.5852 22.3639 20.439 22.1085L17.695 17.3605ZM15.1201 17.6832C15.1566 17.6195 15.1758 17.5472 15.1758 17.4737V14.1053C15.1758 13.8727 14.9879 13.6842 14.756 13.6842C14.5245 13.6842 14.3361 13.4953 14.3361 13.2632C14.3361 13.031 14.5245 12.8421 14.756 12.8421H17.2751C17.5066 12.8421 17.695 13.031 17.695 13.2632C17.695 13.4953 17.5066 13.6842 17.2751 13.6842C17.0432 13.6842 16.8553 13.8727 16.8553 14.1053V17.4737C16.8553 17.5478 16.8748 17.6207 16.9119 17.6848L18.0066 19.5789H14.0355L15.1201 17.6832ZM18.9825 23.7895H13.0486C12.5855 23.7895 12.2089 23.4117 12.2089 22.9474C12.2089 22.8022 12.2461 22.6595 12.3166 22.5343C12.8836 21.6102 13.4402 20.6152 13.5537 20.4211H18.4933L19.7117 22.5292C19.784 22.6556 19.8223 22.8003 19.8223 22.9474C19.8223 23.4117 19.4456 23.7895 18.9825 23.7895Z" fill="#6C89C3"></path> </svg> 