<svg xmlns="http://www.w3.org/2000/svg" width="80" height="80" fill="none" viewBox="0 0 80 80"><g filter="url(#filter0_iii)"><rect width="80" height="80" fill="#FBF6DA" rx="20"/></g><path fill="#FFB100" d="M55.587 27.35H29.911a4.418 4.418 0 00-4.412 4.413v6.377h-4.235a1.264 1.264 0 000 2.527h4.235v3.392h-2.113a1.264 1.264 0 000 2.528h2.113v1.65a4.418 4.418 0 004.412 4.413h25.676A4.418 4.418 0 0060 48.237V31.763a4.418 4.418 0 00-4.413-4.413zm-25.676 2.527h25.676c.448 0 .86.158 1.184.42l-12.263 8.999a2.998 2.998 0 01-3.517 0l-12.264-9c.324-.261.736-.419 1.184-.419zm27.562 18.36c0 1.04-.846 1.886-1.886 1.886H29.911a1.888 1.888 0 01-1.885-1.886v-1.65h4.758a1.264 1.264 0 000-2.528h-4.758V32.916l11.47 8.417a5.496 5.496 0 003.253 1.054 5.497 5.497 0 003.254-1.054l11.47-8.417v15.321z"/><g filter="url(#filter1_f)"><path fill="url(#paint0_linear)" fill-opacity=".8" fill-rule="evenodd" d="M13.003 8c0-1.105.934-2 2.087-2h45.389C67.394 6 73 11.373 73 18v38c0 1.105-.934 2-2.087 2-5.576 0-53.215-34.5-56.867-44-1.152 0-1.043-4.895-1.043-6z" clip-rule="evenodd"/></g><g filter="url(#filter2_f)"><path fill="#fff" fill-opacity=".6" d="M15 6h50v5H15z"/></g><defs><filter id="filter0_iii" width="80" height="89" x="0" y="-5" color-interpolation-filters="sRGB" filterUnits="userSpaceOnUse"><feFlood flood-opacity="0" result="BackgroundImageFix"/><feBlend in="SourceGraphic" in2="BackgroundImageFix" result="shape"/><feColorMatrix in="SourceAlpha" result="hardAlpha" values="0 0 0 0 0 0 0 0 0 0 0 0 0 0 0 0 0 0 127 0"/><feOffset dy="4"/><feGaussianBlur stdDeviation="7"/><feComposite in2="hardAlpha" k2="-1" k3="1" operator="arithmetic"/><feColorMatrix values="0 0 0 0 1 0 0 0 0 1 0 0 0 0 1 0 0 0 0.7 0"/><feBlend in2="shape" result="effect1_innerShadow"/><feColorMatrix in="SourceAlpha" result="hardAlpha" values="0 0 0 0 0 0 0 0 0 0 0 0 0 0 0 0 0 0 127 0"/><feOffset dy="-5"/><feGaussianBlur stdDeviation="7"/><feComposite in2="hardAlpha" k2="-1" k3="1" operator="arithmetic"/><feColorMatrix values="0 0 0 0 0 0 0 0 0 0 0 0 0 0 0 0 0 0 0.06 0"/><feBlend in2="effect1_innerShadow" result="effect2_innerShadow"/><feColorMatrix in="SourceAlpha" result="hardAlpha" values="0 0 0 0 0 0 0 0 0 0 0 0 0 0 0 0 0 0 127 0"/><feOffset dy="-5"/><feGaussianBlur stdDeviation="3"/><feComposite in2="hardAlpha" k2="-1" k3="1" operator="arithmetic"/><feColorMatrix values="0 0 0 0 1 0 0 0 0 1 0 0 0 0 1 0 0 0 0.6 0"/><feBlend in2="effect2_innerShadow" result="effect3_innerShadow"/></filter><filter id="filter1_f" width="70" height="62" x="8" y="1" color-interpolation-filters="sRGB" filterUnits="userSpaceOnUse"><feFlood flood-opacity="0" result="BackgroundImageFix"/><feBlend in="SourceGraphic" in2="BackgroundImageFix" result="shape"/><feGaussianBlur result="effect1_foregroundBlur" stdDeviation="2.5"/></filter><filter id="filter2_f" width="58" height="13" x="11" y="2" color-interpolation-filters="sRGB" filterUnits="userSpaceOnUse"><feFlood flood-opacity="0" result="BackgroundImageFix"/><feBlend in="SourceGraphic" in2="BackgroundImageFix" result="shape"/><feGaussianBlur result="effect1_foregroundBlur" stdDeviation="2"/></filter><linearGradient id="paint0_linear" x1="67.261" x2="38.987" y1="6" y2="29.202" gradientUnits="userSpaceOnUse"><stop stop-color="#fff"/><stop offset="1" stop-color="#fff" stop-opacity="0"/></linearGradient></defs></svg>