<svg xmlns="http://www.w3.org/2000/svg" width="80" height="80" fill="none" viewBox="0 0 80 80"><g filter="url(#filter0_iii)"><rect width="80" height="80" fill="#F1F5FF" rx="20"/></g><path fill="#6C89C3" d="M38.79 38.848c1.387 0 2.41-.288 3.072-.864.662-.597.992-1.355.992-2.272v-.224c0-1.024-.32-1.803-.96-2.336-.64-.555-1.504-.832-2.592-.832-1.066 0-1.973.245-2.72.736-.746.47-1.376 1.13-1.888 1.984l-2.4-2.08c.342-.49.726-.96 1.152-1.408A6.25 6.25 0 0134.95 30.4a7.645 7.645 0 011.952-.8c.726-.213 1.558-.32 2.496-.32 1.046 0 2.016.128 2.912.384.896.256 1.664.64 2.304 1.152a5.198 5.198 0 011.504 1.824c.363.704.544 1.504.544 2.4 0 .704-.117 1.344-.352 1.92a4.702 4.702 0 01-.928 1.536 4.827 4.827 0 01-1.376 1.056 6.262 6.262 0 01-1.632.608v.16c.64.128 1.238.341 1.792.64.576.277 1.078.65 1.504 1.12.427.448.758.992.992 1.632.256.619.384 1.333.384 2.144 0 .981-.192 1.877-.576 2.688a6.037 6.037 0 01-1.632 2.048c-.682.576-1.514 1.024-2.496 1.344-.981.299-2.07.448-3.264.448-1.045 0-1.962-.117-2.752-.352a8.581 8.581 0 01-2.112-.864 9.569 9.569 0 01-1.6-1.28c-.448-.49-.842-.992-1.184-1.504l2.656-2.08c.278.448.566.864.864 1.248.32.363.672.683 1.056.96.406.256.854.459 1.344.608a6.17 6.17 0 001.728.224c1.366 0 2.41-.32 3.136-.96.726-.661 1.088-1.568 1.088-2.72v-.224c0-1.152-.384-2.027-1.152-2.624-.768-.597-1.856-.896-3.264-.896h-2.368v-3.072h2.272z"/><g filter="url(#filter1_f)"><path fill="url(#paint0_linear)" fill-opacity=".8" fill-rule="evenodd" d="M13.003 8c0-1.105.934-2 2.087-2h45.389C67.394 6 73 11.373 73 18v38c0 1.105-.934 2-2.087 2-5.576 0-53.215-34.5-56.867-44-1.152 0-1.043-4.895-1.043-6z" clip-rule="evenodd"/></g><g filter="url(#filter2_f)"><path fill="#fff" fill-opacity=".6" d="M15 6h50v5H15z"/></g><defs><filter id="filter0_iii" width="80" height="89" x="0" y="-5" color-interpolation-filters="sRGB" filterUnits="userSpaceOnUse"><feFlood flood-opacity="0" result="BackgroundImageFix"/><feBlend in="SourceGraphic" in2="BackgroundImageFix" result="shape"/><feColorMatrix in="SourceAlpha" result="hardAlpha" values="0 0 0 0 0 0 0 0 0 0 0 0 0 0 0 0 0 0 127 0"/><feOffset dy="4"/><feGaussianBlur stdDeviation="7"/><feComposite in2="hardAlpha" k2="-1" k3="1" operator="arithmetic"/><feColorMatrix values="0 0 0 0 1 0 0 0 0 1 0 0 0 0 1 0 0 0 0.7 0"/><feBlend in2="shape" result="effect1_innerShadow"/><feColorMatrix in="SourceAlpha" result="hardAlpha" values="0 0 0 0 0 0 0 0 0 0 0 0 0 0 0 0 0 0 127 0"/><feOffset dy="-5"/><feGaussianBlur stdDeviation="7"/><feComposite in2="hardAlpha" k2="-1" k3="1" operator="arithmetic"/><feColorMatrix values="0 0 0 0 0 0 0 0 0 0 0 0 0 0 0 0 0 0 0.06 0"/><feBlend in2="effect1_innerShadow" result="effect2_innerShadow"/><feColorMatrix in="SourceAlpha" result="hardAlpha" values="0 0 0 0 0 0 0 0 0 0 0 0 0 0 0 0 0 0 127 0"/><feOffset dy="-5"/><feGaussianBlur stdDeviation="3"/><feComposite in2="hardAlpha" k2="-1" k3="1" operator="arithmetic"/><feColorMatrix values="0 0 0 0 1 0 0 0 0 1 0 0 0 0 1 0 0 0 0.6 0"/><feBlend in2="effect2_innerShadow" result="effect3_innerShadow"/></filter><filter id="filter1_f" width="70" height="62" x="8" y="1" color-interpolation-filters="sRGB" filterUnits="userSpaceOnUse"><feFlood flood-opacity="0" result="BackgroundImageFix"/><feBlend in="SourceGraphic" in2="BackgroundImageFix" result="shape"/><feGaussianBlur result="effect1_foregroundBlur" stdDeviation="2.5"/></filter><filter id="filter2_f" width="58" height="13" x="11" y="2" color-interpolation-filters="sRGB" filterUnits="userSpaceOnUse"><feFlood flood-opacity="0" result="BackgroundImageFix"/><feBlend in="SourceGraphic" in2="BackgroundImageFix" result="shape"/><feGaussianBlur result="effect1_foregroundBlur" stdDeviation="2"/></filter><linearGradient id="paint0_linear" x1="67.261" x2="38.987" y1="6" y2="29.202" gradientUnits="userSpaceOnUse"><stop stop-color="#fff"/><stop offset="1" stop-color="#fff" stop-opacity="0"/></linearGradient></defs></svg>