<svg xmlns="http://www.w3.org/2000/svg" width="80" height="80" fill="none" viewBox="0 0 80 80"><g filter="url(#filter0_iii)"><rect width="80" height="80" fill="#E4FFEE" rx="20"/></g><path fill="#30C166" d="M45.686 37.715a1.27 1.27 0 00-1.27-1.27H31.342a1.27 1.27 0 100 2.54h13.076a1.27 1.27 0 001.27-1.27zM31.34 41.523a1.27 1.27 0 100 2.54h7.942a1.27 1.27 0 000-2.54h-7.941z"/><path fill="#30C166" d="M34.324 53.71h-4.246c-1.4 0-2.539-1.138-2.539-2.538V28.828c0-1.4 1.14-2.539 2.54-2.539h15.608c1.4 0 2.539 1.14 2.539 2.54v7.807a1.27 1.27 0 102.539 0v-7.808c0-2.8-2.278-5.078-5.078-5.078H30.078A5.084 5.084 0 0025 28.828v22.344c0 2.8 2.278 5.078 5.078 5.078h4.246a1.27 1.27 0 100-2.54z"/><path fill="#30C166" d="M53.013 42.131a3.813 3.813 0 00-5.385-.001l-6.97 6.954a1.27 1.27 0 00-.318.53l-1.518 4.997a1.27 1.27 0 001.554 1.593l5.124-1.42c.21-.058.403-.17.558-.325l6.955-6.942a3.813 3.813 0 000-5.386zM44.5 52.427l-2.578.714.755-2.484 4.703-4.693 1.796 1.796-4.676 4.667zm6.719-6.706l-.246.246-1.796-1.796.245-.245a1.27 1.27 0 011.796 1.795zM44.417 31.367H31.34a1.27 1.27 0 100 2.54h13.077a1.27 1.27 0 100-2.54z"/><g filter="url(#filter1_f)"><path fill="url(#paint0_linear)" fill-opacity=".8" fill-rule="evenodd" d="M13.003 8c0-1.105.934-2 2.087-2h45.389C67.394 6 73 11.373 73 18v38c0 1.105-.934 2-2.087 2-5.576 0-53.215-34.5-56.867-44-1.152 0-1.043-4.895-1.043-6z" clip-rule="evenodd"/></g><g filter="url(#filter2_f)"><path fill="#fff" fill-opacity=".6" d="M15 6h50v5H15z"/></g><defs><filter id="filter0_iii" width="80" height="89" x="0" y="-5" color-interpolation-filters="sRGB" filterUnits="userSpaceOnUse"><feFlood flood-opacity="0" result="BackgroundImageFix"/><feBlend in="SourceGraphic" in2="BackgroundImageFix" result="shape"/><feColorMatrix in="SourceAlpha" result="hardAlpha" values="0 0 0 0 0 0 0 0 0 0 0 0 0 0 0 0 0 0 127 0"/><feOffset dy="4"/><feGaussianBlur stdDeviation="7"/><feComposite in2="hardAlpha" k2="-1" k3="1" operator="arithmetic"/><feColorMatrix values="0 0 0 0 1 0 0 0 0 1 0 0 0 0 1 0 0 0 0.7 0"/><feBlend in2="shape" result="effect1_innerShadow"/><feColorMatrix in="SourceAlpha" result="hardAlpha" values="0 0 0 0 0 0 0 0 0 0 0 0 0 0 0 0 0 0 127 0"/><feOffset dy="-5"/><feGaussianBlur stdDeviation="7"/><feComposite in2="hardAlpha" k2="-1" k3="1" operator="arithmetic"/><feColorMatrix values="0 0 0 0 0 0 0 0 0 0 0 0 0 0 0 0 0 0 0.06 0"/><feBlend in2="effect1_innerShadow" result="effect2_innerShadow"/><feColorMatrix in="SourceAlpha" result="hardAlpha" values="0 0 0 0 0 0 0 0 0 0 0 0 0 0 0 0 0 0 127 0"/><feOffset dy="-5"/><feGaussianBlur stdDeviation="3"/><feComposite in2="hardAlpha" k2="-1" k3="1" operator="arithmetic"/><feColorMatrix values="0 0 0 0 1 0 0 0 0 1 0 0 0 0 1 0 0 0 0.6 0"/><feBlend in2="effect2_innerShadow" result="effect3_innerShadow"/></filter><filter id="filter1_f" width="70" height="62" x="8" y="1" color-interpolation-filters="sRGB" filterUnits="userSpaceOnUse"><feFlood flood-opacity="0" result="BackgroundImageFix"/><feBlend in="SourceGraphic" in2="BackgroundImageFix" result="shape"/><feGaussianBlur result="effect1_foregroundBlur" stdDeviation="2.5"/></filter><filter id="filter2_f" width="58" height="13" x="11" y="2" color-interpolation-filters="sRGB" filterUnits="userSpaceOnUse"><feFlood flood-opacity="0" result="BackgroundImageFix"/><feBlend in="SourceGraphic" in2="BackgroundImageFix" result="shape"/><feGaussianBlur result="effect1_foregroundBlur" stdDeviation="2"/></filter><linearGradient id="paint0_linear" x1="67.261" x2="38.987" y1="6" y2="29.202" gradientUnits="userSpaceOnUse"><stop stop-color="#fff"/><stop offset="1" stop-color="#fff" stop-opacity="0"/></linearGradient></defs></svg>