<svg xmlns="http://www.w3.org/2000/svg" width="80" height="80" fill="none" viewBox="0 0 80 80"><g filter="url(#filter0_iii)"><rect width="80" height="80" fill="#E4FFEE" rx="20"/></g><path fill="#30C166" fill-rule="evenodd" d="M22.5 47.75h16.25v2H22.5v-2z" clip-rule="evenodd"/><path fill="#30C166" fill-rule="evenodd" d="M25 24.375h15c.345 0 .625.28.625.625v13.125H42.5V25a2.5 2.5 0 00-2.5-2.5H25a2.5 2.5 0 00-2.5 2.5v27.5A2.5 2.5 0 0025 55h10.69l-.84-1.875H25a.625.625 0 01-.625-.625V25c0-.345.28-.625.625-.625z" clip-rule="evenodd"/><path fill="#30C166" d="M35.612 26.468h-5.613a.8.8 0 000 1.6h5.613a.8.8 0 100-1.6zM39.77 50.393a.914.914 0 01-.65-.27l-9.562-9.56a2.77 2.77 0 010-3.91 2.77 2.77 0 013.911 0l8.691 8.69a.922.922 0 11-1.304 1.304l-8.69-8.69a.922.922 0 10-1.305 1.303l9.56 9.56a.922.922 0 01-.65 1.573z"/><path fill="#30C166" d="M44.116 44.31a.914.914 0 01-.652-.27l-3.477-3.477a.922.922 0 10-1.304 1.306.922.922 0 11-1.304 1.304 2.768 2.768 0 010-3.912c1.045-1.045 2.866-1.045 3.911 0l3.476 3.477a.922.922 0 01-.65 1.573z"/><path fill="#30C166" d="M46.722 41.703a.914.914 0 01-.65-.27l-2.608-2.608a.945.945 0 00-1.304 0 .915.915 0 000 1.302c.36.36.36.944.001 1.305a.926.926 0 01-1.305.002 2.748 2.748 0 01-.81-1.957c0-.739.288-1.433.81-1.956a2.77 2.77 0 013.911 0l2.607 2.607a.922.922 0 01-.652 1.575z"/><path fill="#30C166" d="M46.29 57.5c-.453 0-.91-.053-1.363-.161l-9.859-2.338a2.713 2.713 0 01-1.381-.747 2.769 2.769 0 01-.001-3.913 2.702 2.702 0 011.32-.737l4.56-1.032a.921.921 0 01.408 1.797l-4.515 1.021-.053.015a.873.873 0 00-.417.237.924.924 0 00.45 1.553l9.91 2.35a3.983 3.983 0 003.747-1.062l4.794-4.795a3.966 3.966 0 001.17-2.824 3.966 3.966 0 00-1.17-2.825l-6.951-6.953a.95.95 0 00-1.306 0 .924.924 0 000 1.304.922.922 0 11-1.304 1.304 2.747 2.747 0 01-.81-1.955c0-.739.288-1.433.81-1.956 1.044-1.043 2.868-1.045 3.913 0l6.951 6.953a5.798 5.798 0 011.711 4.128 5.793 5.793 0 01-1.71 4.127l-4.795 4.794a5.779 5.779 0 01-4.11 1.715z"/><g filter="url(#filter1_f)"><path fill="url(#paint0_linear)" fill-opacity=".8" fill-rule="evenodd" d="M13.003 8c0-1.105.934-2 2.087-2h45.389C67.394 6 73 11.373 73 18v38c0 1.105-.934 2-2.087 2-5.576 0-53.215-34.5-56.867-44-1.152 0-1.043-4.895-1.043-6z" clip-rule="evenodd"/></g><g filter="url(#filter2_f)"><path fill="#fff" fill-opacity=".6" d="M15 6h50v5H15z"/></g><defs><filter id="filter0_iii" width="80" height="89" x="0" y="-5" color-interpolation-filters="sRGB" filterUnits="userSpaceOnUse"><feFlood flood-opacity="0" result="BackgroundImageFix"/><feBlend in="SourceGraphic" in2="BackgroundImageFix" result="shape"/><feColorMatrix in="SourceAlpha" result="hardAlpha" values="0 0 0 0 0 0 0 0 0 0 0 0 0 0 0 0 0 0 127 0"/><feOffset dy="4"/><feGaussianBlur stdDeviation="7"/><feComposite in2="hardAlpha" k2="-1" k3="1" operator="arithmetic"/><feColorMatrix values="0 0 0 0 1 0 0 0 0 1 0 0 0 0 1 0 0 0 0.7 0"/><feBlend in2="shape" result="effect1_innerShadow"/><feColorMatrix in="SourceAlpha" result="hardAlpha" values="0 0 0 0 0 0 0 0 0 0 0 0 0 0 0 0 0 0 127 0"/><feOffset dy="-5"/><feGaussianBlur stdDeviation="7"/><feComposite in2="hardAlpha" k2="-1" k3="1" operator="arithmetic"/><feColorMatrix values="0 0 0 0 0 0 0 0 0 0 0 0 0 0 0 0 0 0 0.06 0"/><feBlend in2="effect1_innerShadow" result="effect2_innerShadow"/><feColorMatrix in="SourceAlpha" result="hardAlpha" values="0 0 0 0 0 0 0 0 0 0 0 0 0 0 0 0 0 0 127 0"/><feOffset dy="-5"/><feGaussianBlur stdDeviation="3"/><feComposite in2="hardAlpha" k2="-1" k3="1" operator="arithmetic"/><feColorMatrix values="0 0 0 0 1 0 0 0 0 1 0 0 0 0 1 0 0 0 0.6 0"/><feBlend in2="effect2_innerShadow" result="effect3_innerShadow"/></filter><filter id="filter1_f" width="70" height="62" x="8" y="1" color-interpolation-filters="sRGB" filterUnits="userSpaceOnUse"><feFlood flood-opacity="0" result="BackgroundImageFix"/><feBlend in="SourceGraphic" in2="BackgroundImageFix" result="shape"/><feGaussianBlur result="effect1_foregroundBlur" stdDeviation="2.5"/></filter><filter id="filter2_f" width="58" height="13" x="11" y="2" color-interpolation-filters="sRGB" filterUnits="userSpaceOnUse"><feFlood flood-opacity="0" result="BackgroundImageFix"/><feBlend in="SourceGraphic" in2="BackgroundImageFix" result="shape"/><feGaussianBlur result="effect1_foregroundBlur" stdDeviation="2"/></filter><linearGradient id="paint0_linear" x1="67.261" x2="38.987" y1="6" y2="29.202" gradientUnits="userSpaceOnUse"><stop stop-color="#fff"/><stop offset="1" stop-color="#fff" stop-opacity="0"/></linearGradient></defs></svg>