<svg xmlns="http://www.w3.org/2000/svg" width="80" height="80" fill="none" viewBox="0 0 80 80"><g filter="url(#filter0_iii)"><rect width="80" height="80" fill="#FBF6DA" rx="20"/></g><path fill="#FFB100" d="M47.339 22.5H27.016a4.52 4.52 0 00-4.516 4.516v23.75a1.128 1.128 0 001.852.867l6.46-5.383h16.527a4.52 4.52 0 004.516-4.516V27.016a4.52 4.52 0 00-4.516-4.516zm2.258 19.234a2.26 2.26 0 01-2.258 2.258H30.403c-.264 0-.52.093-.722.262l-4.923 4.103v-21.34a2.26 2.26 0 012.258-2.259H47.34a2.26 2.26 0 012.258 2.258v14.718z"/><path fill="#FFB100" d="M52.984 30.403H50.16v2.258h2.823a2.26 2.26 0 012.258 2.258V54.02l-3.812-3.048a1.137 1.137 0 00-.704-.246H34.919a2.26 2.26 0 01-2.258-2.258V45.08a1.13 1.13 0 00-2.258 0v3.387a4.52 4.52 0 004.516 4.516h15.41l5.335 4.27a1.14 1.14 0 001.197.135c.39-.19.639-.585.639-1.018V34.919a4.52 4.52 0 00-4.516-4.516zM44.375 33.75c0-.69-.546-1.25-1.22-1.25H31.22c-.673 0-1.219.56-1.219 1.25S30.546 35 31.22 35h11.936c.673 0 1.219-.56 1.219-1.25z"/><path fill="#FFB100" d="M31.211 37.5c-.669 0-1.211.56-1.211 1.25S30.542 40 31.211 40h7.578c.669 0 1.211-.56 1.211-1.25s-.542-1.25-1.211-1.25H31.21zM43.156 27.5H31.22c-.674 0-1.22.56-1.22 1.25S30.546 30 31.22 30h11.936c.673 0 1.219-.56 1.219-1.25s-.546-1.25-1.22-1.25z"/><g filter="url(#filter1_f)"><path fill="url(#paint0_linear)" fill-opacity=".8" fill-rule="evenodd" d="M13.003 8c0-1.105.934-2 2.087-2h45.389C67.394 6 73 11.373 73 18v38c0 1.105-.934 2-2.087 2-5.576 0-53.215-34.5-56.867-44-1.152 0-1.043-4.895-1.043-6z" clip-rule="evenodd"/></g><g filter="url(#filter2_f)"><path fill="#fff" fill-opacity=".6" d="M15 6h50v5H15z"/></g><defs><filter id="filter0_iii" width="80" height="89" x="0" y="-5" color-interpolation-filters="sRGB" filterUnits="userSpaceOnUse"><feFlood flood-opacity="0" result="BackgroundImageFix"/><feBlend in="SourceGraphic" in2="BackgroundImageFix" result="shape"/><feColorMatrix in="SourceAlpha" result="hardAlpha" values="0 0 0 0 0 0 0 0 0 0 0 0 0 0 0 0 0 0 127 0"/><feOffset dy="4"/><feGaussianBlur stdDeviation="7"/><feComposite in2="hardAlpha" k2="-1" k3="1" operator="arithmetic"/><feColorMatrix values="0 0 0 0 1 0 0 0 0 1 0 0 0 0 1 0 0 0 0.7 0"/><feBlend in2="shape" result="effect1_innerShadow"/><feColorMatrix in="SourceAlpha" result="hardAlpha" values="0 0 0 0 0 0 0 0 0 0 0 0 0 0 0 0 0 0 127 0"/><feOffset dy="-5"/><feGaussianBlur stdDeviation="7"/><feComposite in2="hardAlpha" k2="-1" k3="1" operator="arithmetic"/><feColorMatrix values="0 0 0 0 0 0 0 0 0 0 0 0 0 0 0 0 0 0 0.06 0"/><feBlend in2="effect1_innerShadow" result="effect2_innerShadow"/><feColorMatrix in="SourceAlpha" result="hardAlpha" values="0 0 0 0 0 0 0 0 0 0 0 0 0 0 0 0 0 0 127 0"/><feOffset dy="-5"/><feGaussianBlur stdDeviation="3"/><feComposite in2="hardAlpha" k2="-1" k3="1" operator="arithmetic"/><feColorMatrix values="0 0 0 0 1 0 0 0 0 1 0 0 0 0 1 0 0 0 0.6 0"/><feBlend in2="effect2_innerShadow" result="effect3_innerShadow"/></filter><filter id="filter1_f" width="70" height="62" x="8" y="1" color-interpolation-filters="sRGB" filterUnits="userSpaceOnUse"><feFlood flood-opacity="0" result="BackgroundImageFix"/><feBlend in="SourceGraphic" in2="BackgroundImageFix" result="shape"/><feGaussianBlur result="effect1_foregroundBlur" stdDeviation="2.5"/></filter><filter id="filter2_f" width="58" height="13" x="11" y="2" color-interpolation-filters="sRGB" filterUnits="userSpaceOnUse"><feFlood flood-opacity="0" result="BackgroundImageFix"/><feBlend in="SourceGraphic" in2="BackgroundImageFix" result="shape"/><feGaussianBlur result="effect1_foregroundBlur" stdDeviation="2"/></filter><linearGradient id="paint0_linear" x1="67.261" x2="38.987" y1="6" y2="29.202" gradientUnits="userSpaceOnUse"><stop stop-color="#fff"/><stop offset="1" stop-color="#fff" stop-opacity="0"/></linearGradient></defs></svg>