<svg xmlns="http://www.w3.org/2000/svg" width="80" height="80" fill="none" viewBox="0 0 80 80"><g filter="url(#filter0_iii)"><rect width="80" height="80" fill="#FBEEFF" rx="20"/></g><path fill="#BB6BD9" d="M28.128 42.398a4.383 4.383 0 00-4.378 4.377v5.098a4.383 4.383 0 004.378 4.377 4.382 4.382 0 004.377-4.377v-5.098a4.383 4.383 0 00-4.378-4.377zm1.838 9.474a1.84 1.84 0 01-1.838 1.839 1.84 1.84 0 01-1.839-1.838v-5.098a1.84 1.84 0 011.838-1.838 1.84 1.84 0 011.839 1.838v5.098zM40 23.75a4.382 4.382 0 00-4.377 4.378v23.744A4.382 4.382 0 0040 56.25a4.383 4.383 0 004.378-4.378V28.128A4.383 4.383 0 0040 23.75zm1.839 28.122A1.84 1.84 0 0140 53.711a1.84 1.84 0 01-1.838-1.839V28.128A1.84 1.84 0 0140 26.289a1.84 1.84 0 011.839 1.838v23.745zM51.872 33.074a4.382 4.382 0 00-4.377 4.377v14.421a4.383 4.383 0 004.377 4.378 4.383 4.383 0 004.378-4.378v-14.42a4.382 4.382 0 00-4.378-4.378zm1.839 18.798a1.84 1.84 0 01-1.839 1.839 1.84 1.84 0 01-1.838-1.839v-14.42a1.84 1.84 0 011.838-1.84 1.84 1.84 0 011.839 1.84v14.42z"/><g filter="url(#filter1_f)"><path fill="url(#paint0_linear)" fill-opacity=".8" fill-rule="evenodd" d="M13.003 8c0-1.105.934-2 2.087-2h45.389C67.394 6 73 11.373 73 18v38c0 1.105-.934 2-2.087 2-5.576 0-53.215-34.5-56.867-44-1.152 0-1.043-4.895-1.043-6z" clip-rule="evenodd"/></g><g filter="url(#filter2_f)"><path fill="#fff" fill-opacity=".6" d="M15 6h50v5H15z"/></g><defs><filter id="filter0_iii" width="80" height="89" x="0" y="-5" color-interpolation-filters="sRGB" filterUnits="userSpaceOnUse"><feFlood flood-opacity="0" result="BackgroundImageFix"/><feBlend in="SourceGraphic" in2="BackgroundImageFix" result="shape"/><feColorMatrix in="SourceAlpha" result="hardAlpha" values="0 0 0 0 0 0 0 0 0 0 0 0 0 0 0 0 0 0 127 0"/><feOffset dy="4"/><feGaussianBlur stdDeviation="7"/><feComposite in2="hardAlpha" k2="-1" k3="1" operator="arithmetic"/><feColorMatrix values="0 0 0 0 1 0 0 0 0 1 0 0 0 0 1 0 0 0 0.7 0"/><feBlend in2="shape" result="effect1_innerShadow"/><feColorMatrix in="SourceAlpha" result="hardAlpha" values="0 0 0 0 0 0 0 0 0 0 0 0 0 0 0 0 0 0 127 0"/><feOffset dy="-5"/><feGaussianBlur stdDeviation="7"/><feComposite in2="hardAlpha" k2="-1" k3="1" operator="arithmetic"/><feColorMatrix values="0 0 0 0 0 0 0 0 0 0 0 0 0 0 0 0 0 0 0.06 0"/><feBlend in2="effect1_innerShadow" result="effect2_innerShadow"/><feColorMatrix in="SourceAlpha" result="hardAlpha" values="0 0 0 0 0 0 0 0 0 0 0 0 0 0 0 0 0 0 127 0"/><feOffset dy="-5"/><feGaussianBlur stdDeviation="3"/><feComposite in2="hardAlpha" k2="-1" k3="1" operator="arithmetic"/><feColorMatrix values="0 0 0 0 1 0 0 0 0 1 0 0 0 0 1 0 0 0 0.6 0"/><feBlend in2="effect2_innerShadow" result="effect3_innerShadow"/></filter><filter id="filter1_f" width="70" height="62" x="8" y="1" color-interpolation-filters="sRGB" filterUnits="userSpaceOnUse"><feFlood flood-opacity="0" result="BackgroundImageFix"/><feBlend in="SourceGraphic" in2="BackgroundImageFix" result="shape"/><feGaussianBlur result="effect1_foregroundBlur" stdDeviation="2.5"/></filter><filter id="filter2_f" width="58" height="13" x="11" y="2" color-interpolation-filters="sRGB" filterUnits="userSpaceOnUse"><feFlood flood-opacity="0" result="BackgroundImageFix"/><feBlend in="SourceGraphic" in2="BackgroundImageFix" result="shape"/><feGaussianBlur result="effect1_foregroundBlur" stdDeviation="2"/></filter><linearGradient id="paint0_linear" x1="67.261" x2="38.987" y1="6" y2="29.202" gradientUnits="userSpaceOnUse"><stop stop-color="#fff"/><stop offset="1" stop-color="#fff" stop-opacity="0"/></linearGradient></defs></svg>