<svg xmlns="http://www.w3.org/2000/svg" width="468" height="816" fill="none" viewBox="0 0 468 816"><g filter="url(#filter0_d)"><g filter="url(#filter1_i)"><path fill="#5F6368" fill-rule="evenodd" d="M237.027 716a3.928 3.928 0 00-3.135-1.55h-29.784c-1.282 0-2.42.609-3.135 1.55h-88.654c-23.408 0-31.897-2.41-40.454-6.936-8.558-4.526-15.274-11.167-19.851-19.63C47.437 680.972 45 672.578 45 649.43V86.57c0-23.148 2.437-31.542 7.014-40.004 4.577-8.463 11.293-15.104 19.85-19.63C80.423 22.41 88.912 20 112.32 20h213.362c23.408 0 31.897 2.41 40.454 6.936 8.558 4.526 15.274 11.167 19.851 19.63C390.563 55.028 393 63.422 393 86.57v562.86c0 23.148-2.437 31.542-7.014 40.004-4.577 8.463-11.293 15.104-19.851 19.63-8.557 4.526-17.046 6.936-40.454 6.936h-88.654z" clip-rule="evenodd"/></g><path fill="#F1F5FF" fill-rule="evenodd" d="M329.628 45.52c14.222 0 19.379 1.456 24.578 4.19 5.2 2.733 9.28 6.744 12.061 11.855 2.781 5.111 4.261 10.181 4.261 24.162v565.226c0 13.98-1.48 19.05-4.261 24.161-2.781 5.112-6.861 9.123-12.061 11.856-5.199 2.734-10.356 4.189-24.578 4.189H107.941c-14.222 0-19.38-1.455-24.579-4.189-5.2-2.733-9.28-6.744-12.06-11.856-2.781-5.111-4.262-10.181-4.262-24.161V85.727c0-13.98 1.48-19.05 4.261-24.162 2.781-5.111 6.862-9.122 12.061-11.856 5.2-2.733 10.357-4.189 24.579-4.189h221.687z" clip-rule="evenodd"/></g><defs><filter id="filter0_d" width="468" height="816" x="0" y="0" color-interpolation-filters="sRGB" filterUnits="userSpaceOnUse"><feFlood flood-opacity="0" result="BackgroundImageFix"/><feColorMatrix in="SourceAlpha" values="0 0 0 0 0 0 0 0 0 0 0 0 0 0 0 0 0 0 127 0"/><feOffset dx="15" dy="40"/><feGaussianBlur stdDeviation="30"/><feColorMatrix values="0 0 0 0 0 0 0 0 0 0 0 0 0 0 0 0 0 0 0.24 0"/><feBlend in2="BackgroundImageFix" result="effect1_dropShadow"/><feBlend in="SourceGraphic" in2="effect1_dropShadow" result="shape"/></filter><filter id="filter1_i" width="348" height="702" x="45" y="14" color-interpolation-filters="sRGB" filterUnits="userSpaceOnUse"><feFlood flood-opacity="0" result="BackgroundImageFix"/><feBlend in="SourceGraphic" in2="BackgroundImageFix" result="shape"/><feColorMatrix in="SourceAlpha" result="hardAlpha" values="0 0 0 0 0 0 0 0 0 0 0 0 0 0 0 0 0 0 127 0"/><feOffset dy="-6"/><feGaussianBlur stdDeviation="12"/><feComposite in2="hardAlpha" k2="-1" k3="1" operator="arithmetic"/><feColorMatrix values="0 0 0 0 0 0 0 0 0 0 0 0 0 0 0 0 0 0 0.9 0"/><feBlend in2="shape" result="effect1_innerShadow"/></filter></defs></svg>