<svg width="239" height="48" fill="none" xmlns="http://www.w3.org/2000/svg" viewBox="0 0 239 48"><path d="M0 8a8 8 0 018-8h32a8 8 0 018 8v32a8 8 0 01-8 8H8a8 8 0 01-8-8V8z" fill="#fff"/><path opacity=".35" fill-rule="evenodd" clip-rule="evenodd" d="M9.627 14.305h28.779c1.166 0 2.12.953 2.12 2.117a2.125 2.125 0 01-2.12 2.117H29.9v21.344A2.125 2.125 0 0127.78 42a2.125 2.125 0 01-2.12-2.117v-9.596c-.326-.205-1.277-.325-1.694-.325-.417 0-1.267.12-1.6.325v9.596A2.125 2.125 0 0120.246 42a2.125 2.125 0 01-2.12-2.117V18.54H9.62a2.125 2.125 0 01-2.12-2.117c0-1.165.954-2.117 2.12-2.117h.007zM23.966 6a3.495 3.495 0 013.498 3.493 3.495 3.495 0 01-3.498 3.492 3.495 3.495 0 01-3.498-3.492A3.495 3.495 0 0123.966 6z" fill="#6C89C3"/><circle opacity=".08" cx="24" cy="24" r="13.594" fill="#6C89C3"/><ellipse opacity=".08" cx="23.957" cy="24" rx="10.739" ry="10.781" fill="#6C89C3"/><path d="M25.393 21.643a1.393 1.393 0 10-2.786 0v.964h-.964a1.393 1.393 0 100 2.786h.964v.964a1.393 1.393 0 102.786 0v-.964h.964a1.393 1.393 0 100-2.786h-.964v-.964z" fill="url(#paint0_radial)"/><path fill-rule="evenodd" clip-rule="evenodd" d="M29.846 18.22c-3.21-3.203-8.406-3.203-11.608 0-3.204 3.21-3.204 8.406 0 11.609a8.218 8.218 0 0010.307 1.06l6.253 6.253c.678.671 1.783.671 2.453 0 .671-.677.671-1.782 0-2.453l-6.274-6.274c2.012-3.176 1.635-7.428-1.131-10.195zm-1.644 1.638a5.883 5.883 0 00-8.327 0 5.883 5.883 0 000 8.326 5.883 5.883 0 008.327 0 5.883 5.883 0 000-8.326z" fill="#5471AB"/><path fill-rule="evenodd" clip-rule="evenodd" d="M86.321 24.727l5.11-16.423h3.452L88.017 29.17v10.45h-3.38V29.171L77.578 8.304h3.415l5.328 16.423zM98.033 8.304h3.392l5.847 25.693 5.958-25.693h3.39l.774 31.316h-2.963l-.56-22.581-5.427 22.581h-2.311l-5.351-22.522-.559 22.522H97.26l.773-31.316zm23.89 0h7.65c2.652 0 4.614.721 5.803 2.233 1.193 1.486 1.77 3.57 1.77 6.213 0 2.426-.607 4.43-1.845 5.984-1.234 1.582-3.152 2.349-5.69 2.349h-4.231V39.62h-3.457V8.304zm10.665 12.847c.736-.805 1.14-2.244 1.14-4.4 0-1.584-.152-2.759-.438-3.547l-.001-.003c-.282-.798-.754-1.342-1.411-1.66-.677-.326-1.689-.502-3.064-.502h-3.434v11.309h3.396c1.866 0 3.108-.425 3.812-1.197zm5.672-10.036V8.304h14.919v2.81h-5.655V39.62h-3.457V11.115h-5.807zm18.923 26.302l-.002-.003c-1.238-1.712-1.838-4.107-1.838-7.151V17.509c0-3.018.613-5.368 1.881-7.006 1.29-1.691 3.43-2.503 6.338-2.503 2.86 0 4.974.813 6.262 2.504 1.267 1.663 1.881 4.01 1.881 7.005v12.792c0 3.044-.601 5.44-1.838 7.151l-.002.002c-1.263 1.72-3.394 2.546-6.303 2.546-2.936 0-5.091-.839-6.379-2.583zm10.012-25.065l-.002-.002c-.607-.945-1.778-1.463-3.631-1.463-1.879 0-3.077.518-3.71 1.467l-.002.002c-.66.967-1.013 2.492-1.013 4.622v13.93c0 2.128.352 3.682 1.017 4.703.633.973 1.832 1.502 3.708 1.502 1.821 0 2.997-.527 3.632-1.501.665-1.048 1.017-2.604 1.017-4.704v-13.93c0-2.103-.352-3.63-1.015-4.624l-.001-.002zm9.236-4.048h3.392l5.847 25.693 5.958-25.693h3.39l.774 31.316h-2.963l-.56-22.581-5.427 22.581h-2.311l-5.351-22.522-.559 22.522h-2.963l.773-31.316zm24.391 0h3.391l5.848 25.693 5.957-25.693h3.391l.773 31.316h-2.963l-.56-22.581-5.427 22.581h-2.31l-5.351-22.522-.56 22.522h-2.963l.774-31.316zm23.852 0h11.693v2.81h-8.199v10.968h6.68v2.697h-6.68v12.106h8.275v2.735h-11.769V8.304z" fill="#fff"/><path d="M61.158 31.383l-.015-.228 3.092-.923.036.343c.225 2.154.698 3.774 1.398 4.886.694 1.062 1.83 1.614 3.48 1.614 1.396 0 2.391-.358 3.04-1.024.65-.667 1.001-1.693 1.001-3.131 0-1.218-.291-2.277-.867-3.188l-.001-.002-.002-.002c-.563-.93-1.49-2.011-2.798-3.243l-.002-.001-5.425-5.199c-1.008-.93-1.754-1.907-2.228-2.935l-.002-.004-.001-.004c-.447-1.05-.668-2.203-.668-3.452 0-2.085.596-3.745 1.819-4.942l.194-.182C64.53 8.58 66.28 8 68.427 8c2.328 0 4.157.622 5.44 1.906 1.286 1.285 2.005 3.353 2.21 6.14l.017.237-3.03.793-.025-.343c-.149-2.035-.579-3.508-1.257-4.458l-.034-.049c-.64-.898-1.719-1.377-3.32-1.377-1.266 0-2.243.328-2.963.954-.705.615-1.079 1.537-1.079 2.822 0 .823.157 1.551.465 2.191.31.642.841 1.336 1.61 2.081l5.427 5.123c1.408 1.33 2.515 2.706 3.316 4.126a8.844 8.844 0 011.253 4.584c0 2.284-.664 4.089-2.026 5.37-1.354 1.275-3.137 1.9-5.32 1.9-2.447 0-4.36-.744-5.69-2.266l-.12-.143c-1.261-1.542-1.967-3.62-2.143-6.208z" fill="#fff"/><defs><radialGradient id="paint0_radial" cx="0" cy="0" r="1" gradientUnits="userSpaceOnUse" gradientTransform="matrix(0 3.75977 -3.51755 0 23.98 24)"><stop stop-color="#FF70AC"/><stop offset="1" stop-color="#EA2963"/></radialGradient></defs></svg>