<svg width="160" height="32" fill="none" xmlns="http://www.w3.org/2000/svg" viewBox="0 0 160 32"><path d="M0 6a6 6 0 016-6h20a6 6 0 016 6v20a6 6 0 01-6 6H6a6 6 0 01-6-6V6z" fill="#fff"/><path opacity=".35" fill-rule="evenodd" clip-rule="evenodd" d="M6.418 9.537h19.186c.777 0 1.413.635 1.413 1.41 0 .777-.636 1.412-1.413 1.412h-5.67v14.23c0 .776-.637 1.411-1.414 1.411a1.417 1.417 0 01-1.414-1.411V20.19c-.216-.136-.85-.216-1.129-.216-.278 0-.845.08-1.066.216v6.398c0 .776-.636 1.411-1.414 1.411a1.416 1.416 0 01-1.413-1.411v-14.23h-5.67A1.417 1.417 0 015 10.948c0-.776.636-1.411 1.414-1.411h.004zM15.978 4a2.33 2.33 0 110 4.657 2.33 2.33 0 110-4.657z" fill="#6C89C3"/><circle opacity=".08" cx="16" cy="16" r="9.063" fill="#6C89C3"/><ellipse opacity=".08" cx="15.972" cy="16" rx="7.159" ry="7.188" fill="#6C89C3"/><path d="M16.929 14.429a.929.929 0 00-1.858 0v.642h-.642a.929.929 0 000 1.858h.642v.642a.929.929 0 001.858 0v-.642h.642a.929.929 0 000-1.858h-.642v-.642z" fill="url(#paint0_radial)"/><path fill-rule="evenodd" clip-rule="evenodd" d="M19.897 12.147a5.475 5.475 0 00-7.739 0 5.475 5.475 0 000 7.739 5.479 5.479 0 006.872.707l4.169 4.169a1.164 1.164 0 001.635 0 1.164 1.164 0 000-1.636l-4.182-4.183a5.476 5.476 0 00-.755-6.796zm-1.096 1.092a3.922 3.922 0 00-5.55 0 3.922 3.922 0 000 5.55 3.922 3.922 0 005.55 0 3.922 3.922 0 000-5.55z" fill="#5471AB"/><path fill-rule="evenodd" clip-rule="evenodd" d="M57.547 16.484l3.407-10.948h2.301l-4.577 13.91v6.968h-2.253v-6.966L51.719 5.536h2.276l3.553 10.948zm7.809-10.948h2.26l3.899 17.129 3.972-17.13h2.26l.515 20.879h-1.975l-.373-15.055-3.618 15.055h-1.54l-3.568-15.015-.373 15.015H64.84l.516-20.878zm15.926 0h5.1c1.768 0 3.076.48 3.869 1.489.795.99 1.18 2.38 1.18 4.142 0 1.617-.405 2.953-1.23 3.989-.823 1.055-2.102 1.566-3.794 1.566h-2.82v9.692h-2.305V5.536zm7.11 8.564c.49-.536.76-1.495.76-2.933 0-1.056-.101-1.839-.292-2.364V8.8c-.189-.532-.503-.895-.942-1.107-.45-.217-1.126-.335-2.042-.335h-2.29v7.54h2.264c1.245 0 2.072-.284 2.542-.799zm3.781-6.69V5.536h9.947V7.41h-3.77v19.004h-2.305V7.41h-3.872zm12.616 17.535l-.001-.002c-.826-1.141-1.226-2.739-1.226-4.768v-8.502c0-2.012.409-3.579 1.254-4.671.86-1.128 2.287-1.669 4.225-1.669 1.907 0 3.316.542 4.175 1.67.845 1.108 1.254 2.673 1.254 4.67V20.2c0 2.029-.4 3.626-1.226 4.767v.001c-.843 1.147-2.263 1.698-4.203 1.698-1.957 0-3.393-.56-4.252-1.723zm6.674-16.71l-.001-.002c-.405-.63-1.186-.975-2.421-.975-1.252 0-2.051.345-2.473.978l-.001.002c-.44.644-.675 1.66-.675 3.08v9.287c0 1.42.234 2.455.677 3.136.423.648 1.221 1.001 2.472 1.001 1.215 0 1.998-.351 2.421-1 .444-.7.678-1.736.678-3.137V11.32c0-1.402-.234-2.42-.676-3.083l-.001-.001zm6.158-2.7h2.261l3.898 17.13 3.972-17.13h2.26l.516 20.879h-1.976l-.373-15.055-3.618 15.055h-1.54l-3.567-15.015-.373 15.015h-1.976l.516-20.878zm16.26 0h2.261l3.899 17.13 3.971-17.13h2.261l.515 20.879h-1.975l-.374-15.055-3.617 15.055h-1.541l-3.567-15.015-.373 15.015h-1.975l.515-20.878zm15.901 0h7.796V7.41h-5.466v7.311h4.454v1.798h-4.454v8.071h5.516v1.824h-7.846V5.536z" fill="#fff"/><path d="M40.772 20.922l-.01-.152 2.061-.615.024.228c.15 1.437.466 2.517.933 3.258.462.708 1.22 1.076 2.32 1.076.93 0 1.594-.239 2.026-.683.434-.445.667-1.129.667-2.087 0-.812-.194-1.518-.578-2.125v-.002l-.001-.002c-.376-.62-.995-1.34-1.866-2.161l-.001-.001-3.617-3.466c-.672-.62-1.17-1.272-1.485-1.957l-.001-.002-.002-.003a5.826 5.826 0 01-.445-2.301c0-1.39.398-2.497 1.213-3.295l.13-.121c.881-.79 2.047-1.178 3.478-1.178 1.552 0 2.771.415 3.627 1.27.857.857 1.336 2.236 1.472 4.094l.012.159-2.02.528-.016-.229c-.1-1.356-.386-2.338-.838-2.972l-.023-.032c-.426-.599-1.146-.918-2.214-.918-.843 0-1.495.218-1.975.636-.47.41-.719 1.025-.719 1.88 0 .55.105 1.035.31 1.462.206.428.56.89 1.074 1.387l3.617 3.415c.939.888 1.677 1.804 2.21 2.751.557.94.836 1.96.836 3.056 0 1.523-.442 2.726-1.35 3.58-.903.85-2.092 1.267-3.547 1.267-1.631 0-2.906-.496-3.793-1.51l-.08-.096c-.841-1.029-1.312-2.414-1.429-4.139z" fill="#fff"/><defs><radialGradient id="paint0_radial" cx="0" cy="0" r="1" gradientUnits="userSpaceOnUse" gradientTransform="matrix(0 2.50651 -2.34504 0 15.987 16)"><stop stop-color="#FF70AC"/><stop offset="1" stop-color="#EA2963"/></radialGradient></defs></svg>