<svg xmlns="http://www.w3.org/2000/svg" width="200" height="40" fill="none" viewBox="0 0 200 40"><path fill="#5471AB" d="M0 8a8 8 0 018-8h24a8 8 0 018 8v24a8 8 0 01-8 8H8a8 8 0 01-8-8V8z"/><path fill="#6C89C4" fill-rule="evenodd" d="M8.023 11.92h23.982a1.77 1.77 0 011.767 1.765 1.77 1.77 0 01-1.767 1.764h-7.088v17.787A1.77 1.77 0 0123.15 35a1.77 1.77 0 01-1.767-1.764v-7.997c-.271-.17-1.064-.27-1.411-.27-.348 0-1.056.1-1.333.27v7.997A1.77 1.77 0 0116.872 35a1.77 1.77 0 01-1.767-1.764V15.449H8.017a1.77 1.77 0 01-1.767-1.764c0-.97.795-1.764 1.767-1.764h.006zM19.972 5a2.912 2.912 0 012.915 2.91 2.912 2.912 0 01-2.915 2.911 2.912 2.912 0 01-2.916-2.91A2.912 2.912 0 0119.972 5z" clip-rule="evenodd"/><circle cx="20" cy="20" r="11.328" fill="#fff" opacity=".1"/><ellipse cx="19.965" cy="20" fill="#fff" opacity=".1" rx="8.949" ry="8.984"/><circle cx="20.014" cy="20" r="2.727" fill="url(#paint0_radial)"/><path fill="#fff" fill-rule="evenodd" d="M24.872 15.184a6.844 6.844 0 00-9.674 0 6.844 6.844 0 000 9.673 6.849 6.849 0 008.59.884l5.21 5.211a1.456 1.456 0 002.045 0c.559-.564.559-1.485 0-2.044l-5.229-5.229a6.845 6.845 0 00-.942-8.495zm-1.37 1.365a4.902 4.902 0 00-6.94 0 4.902 4.902 0 000 6.938 4.902 4.902 0 006.94 0 4.902 4.902 0 000-6.938zM71.934 20.606L76.192 6.92h2.877l-5.721 17.388v8.71H70.53v-8.709L64.648 6.92h2.846l4.44 13.687zm9.76-13.686h2.827l4.873 21.411L94.358 6.92h2.826l.644 26.097H95.36L94.892 14.2 90.37 33.017h-1.926L83.985 14.25l-.466 18.768H81.05l.644-26.097zm19.909 0h6.374c2.211 0 3.846.601 4.836 1.861.995 1.238 1.476 2.975 1.476 5.178 0 2.021-.506 3.69-1.538 4.986-1.028 1.319-2.627 1.957-4.742 1.957h-3.526v12.115h-2.88V6.92zm8.887 10.706c.613-.67.95-1.87.95-3.667 0-1.32-.126-2.299-.365-2.956l-.001-.002c-.235-.665-.628-1.118-1.176-1.383-.564-.272-1.407-.42-2.553-.42h-2.862v9.425h2.83c1.555 0 2.59-.354 3.177-.998zm4.727-8.364V6.92h12.432v2.342h-4.713v23.755h-2.88V9.262h-4.839zm15.769 21.919l-.002-.002c-1.031-1.427-1.531-3.423-1.531-5.96V14.591c0-2.515.51-4.473 1.567-5.839 1.075-1.409 2.858-2.085 5.282-2.085 2.383 0 4.145.677 5.218 2.086 1.056 1.386 1.567 3.343 1.567 5.838v10.66c0 2.536-.5 4.533-1.531 5.96h-.002c-1.052 1.435-2.828 2.122-5.252 2.122-2.447 0-4.242-.698-5.316-2.152zm8.343-20.888l-.001-.001c-.507-.788-1.483-1.22-3.026-1.22-1.566 0-2.565.432-3.092 1.223l-.001.002c-.551.806-.845 2.076-.845 3.851v11.609c0 1.773.294 3.069.848 3.919.527.81 1.526 1.252 3.09 1.252 1.518 0 2.497-.44 3.026-1.251.555-.873.848-2.17.848-3.92V14.148c0-1.752-.294-3.025-.846-3.853l-.001-.002zm7.697-3.373h2.826l4.873 21.411L159.69 6.92h2.825l.645 26.097h-2.469l-.467-18.818-4.522 18.818h-1.926l-4.459-18.768-.466 18.768h-2.469l.644-26.097zm20.325 0h2.827l4.873 21.411 4.964-21.411h2.826l.644 26.097h-2.469l-.467-18.818-4.522 18.818h-1.926l-4.459-18.768-.466 18.768h-2.469l.644-26.097zm19.877 0h9.744v2.342h-6.832v9.14h5.567v2.247h-5.567v10.089h6.895v2.28h-9.807V6.92z" clip-rule="evenodd"/><path fill="#fff" d="M50.965 26.153l-.013-.19 2.577-.77.03.286c.188 1.796.582 3.146 1.166 4.072.578.885 1.524 1.345 2.899 1.345 1.164 0 1.993-.298 2.534-.853.542-.556.834-1.411.834-2.61 0-1.014-.243-1.897-.723-2.656v-.002l-.002-.002c-.47-.775-1.243-1.675-2.332-2.702l-.001-.001-4.522-4.332c-.84-.775-1.46-1.59-1.856-2.446l-.002-.003v-.004c-.373-.876-.558-1.835-.558-2.876 0-1.738.497-3.122 1.516-4.12l.162-.15c1.102-.989 2.56-1.472 4.349-1.472 1.94 0 3.463.518 4.533 1.588 1.071 1.07 1.67 2.794 1.84 5.117l.015.197-2.524.66-.021-.285c-.124-1.696-.483-2.923-1.047-3.715l-.029-.04c-.533-.749-1.432-1.148-2.767-1.148-1.055 0-1.87.273-2.469.795-.588.512-.899 1.281-.899 2.351 0 .686.131 1.293.388 1.827.258.535.7 1.113 1.342 1.734l4.522 4.269c1.173 1.109 2.095 2.255 2.763 3.438a7.37 7.37 0 011.044 3.82c0 1.904-.553 3.407-1.688 4.475-1.129 1.062-2.615 1.583-4.434 1.583-2.039 0-3.632-.62-4.741-1.888l-.1-.119c-1.051-1.285-1.64-3.017-1.786-5.173z"/><defs><radialGradient id="paint0_radial" cx="0" cy="0" r="1" gradientTransform="matrix(0 2.73438 -2.55823 0 20 20)" gradientUnits="userSpaceOnUse"><stop stop-color="#FF70AC"/><stop offset="1" stop-color="#EA2963"/></radialGradient></defs></svg>