<svg xmlns="http://www.w3.org/2000/svg" width="144" height="48" fill="none" viewBox="0 0 144 48"><path fill="#000" d="M0 12c0-3.728 0-5.591.609-7.061a8 8 0 014.33-4.33C6.409 0 8.272 0 12 0h120c3.728 0 5.591 0 7.061.609a7.998 7.998 0 014.33 4.33C144 6.409 144 8.272 144 12v24c0 3.727 0 5.591-.609 7.062a7.998 7.998 0 01-4.33 4.329C137.591 48 135.728 48 132 48H12c-3.728 0-5.591 0-7.061-.609a8 8 0 01-4.33-4.33C0 41.592 0 39.727 0 36V12z"/><path fill="#fff" d="M97.831 23.041v2.75h-1.723v1.802h1.723v6.126c0 2.092.946 2.929 3.327 2.929.418 0 .817-.05 1.165-.11v-1.783c-.298.03-.488.05-.816.05-1.066 0-1.534-.498-1.534-1.633v-5.579h2.35V25.79h-2.35v-2.749H97.83zM108.388 36.797c3.168 0 5.11-2.121 5.11-5.638 0-3.496-1.952-5.628-5.11-5.628-3.168 0-5.12 2.132-5.12 5.628 0 3.517 1.943 5.638 5.12 5.638zm0-1.902c-1.863 0-2.909-1.365-2.909-3.736 0-2.35 1.046-3.725 2.909-3.725 1.853 0 2.909 1.375 2.909 3.725 0 2.361-1.056 3.736-2.909 3.736zM115.16 36.588h2.141v-6.405c0-1.524 1.146-2.55 2.77-2.55.378 0 1.016.07 1.195.13V25.65c-.229-.06-.638-.09-.956-.09-1.415 0-2.62.777-2.929 1.843h-.159v-1.663h-2.062v10.847zM126.583 27.354c1.584 0 2.62 1.106 2.67 2.81h-5.478c.119-1.694 1.225-2.81 2.808-2.81zm2.66 6.306c-.398.846-1.285 1.314-2.58 1.314-1.713 0-2.819-1.205-2.888-3.107v-.12h7.659V31c0-3.407-1.822-5.469-4.841-5.469-3.058 0-5 2.202-5 5.668 0 3.467 1.903 5.598 5.01 5.598 2.481 0 4.214-1.195 4.702-3.137h-2.062zM83.787 32.582c.165 2.664 2.385 4.367 5.688 4.367 3.531 0 5.74-1.786 5.74-4.635 0-2.24-1.259-3.48-4.315-4.192l-1.641-.402c-1.941-.455-2.726-1.064-2.726-2.127 0-1.342 1.218-2.22 3.046-2.22 1.734 0 2.932.857 3.149 2.23h2.25c-.134-2.509-2.343-4.274-5.368-4.274-3.252 0-5.42 1.765-5.42 4.419 0 2.188 1.228 3.49 3.923 4.119l1.92.465c1.972.464 2.84 1.146 2.84 2.281 0 1.322-1.364 2.282-3.222 2.282-1.993 0-3.376-.898-3.572-2.313h-2.292zM61.602 25.561c-1.474 0-2.75.737-3.407 1.973h-.16V25.74h-2.061v14.453h2.142v-5.25h.169c.568 1.146 1.793 1.823 3.337 1.823 2.74 0 4.482-2.161 4.482-5.608 0-3.446-1.743-5.598-4.502-5.598zm-.608 9.284c-1.793 0-2.918-1.415-2.918-3.676 0-2.27 1.125-3.685 2.928-3.685 1.813 0 2.899 1.384 2.899 3.675 0 2.301-1.086 3.686-2.909 3.686zM73.598 25.561c-1.474 0-2.75.737-3.406 1.973h-.16V25.74H67.97v14.453h2.142v-5.25h.17c.567 1.146 1.792 1.823 3.336 1.823 2.74 0 4.482-2.161 4.482-5.608 0-3.446-1.743-5.598-4.502-5.598zm-.608 9.284c-1.792 0-2.918-1.415-2.918-3.676 0-2.27 1.126-3.685 2.928-3.685 1.813 0 2.9 1.384 2.9 3.675 0 2.301-1.087 3.686-2.91 3.686zM52.132 36.588h2.457l-5.38-14.898h-2.487l-5.38 14.898h2.375l1.373-3.954h5.679l1.363 3.954zm-4.285-12.193h.176l2.157 6.298H45.68l2.168-6.298zM29.723 24.361a5.986 5.986 0 012.828-4.982 6.154 6.154 0 00-4.79-2.59c-2.015-.211-3.968 1.206-4.995 1.206-1.047 0-2.628-1.185-4.33-1.15a6.43 6.43 0 00-5.368 3.274c-2.32 4.018-.59 9.923 1.633 13.171 1.113 1.59 2.413 3.367 4.114 3.304 1.664-.069 2.286-1.061 4.295-1.061 1.99 0 2.574 1.061 4.31 1.021 1.785-.029 2.91-1.598 3.984-3.203a13.157 13.157 0 001.822-3.711 5.79 5.79 0 01-3.503-5.279zM26.445 14.653a5.847 5.847 0 001.337-4.188 5.95 5.95 0 00-3.849 1.991 5.614 5.614 0 00-1.372 4.034 4.977 4.977 0 003.884-1.837zM45.396 18.144c-.656 0-1.232-.12-1.728-.36a3.68 3.68 0 01-1.26-1.02l.924-.852c.256.328.548.58.876.756.336.176.732.264 1.188.264.552 0 .976-.104 1.272-.312.296-.208.444-.524.444-.948v-.132c0-.384-.124-.68-.372-.888-.248-.208-.636-.312-1.164-.312h-1.344v-1.2h1.272c.496 0 .86-.1 1.092-.3.232-.208.348-.516.348-.924v-.12c0-.36-.124-.632-.372-.816-.24-.192-.608-.288-1.104-.288-.432 0-.808.08-1.128.24a2.1 2.1 0 00-.768.624l-.924-.78c.328-.408.72-.724 1.176-.948.456-.232 1.004-.348 1.644-.348.944 0 1.664.204 2.16.612.504.408.756.956.756 1.644 0 .576-.156 1.016-.468 1.32-.304.304-.7.496-1.188.576v.06c.24.024.468.08.684.168.224.088.42.212.588.372.168.152.3.344.396.576.104.224.156.492.156.804 0 .376-.072.72-.216 1.032-.144.312-.352.58-.624.804a2.866 2.866 0 01-.996.516c-.392.12-.832.18-1.32.18zM54.692 18c-.344 0-.608-.096-.792-.288a1.344 1.344 0 01-.336-.756h-.06c-.12.392-.34.688-.66.888-.32.2-.708.3-1.164.3-.648 0-1.148-.168-1.5-.504-.344-.336-.516-.788-.516-1.356 0-.624.224-1.092.672-1.404.456-.312 1.12-.468 1.992-.468h1.128v-.528c0-.384-.104-.68-.312-.888-.208-.208-.532-.312-.972-.312-.368 0-.668.08-.9.24-.232.16-.428.364-.588.612l-.78-.708c.208-.352.5-.64.876-.864.376-.232.868-.348 1.476-.348.808 0 1.428.188 1.86.564.432.376.648.916.648 1.62v3.132h.66V18h-.732zm-2.64-.852c.408 0 .744-.088 1.008-.264.264-.184.396-.428.396-.732v-.9h-1.104c-.904 0-1.356.28-1.356.84v.216c0 .28.092.492.276.636.192.136.452.204.78.204zM56.706 11.76h3.323c.536 0 .948.144 1.236.432.297.288.444.672.444 1.152 0 .784-.42 1.228-1.26 1.332v.06c.505.04.877.188 1.117.444.247.248.371.576.371.984 0 .264-.043.508-.131.732-.08.224-.2.42-.36.588-.152.16-.34.288-.564.384a2.053 2.053 0 01-.756.132h-3.42v-6.24zm3.12 5.244c.231 0 .416-.06.551-.18.136-.12.204-.296.204-.528v-.324c0-.232-.068-.408-.204-.528-.136-.128-.32-.192-.552-.192H57.99v1.752h1.837zm-.169-2.652c.225 0 .397-.056.517-.168.12-.112.18-.272.18-.48v-.3c0-.208-.06-.368-.18-.48-.12-.112-.292-.168-.517-.168H57.99v1.596h1.667zM68.04 18c-.345 0-.609-.096-.793-.288a1.344 1.344 0 01-.336-.756h-.06c-.12.392-.34.688-.66.888-.32.2-.708.3-1.164.3-.648 0-1.148-.168-1.5-.504-.344-.336-.516-.788-.516-1.356 0-.624.224-1.092.672-1.404.456-.312 1.12-.468 1.992-.468h1.128v-.528c0-.384-.104-.68-.312-.888-.208-.208-.532-.312-.972-.312-.368 0-.668.08-.9.24-.232.16-.428.364-.588.612l-.78-.708c.208-.352.5-.64.876-.864.376-.232.868-.348 1.476-.348.808 0 1.428.188 1.86.564.432.376.648.916.648 1.62v3.132h.66V18h-.732zm-2.64-.852c.407 0 .743-.088 1.007-.264.264-.184.396-.428.396-.732v-.9H65.7c-.904 0-1.356.28-1.356.84v.216c0 .28.092.492.276.636.192.136.452.204.78.204zM70.053 11.76h1.308v2.508h2.688V11.76h1.308V18H74.05v-2.664h-2.688V18h-1.308v-6.24zM78.521 12.828h-1.992V11.76h5.292v1.068h-1.992V18h-1.308v-5.172zM83.002 11.76h1.284v3.048l-.12 1.476h.048l.744-1.332 2.16-3.192h1.188V18h-1.284v-3.048l.12-1.476h-.048l-.744 1.332L84.19 18h-1.188v-6.24zM89.706 16.932h.696l.684-1.512c.088-.184.192-.324.312-.42.128-.096.268-.16.42-.192v-.048c-.304-.088-.54-.304-.708-.648l-.588-1.284h-.696V11.76h.636c.28 0 .516.064.708.192.2.128.368.336.504.624l.804 1.704h.972v-2.52h1.308v2.52h.972l.804-1.704c.136-.288.3-.496.492-.624.2-.128.44-.192.72-.192h.636v1.068h-.696l-.588 1.284c-.168.344-.404.56-.708.648v.048a.96.96 0 01.408.192c.128.096.236.236.324.42l.684 1.512h.696V18h-.744c-.272 0-.504-.06-.696-.18-.192-.128-.364-.356-.516-.684l-.816-1.8h-.972V18H93.45v-2.664h-.972l-.816 1.8c-.152.328-.324.556-.516.684-.192.12-.424.18-.696.18h-.744v-1.068zM99.9 11.76h1.285v3.048l-.12 1.476h.048l.744-1.332 2.16-3.192h1.188V18h-1.284v-3.048l.12-1.476h-.048l-.744 1.332-2.16 3.192h-1.188v-6.24zM108.369 12.828h-1.992V11.76h5.292v1.068h-1.992V18h-1.308v-5.172zM112.85 11.76h1.284v3.048l-.12 1.476h.048l.744-1.332 2.16-3.192h1.188V18h-1.284v-3.048l.12-1.476h-.048l-.744 1.332-2.16 3.192h-1.188v-6.24zM124.802 18.144c-.624 0-1.136-.104-1.536-.312a3.03 3.03 0 01-1.032-.888l.852-.78c.192.28.428.5.708.66.288.16.624.24 1.008.24.448 0 .776-.08.984-.24a.743.743 0 00.324-.624v-.144c0-.256-.088-.448-.264-.576-.168-.136-.412-.204-.732-.204h-1.344v-.96h1.212c.32 0 .564-.06.732-.18.176-.128.264-.312.264-.552v-.132a.642.642 0 00-.288-.552c-.192-.136-.496-.204-.912-.204-.376 0-.696.076-.96.228a1.793 1.793 0 00-.636.612l-.816-.708c.24-.368.56-.66.96-.876.408-.224.92-.336 1.536-.336.832 0 1.448.156 1.848.468.408.304.612.712.612 1.224 0 .4-.104.712-.312.936-.208.216-.52.364-.936.444v.06c.456.056.8.208 1.032.456.24.248.36.568.36.96 0 .616-.24 1.1-.72 1.452-.472.352-1.12.528-1.944.528z"/></svg>