<svg xmlns="http://www.w3.org/2000/svg" width="162" height="48" fill="none" viewBox="0 0 162 48"><path fill="#000" d="M0 8a8 8 0 018-8h146a8 8 0 018 8v32a8 8 0 01-8 8H8a8 8 0 01-8-8V8z"/><path fill="#fff" d="M81.763 26.101c-2.822 0-5.123 2.147-5.123 5.104 0 2.939 2.3 5.104 5.123 5.104 2.824 0 5.124-2.165 5.124-5.104-.001-2.957-2.301-5.104-5.124-5.104zm0 8.199c-1.547 0-2.88-1.276-2.88-3.094 0-1.837 1.335-3.093 2.88-3.093 1.547 0 2.88 1.256 2.88 3.093 0 1.817-1.333 3.094-2.88 3.094zM70.586 26.1c-2.822 0-5.122 2.147-5.122 5.104 0 2.939 2.3 5.104 5.122 5.104 2.824 0 5.124-2.165 5.124-5.104 0-2.957-2.3-5.104-5.124-5.104zm0 8.199c-1.546 0-2.88-1.276-2.88-3.094 0-1.837 1.335-3.093 2.88-3.093 1.547 0 2.88 1.256 2.88 3.093.002 1.817-1.333 3.094-2.88 3.094zm-13.293-6.631v2.164h5.181c-.154 1.218-.56 2.108-1.18 2.726-.753.753-1.932 1.585-4.001 1.585-3.19 0-5.683-2.572-5.683-5.761 0-3.19 2.493-5.762 5.683-5.762 1.72 0 2.977.677 3.905 1.547l1.527-1.527c-1.296-1.238-3.015-2.184-5.432-2.184-4.37 0-8.043 3.556-8.043 7.925 0 4.37 3.674 7.927 8.043 7.927 2.358 0 4.137-.774 5.528-2.224 1.43-1.43 1.876-3.442 1.876-5.065 0-.502-.039-.966-.117-1.353h-7.287v.002zm54.369 1.68c-.424-1.14-1.72-3.248-4.369-3.248-2.629 0-4.814 2.07-4.814 5.104 0 2.86 2.166 5.104 5.065 5.104 2.339 0 3.692-1.43 4.254-2.262l-1.74-1.16c-.58.85-1.373 1.41-2.514 1.41-1.14 0-1.952-.522-2.474-1.546l6.824-2.823-.232-.578zm-6.96 1.702c-.057-1.973 1.528-2.977 2.669-2.977.889 0 1.643.445 1.895 1.082l-4.564 1.895zm-5.547 4.95h2.241V20.998h-2.241V36zm-3.675-8.758h-.076c-.503-.6-1.47-1.142-2.687-1.142-2.553 0-4.891 2.243-4.891 5.124 0 2.861 2.338 5.085 4.89 5.085 1.219 0 2.185-.541 2.688-1.16h.076v.735c0 1.952-1.044 2.996-2.725 2.996-1.373 0-2.223-.985-2.571-1.816l-1.953.812c.56 1.352 2.049 3.015 4.524 3.015 2.63 0 4.853-1.546 4.853-5.317v-9.163h-2.126v.83h-.002zM92.91 34.3c-1.547 0-2.842-1.296-2.842-3.075 0-1.799 1.295-3.113 2.842-3.113 1.526 0 2.725 1.315 2.725 3.113 0 1.779-1.199 3.075-2.725 3.075zm29.257-13.301h-5.365V36h2.238v-5.683h3.126c2.482 0 4.922-1.797 4.922-4.659 0-2.861-2.439-4.66-4.921-4.66zm.058 7.23h-3.185v-5.142h3.185c1.674 0 2.624 1.386 2.624 2.572 0 1.161-.95 2.57-2.624 2.57zm13.838-2.154c-1.621 0-3.3.714-3.995 2.297l1.988.829c.424-.83 1.216-1.1 2.046-1.1 1.158 0 2.335.694 2.354 1.93v.154c-.406-.232-1.274-.578-2.335-.578-2.142 0-4.324 1.177-4.324 3.376 0 2.008 1.757 3.3 3.725 3.3 1.505 0 2.335-.675 2.856-1.467h.077v1.158h2.162v-5.752c.001-2.662-1.988-4.147-4.554-4.147zm-.271 8.221c-.732 0-1.756-.367-1.756-1.274 0-1.158 1.275-1.602 2.375-1.602.983 0 1.447.212 2.045.501a2.714 2.714 0 01-2.664 2.375zm12.7-7.893l-2.567 6.504h-.077l-2.664-6.504h-2.412l3.995 9.09-2.278 5.056h2.335l6.158-14.146h-2.49zM128.324 36h2.238V21h-2.238V36z"/><g filter="url(#filter0_ii)"><path fill="url(#paint0_linear)" d="M12.523 9.046c-.349.37-.555.943-.555 1.686V37.27c0 .744.206 1.316.555 1.686l.089.086 14.867-14.867v-.35L12.612 8.958l-.089.088z"/><path fill="url(#paint1_linear)" d="M32.434 29.134l-4.955-4.958v-.35l4.956-4.956.111.063 5.872 3.337c1.676.952 1.676 2.511 0 3.465l-5.872 3.336-.112.063z"/><g filter="url(#filter1_i)"><path fill="url(#paint2_linear)" d="M32.546 29.07l-5.068-5.069-14.955 14.956c.552.585 1.465.657 2.494.074l17.53-9.961z"/></g><path fill="url(#paint3_linear)" d="M32.546 18.932l-17.53-9.96c-1.028-.584-1.94-.51-2.493.075L27.48 24.002l5.067-5.07z"/></g><path fill="#fff" d="M49.34 14.52h.8a3.19 3.19 0 00.388-.637c.123-.252.224-.544.303-.875.086-.338.151-.723.194-1.155.043-.44.065-.94.065-1.502v-2.29h4.914v6.46h1.123v2.7h-1.134V15.6h-5.519v1.62H49.34v-2.7zm5.444 0V9.142h-2.517v1.35c0 .54-.018 1.018-.054 1.436a8.812 8.812 0 01-.14 1.112 4.452 4.452 0 01-.227.832c-.086.23-.187.432-.302.605v.043h3.24zM61.04 15.73c-.49 0-.937-.083-1.34-.249a2.92 2.92 0 01-1.026-.745c-.28-.331-.5-.738-.659-1.22-.15-.49-.227-1.052-.227-1.685 0-.634.076-1.192.227-1.674.159-.49.378-.896.66-1.22.287-.332.63-.58 1.025-.746.403-.172.85-.259 1.34-.259.489 0 .932.087 1.328.26.403.165.745.413 1.026.745.288.324.507.73.658 1.22.159.482.238 1.04.238 1.674 0 .633-.08 1.195-.238 1.685-.15.482-.37.889-.658 1.22-.281.324-.623.572-1.026.745a3.412 3.412 0 01-1.329.249zm0-1.091c.287 0 .55-.05.788-.151.244-.101.45-.245.615-.432.173-.195.306-.429.4-.702a2.86 2.86 0 00.14-.93v-1.187a2.86 2.86 0 00-.14-.929 1.92 1.92 0 00-.4-.691 1.59 1.59 0 00-.615-.443c-.238-.1-.5-.151-.789-.151-.295 0-.561.05-.799.151-.238.1-.443.249-.616.443a2.011 2.011 0 00-.388.691 2.86 2.86 0 00-.14.929v1.188c0 .345.046.655.14.929.093.273.223.507.389.702.172.187.377.33.615.432.238.1.504.15.8.15zM68.642 15.73c-.987 0-1.76-.332-2.322-.994-.562-.67-.843-1.638-.843-2.905 0-.634.072-1.192.216-1.674.144-.482.353-.89.627-1.22.273-.332.604-.58.993-.746.396-.172.839-.259 1.329-.259.655 0 1.202.144 1.641.432.447.288.796.713 1.048 1.275l-1.026.561a1.816 1.816 0 00-.605-.853c-.266-.216-.62-.324-1.058-.324-.584 0-1.04.198-1.372.594-.331.396-.497.943-.497 1.641v1.145c0 .699.166 1.246.497 1.642.331.396.788.594 1.372.594.453 0 .82-.115 1.101-.346.288-.237.5-.54.637-.907l.983.594c-.252.547-.605.976-1.058 1.285-.454.31-1.008.465-1.663.465zM75.422 9.142V15.6h-1.22V9.142h-2.246v-1.08h5.713v1.08h-2.246zM79.472 14.52h1.188l.28-.691-2.721-5.767h1.296l1.382 2.97.594 1.393h.043l.508-1.415 1.177-2.948h1.22l-2.645 6.534c-.08.194-.162.356-.249.486-.086.13-.187.234-.302.313a1.322 1.322 0 01-.41.162 2.998 2.998 0 01-.552.043h-.81v-1.08zM85.556 8.062h5.691V15.6h-1.22V9.142h-3.25V15.6h-1.221V8.062zM97.74 12.317h-3.412V15.6h-1.22V8.062h1.22v3.175h3.412V8.062h1.22V15.6h-1.22v-3.283zM103.733 15.73a3.49 3.49 0 01-1.339-.249 2.92 2.92 0 01-1.026-.745 3.589 3.589 0 01-.659-1.22c-.151-.49-.227-1.052-.227-1.685 0-.634.076-1.192.227-1.674.158-.49.378-.896.659-1.22.288-.332.63-.58 1.026-.746.403-.172.849-.259 1.339-.259s.932.087 1.328.26a2.63 2.63 0 011.026.745c.288.324.508.73.659 1.22.159.482.238 1.04.238 1.674 0 .633-.079 1.195-.238 1.685-.151.482-.371.889-.659 1.22-.28.324-.622.572-1.026.745a3.409 3.409 0 01-1.328.249zm0-1.091c.288 0 .551-.05.788-.151.245-.101.45-.245.616-.432.173-.195.306-.429.4-.702.093-.274.14-.583.14-.93v-1.187c0-.346-.047-.655-.14-.929a1.923 1.923 0 00-.4-.691 1.594 1.594 0 00-.616-.443c-.237-.1-.5-.151-.788-.151-.295 0-.562.05-.799.151-.238.1-.443.249-.616.443a2.028 2.028 0 00-.389.691c-.093.274-.14.583-.14.929v1.188c0 .345.047.655.14.929.094.273.224.507.389.702.173.187.378.33.616.432.237.1.504.15.799.15zM111.058 8.062h3.337c.627 0 1.116.176 1.469.529.36.353.54.824.54 1.415 0 .28-.04.522-.119.723-.079.195-.18.357-.302.486a1.28 1.28 0 01-.421.281 1.892 1.892 0 01-.465.108v.065c.151.007.317.043.497.108.187.065.36.17.518.313.159.137.292.317.4.54.108.216.162.482.162.8 0 .302-.05.586-.151.853a1.964 1.964 0 01-1.015 1.156 1.86 1.86 0 01-.778.161h-3.672V8.062zm1.22 6.49h2.096c.316 0 .565-.082.745-.248.18-.165.27-.403.27-.713v-.367c0-.31-.09-.547-.27-.713-.18-.165-.429-.248-.745-.248h-2.096v2.29zm0-3.304h1.89c.303 0 .537-.076.702-.227.166-.159.249-.382.249-.67v-.345c0-.288-.083-.508-.249-.66-.165-.157-.399-.237-.702-.237h-1.89v2.139z"/><defs><linearGradient id="paint0_linear" x1="26.161" x2="6.023" y1="10.451" y2="30.589" gradientUnits="userSpaceOnUse"><stop stop-color="#00A0FF"/><stop offset=".007" stop-color="#00A1FF"/><stop offset=".26" stop-color="#00BEFF"/><stop offset=".512" stop-color="#00D2FF"/><stop offset=".76" stop-color="#00DFFF"/><stop offset="1" stop-color="#00E3FF"/></linearGradient><linearGradient id="paint1_linear" x1="40.6" x2="11.565" y1="24.001" y2="24.001" gradientUnits="userSpaceOnUse"><stop stop-color="#FFE000"/><stop offset=".409" stop-color="#FFBD00"/><stop offset=".775" stop-color="orange"/><stop offset="1" stop-color="#FF9C00"/></linearGradient><linearGradient id="paint2_linear" x1="29.794" x2="2.484" y1="26.754" y2="54.064" gradientUnits="userSpaceOnUse"><stop stop-color="#FF3A44"/><stop offset="1" stop-color="#C31162"/></linearGradient><linearGradient id="paint3_linear" x1="8.757" x2="20.952" y1=".212" y2="12.407" gradientUnits="userSpaceOnUse"><stop stop-color="#32A071"/><stop offset=".069" stop-color="#2DA771"/><stop offset=".476" stop-color="#15CF74"/><stop offset=".801" stop-color="#06E775"/><stop offset="1" stop-color="#00F076"/></linearGradient><filter id="filter0_ii" width="27.708" height="30.865" x="11.968" y="8.569" color-interpolation-filters="sRGB" filterUnits="userSpaceOnUse"><feFlood flood-opacity="0" result="BackgroundImageFix"/><feBlend in="SourceGraphic" in2="BackgroundImageFix" result="shape"/><feColorMatrix in="SourceAlpha" result="hardAlpha" values="0 0 0 0 0 0 0 0 0 0 0 0 0 0 0 0 0 0 127 0"/><feOffset dy="-.15"/><feComposite in2="hardAlpha" k2="-1" k3="1" operator="arithmetic"/><feColorMatrix values="0 0 0 0 0 0 0 0 0 0 0 0 0 0 0 0 0 0 0.12 0"/><feBlend in2="shape" result="effect1_innerShadow"/><feColorMatrix in="SourceAlpha" result="hardAlpha" values="0 0 0 0 0 0 0 0 0 0 0 0 0 0 0 0 0 0 127 0"/><feOffset dy=".15"/><feComposite in2="hardAlpha" k2="-1" k3="1" operator="arithmetic"/><feColorMatrix values="0 0 0 0 1 0 0 0 0 1 0 0 0 0 1 0 0 0 0.25 0"/><feBlend in2="effect1_innerShadow" result="effect2_innerShadow"/></filter><filter id="filter1_i" width="20.023" height="15.433" x="12.523" y="24.001" color-interpolation-filters="sRGB" filterUnits="userSpaceOnUse"><feFlood flood-opacity="0" result="BackgroundImageFix"/><feBlend in="SourceGraphic" in2="BackgroundImageFix" result="shape"/><feColorMatrix in="SourceAlpha" result="hardAlpha" values="0 0 0 0 0 0 0 0 0 0 0 0 0 0 0 0 0 0 127 0"/><feOffset dy="-.15"/><feComposite in2="hardAlpha" k2="-1" k3="1" operator="arithmetic"/><feColorMatrix values="0 0 0 0 0 0 0 0 0 0 0 0 0 0 0 0 0 0 0.08 0"/><feBlend in2="shape" result="effect1_innerShadow"/></filter></defs></svg>