<svg xmlns="http://www.w3.org/2000/svg" width="160" height="48" fill="none" viewBox="0 0 160 48"><path fill="#000" d="M0 12.8c0-4.48 0-6.72.872-8.432A8 8 0 014.368.872C6.08 0 8.32 0 12.8 0h134c4.48 0 6.721 0 8.432.872a8.001 8.001 0 013.496 3.496c.872 1.711.872 3.952.872 8.432v22.4c0 4.48 0 6.72-.872 8.432a8.002 8.002 0 01-3.496 3.496C153.521 48 151.28 48 146.8 48h-134c-4.48 0-6.72 0-8.432-.872a8 8 0 01-3.496-3.496C0 41.92 0 39.68 0 35.2V12.8z"/><path fill="#fff" d="M54.475 31.694h4.195l-1.501-4.02a29.29 29.29 0 01-.61-1.84 53.33 53.33 0 01-.592 1.82l-1.492 4.04zm4.912 1.909h-5.619l-1.375 3.758h-2.47l5.502-14.037h2.335l5.628 14.037h-2.596l-1.405-3.758zM70.675 34.809c.488-.656.732-1.613.732-2.873 0-1.169-.202-2.016-.605-2.543-.404-.526-.942-.79-1.614-.79-.465 0-.894.11-1.288.33-.394.22-.769.514-1.124.882v5.6c.24.115.517.207.834.275.316.068.63.102.94.102.93 0 1.638-.328 2.126-.983zm-6.291-5.343c0-.775-.026-1.628-.078-2.558h2.248c.083.433.142.876.174 1.328.93-1.014 1.996-1.521 3.197-1.521.697 0 1.343.176 1.937.527.594.353 1.074.908 1.439 1.667s.547 1.723.547 2.892c0 1.22-.208 2.263-.625 3.129-.416.865-.999 1.52-1.748 1.966-.75.446-1.615.669-2.596.669-.711 0-1.412-.12-2.103-.359v4.32l-2.392.204V29.466zM81.592 34.809c.488-.656.732-1.613.732-2.873 0-1.169-.202-2.016-.606-2.543-.403-.526-.941-.79-1.613-.79-.465 0-.894.11-1.288.33-.394.22-.769.514-1.124.882v5.6c.24.115.517.207.833.275.317.068.63.102.94.102.93 0 1.639-.328 2.126-.983zM75.3 29.466c0-.775-.026-1.628-.077-2.558h2.247c.084.433.142.876.175 1.328.93-1.014 1.995-1.521 3.197-1.521.697 0 1.343.176 1.937.527.594.353 1.074.908 1.439 1.667.364.759.547 1.723.547 2.892 0 1.22-.209 2.263-.625 3.129-.416.865-1 1.52-1.748 1.966-.75.446-1.615.669-2.597.669-.71 0-1.411-.12-2.102-.359v4.32l-2.393.204V29.466zM89.16 36.698a5.805 5.805 0 01-2.382-2.456c-.556-1.066-.834-2.325-.834-3.778 0-1.576.32-2.915.96-4.016.639-1.1 1.51-1.928 2.61-2.48 1.101-.552 2.336-.828 3.706-.828a9.79 9.79 0 012.31.266 9.997 9.997 0 012.05.732l-.611 1.84c-1.273-.607-2.487-.91-3.643-.91-.975 0-1.829.208-2.562.625-.733.416-1.303 1.028-1.71 1.835-.407.808-.61 1.783-.61 2.926 0 1.001.156 1.89.47 2.664a3.938 3.938 0 001.482 1.84c.675.453 1.526.679 2.552.679.465 0 .93-.039 1.395-.116a7.28 7.28 0 001.308-.34v-2.838h-3.245v-1.86h5.57v5.91c-.8.374-1.642.662-2.523.862-.882.2-1.759.3-2.63.3-1.409 0-2.63-.285-3.662-.857zM105.046 35.424a3.82 3.82 0 001.22-.892v-1.937a15.396 15.396 0 00-1.598-.106c-.988 0-1.672.16-2.049.48-.378.318-.567.75-.567 1.292 0 .517.137.9.412 1.148.275.249.647.373 1.119.373.477 0 .965-.12 1.463-.358zm1.433 1.937a9.058 9.058 0 01-.164-1.385c-.368.44-.848.812-1.439 1.119-.591.307-1.258.46-2 .46a3.77 3.77 0 01-1.643-.354 2.735 2.735 0 01-1.176-1.065c-.29-.475-.436-1.054-.436-1.74 0-1.013.364-1.822 1.094-2.426.73-.604 1.947-.906 3.652-.906.64 0 1.273.046 1.899.136v-.203c0-.924-.197-1.575-.591-1.953-.394-.377-.959-.566-1.695-.566-.51 0-1.056.074-1.637.223a8.645 8.645 0 00-1.531.532l-.378-1.743c.426-.194.988-.372 1.686-.533a9.784 9.784 0 012.209-.242c.904 0 1.672.137 2.305.411.633.275 1.127.746 1.482 1.415.356.668.533 1.568.533 2.698v4.155c0 .434.026 1.09.078 1.967h-2.248zM110.485 34.852V22.501l2.383-.194v12.119c0 .446.076.76.228.944.151.184.392.277.722.277.148 0 .358-.036.629-.107l.281 1.715c-.226.09-.502.163-.828.218a5.597 5.597 0 01-.925.082c-1.66 0-2.49-.9-2.49-2.703zM116.443 34.852V22.501l2.383-.194v12.119c0 .446.076.76.227.944.152.184.393.277.722.277.149 0 .359-.036.63-.107l.281 1.715c-.226.09-.502.163-.828.218a5.609 5.609 0 01-.926.082c-1.659 0-2.489-.9-2.489-2.703zM128.154 30.92c-.048-.834-.256-1.459-.631-1.876-.374-.416-.877-.624-1.501-.624-.608 0-1.113.21-1.516.63-.404.42-.669 1.043-.791 1.87h4.439zm2.332 1.52h-6.838c.109 2.19 1.152 3.284 3.13 3.284.489 0 .992-.06 1.507-.179a8.962 8.962 0 001.475-.48l.525 1.637c-1.171.569-2.483.853-3.943.853-1.113 0-2.048-.21-2.809-.63a4.03 4.03 0 01-1.722-1.811c-.383-.788-.575-1.737-.575-2.848 0-1.156.203-2.151.61-2.984.407-.833.973-1.47 1.7-1.909.726-.439 1.564-.658 2.515-.658.989 0 1.811.23 2.473.692a4.128 4.128 0 011.472 1.846c.32.769.48 1.618.48 2.548v.639zM132.298 29.534c0-.575-.029-1.45-.08-2.625h2.24a28.597 28.597 0 01.182 2.025c.278-.46.55-.845.819-1.158a3.38 3.38 0 01.941-.766 2.497 2.497 0 011.226-.295c.368 0 .681.038.947.116l-.301 2.073a2.629 2.629 0 00-.774-.107c-.56 0-1.053.144-1.472.432-.42.287-.868.76-1.348 1.419v6.713h-2.38v-7.827zM139.917 41.638a5.738 5.738 0 01-.861-.208l.435-1.744c.16.045.365.089.611.131.244.042.477.063.698.063 1.059 0 1.853-.682 2.381-2.044l.157-.388-3.856-10.54h2.566l1.939 5.89c.314 1.008.519 1.78.608 2.316.183-.756.394-1.511.64-2.267l1.968-5.939h2.41l-3.843 10.589c-.362 1-.756 1.808-1.175 2.422-.419.613-.915 1.069-1.485 1.366-.572.297-1.26.445-2.07.445-.4 0-.774-.03-1.123-.092z"/><path fill="#C91C2E" fill-rule="evenodd" d="M32.33 8.8H19.036c-6.262 0-8.553 2.29-8.553 8.553v13.294c0 6.263 2.29 8.553 8.553 8.553h13.29c6.263 0 8.557-2.29 8.557-8.553V17.353c0-6.263-2.29-8.553-8.553-8.553z" clip-rule="evenodd"/><path fill="#fff" d="M23.746 26.43h1.22l-.612-1.421-.608 1.422zm-.3.718l-.362.827h-.823l1.75-3.972h.712l1.744 3.972h-.845l-.357-.828h-1.82zm13.249.824h.796v-3.97h-.796v3.97zm-3.167-1.706h1.466v-.723h-1.466v-.814h2.129v-.724h-2.925v3.97h3.001v-.724h-2.205v-.985zm-3.162.47l-.903-2.733h-.658l-.902 2.733-.878-2.732h-.858l1.385 3.973h.668l.903-2.61.904 2.61h.673l1.382-3.973h-.836l-.88 2.732zm-9.32-.459c0 .647-.32.992-.904.992-.585 0-.908-.355-.908-1.019v-2.245h-.807v2.273c0 1.118.622 1.759 1.704 1.759 1.094 0 1.721-.654 1.721-1.792v-2.242h-.806v2.274zm-4.543-2.274h.806v3.974h-.806v-1.614h-1.82v1.614h-.807v-3.974h.806v1.603h1.821v-1.603zM25.683 18.942c-2.79 0-5.06-2.27-5.06-5.06h.715a4.35 4.35 0 004.345 4.345 4.35 4.35 0 004.346-4.345h.714c0 2.79-2.27 5.06-5.06 5.06zM50.54 15.72h.8a3.19 3.19 0 00.388-.637c.123-.252.224-.544.303-.875.086-.338.151-.724.194-1.156.043-.439.065-.94.065-1.5v-2.29h4.914v6.458h1.123v2.7h-1.134V16.8h-5.519v1.62H50.54v-2.7zm5.444 0V10.34h-2.517v1.35c0 .54-.018 1.02-.054 1.437a8.812 8.812 0 01-.14 1.112 4.452 4.452 0 01-.227.832c-.086.23-.187.432-.302.605v.043h3.24zM62.24 16.93c-.49 0-.937-.083-1.34-.249a2.92 2.92 0 01-1.026-.745c-.28-.331-.5-.738-.659-1.22-.15-.49-.227-1.052-.227-1.685 0-.634.076-1.192.227-1.674.159-.49.378-.897.66-1.22.287-.332.63-.58 1.025-.746.403-.173.85-.26 1.34-.26.489 0 .932.087 1.328.26.403.166.745.414 1.026.745.288.324.507.731.659 1.22.158.483.237 1.041.237 1.675 0 .633-.08 1.195-.237 1.684-.152.483-.371.89-.66 1.22-.28.325-.622.573-1.025.746a3.412 3.412 0 01-1.329.248zm0-1.091c.287 0 .55-.05.788-.152.245-.1.45-.244.615-.431.173-.195.306-.429.4-.703a2.86 2.86 0 00.14-.928v-1.188a2.86 2.86 0 00-.14-.93 1.92 1.92 0 00-.4-.69 1.59 1.59 0 00-.615-.443c-.238-.1-.5-.151-.789-.151-.295 0-.561.05-.799.15-.237.102-.443.25-.615.444a2.011 2.011 0 00-.39.69 2.86 2.86 0 00-.14.93v1.188c0 .345.047.655.14.928.094.274.224.508.39.702.172.188.377.332.615.432.238.101.504.152.8.152zM69.842 16.93c-.987 0-1.76-.332-2.322-.994-.562-.67-.843-1.638-.843-2.905 0-.634.072-1.192.216-1.674.144-.483.353-.89.627-1.22.273-.332.604-.58.993-.746.396-.173.839-.26 1.329-.26.655 0 1.202.145 1.641.433.447.288.796.713 1.048 1.274l-1.026.562a1.816 1.816 0 00-.605-.853c-.266-.216-.62-.324-1.058-.324-.584 0-1.04.198-1.372.594-.331.396-.497.943-.497 1.641v1.145c0 .699.166 1.246.497 1.642.331.396.788.594 1.372.594.453 0 .82-.116 1.101-.346.288-.238.5-.54.637-.907l.983.594c-.252.547-.605.976-1.058 1.285-.454.31-1.008.465-1.663.465zM73.08 15.72h.83c.145-.144.27-.32.379-.53.108-.208.194-.474.26-.798.071-.324.125-.72.161-1.188.036-.476.054-1.052.054-1.729V9.262h4.87V16.8h-1.22V10.34h-2.473v1.275c0 .727-.025 1.354-.075 1.88a9.248 9.248 0 01-.195 1.327 3.66 3.66 0 01-.324.908 2.32 2.32 0 01-.41.583 1.88 1.88 0 01-.605.4 2.3 2.3 0 01-.788.118h-.465V15.72zM81.169 16.8v-.994h1.026v-5.55h-1.026v-.994h3.283v.993h-1.037v5.551h1.037v.994H81.17zM85.271 15.72h.8a3.19 3.19 0 00.388-.637c.123-.252.224-.544.303-.875.086-.338.15-.724.194-1.156.043-.439.065-.94.065-1.5v-2.29h4.914v6.458h1.123v2.7h-1.134V16.8h-5.519v1.62h-1.134v-2.7zm5.444 0V10.34h-2.517v1.35c0 .54-.018 1.02-.054 1.437a8.812 8.812 0 01-.14 1.112 4.452 4.452 0 01-.227.832c-.087.23-.187.432-.302.605v.043h3.24zM93.832 15.72h.67l1.026-2.03c.115-.23.234-.4.356-.508a.944.944 0 01.432-.216v-.054a1.274 1.274 0 01-.41-.227 1.49 1.49 0 01-.335-.475l-.875-1.869h-.67v-1.08h.595c.273 0 .504.062.69.184.195.123.364.335.508.637l1.113 2.355h1.188V9.262h1.22v3.175h1.188l1.113-2.355c.144-.302.309-.514.496-.637.195-.122.429-.183.702-.183h.594v1.08h-.669l-.875 1.868a1.484 1.484 0 01-.335.475 1.27 1.27 0 01-.41.227v.054a.95.95 0 01.432.216c.122.108.241.277.356.508l1.026 2.03h.67v1.08h-.756c-.252 0-.461-.058-.627-.173-.158-.122-.32-.345-.486-.67l-1.231-2.451H99.34V16.8h-1.22v-3.294h-1.188L95.7 15.957c-.166.325-.332.548-.497.67-.159.115-.364.173-.616.173h-.756v-1.08zM105.52 15.72h1.188l.281-.691-2.722-5.767h1.296l1.383 2.97.594 1.393h.043l.507-1.415 1.178-2.948h1.22l-2.646 6.534a2.772 2.772 0 01-.248.486c-.087.13-.188.233-.303.313a1.321 1.321 0 01-.41.162 2.998 2.998 0 01-.551.043h-.81v-1.08zM111.604 9.262h1.188v4.287l-.119 1.555h.033l.756-1.393 2.894-4.45h1.102V16.8h-1.188v-4.288l.119-1.555h-.033l-.756 1.393-2.894 4.45h-1.102V9.262zm2.916-.616c-.432 0-.777-.086-1.037-.26a1.908 1.908 0 01-.604-.734l-.216-.475.961-.389.367.972a1.863 1.863 0 00.799.054c.101-.014.187-.032.259-.054l.368-.972.961.39-.216.474c-.151.31-.357.555-.616.735-.252.173-.594.259-1.026.259z"/></svg>