<svg xmlns="http://www.w3.org/2000/svg" width="80" height="80" fill="none" viewBox="0 0 80 80"><g filter="url(#filter0_iii)"><rect width="80" height="80" fill="#F1F5FF" rx="20"/></g><path fill="#6C89C3" d="M56.018 51.466l1.441 4.727c.184.602-.266 1.307-1.052 1.307-.477 0-.914-.294-1.052-.744l-1.441-4.727c-.485-1.59-1.686-2.885-3.298-3.556l-2.802-1.168a.129.129 0 01-.009.01l-7.031 6.59c-.214.2-.493.3-.774.3-.28 0-.56-.1-.773-.3l-7.032-6.59-.009-.01-2.802 1.168c-1.61.67-2.813 1.967-3.297 3.556l-1.441 4.727c-.138.45-.576.744-1.052.744-.752 0-1.245-.676-1.052-1.307l1.441-4.728c.663-2.174 2.308-3.948 4.513-4.866l6.895-2.872v-1.853c-2.123-1.375-3.516-3.672-3.516-6.267V23.525c0-.566.49-1.025 1.094-1.025h14.063c.604 0 1.094.459 1.094 1.025v12.082c0 2.595-1.393 4.892-3.516 6.267v1.853l6.895 2.872c2.205.918 3.85 2.692 4.513 4.867zM45.938 24.55H34.063v6.735h11.875v-6.735zm-11.875 8.786v2.27c0 3.068 2.664 5.564 5.937 5.564 3.274 0 5.938-2.496 5.938-5.564v-2.27H34.063zm.265 13.076L40 51.73l5.673-5.316-2.601-1.083a1.025 1.025 0 01-.65-.937v-1.517a8.6 8.6 0 01-2.422.346 8.598 8.598 0 01-2.421-.346v1.517c0 .405-.255.772-.65.937l-2.6 1.084zm6.844-19.52h-.078v-.073c0-.566-.49-1.025-1.094-1.025-.604 0-1.094.459-1.094 1.025v.073h-.078c-.604 0-1.094.46-1.094 1.026 0 .566.49 1.025 1.094 1.025h.078v.073c0 .566.49 1.025 1.094 1.025.605 0 1.094-.459 1.094-1.025v-.073h.078c.605 0 1.094-.459 1.094-1.025 0-.567-.49-1.026-1.094-1.026zm9.375 26.36h-3.515c-.604 0-1.094.458-1.094 1.025 0 .566.49 1.025 1.094 1.025h3.515c.605 0 1.094-.459 1.094-1.025 0-.567-.49-1.026-1.094-1.026z"/><path stroke="#6C89C3" d="M56.018 51.466l1.441 4.727c.184.602-.266 1.307-1.052 1.307-.477 0-.914-.294-1.052-.744l-1.441-4.727c-.485-1.59-1.686-2.885-3.298-3.556l-2.802-1.168h0a.129.129 0 01-.009.01l-7.031 6.59c-.214.2-.493.3-.774.3-.28 0-.56-.1-.773-.3l-7.032-6.59-.009-.01-2.802 1.168c-1.61.67-2.813 1.967-3.297 3.556l-1.441 4.727c-.138.45-.576.744-1.052.744-.752 0-1.245-.676-1.052-1.307l1.441-4.728c.663-2.174 2.308-3.948 4.513-4.866l6.895-2.872v-1.853c-2.123-1.375-3.516-3.672-3.516-6.267V23.525c0-.566.49-1.025 1.094-1.025h14.063c.604 0 1.094.459 1.094 1.025v12.082c0 2.595-1.393 4.892-3.516 6.267v1.853l6.895 2.872c2.205.918 3.85 2.692 4.513 4.867zM45.938 24.55H34.063v6.735h11.875v-6.735zm-11.875 8.786v2.27c0 3.068 2.664 5.564 5.937 5.564 3.274 0 5.938-2.496 5.938-5.564v-2.27H34.063zm.265 13.076L40 51.73l5.673-5.316-2.601-1.083a1.025 1.025 0 01-.65-.937v-1.517a8.6 8.6 0 01-2.422.346 8.598 8.598 0 01-2.421-.346v1.517c0 .405-.255.772-.65.937l-2.6 1.084zm6.844-19.52h-.078v-.073c0-.566-.49-1.025-1.094-1.025-.604 0-1.094.459-1.094 1.025v.073h-.078c-.604 0-1.094.46-1.094 1.026 0 .566.49 1.025 1.094 1.025h.078v.073c0 .566.49 1.025 1.094 1.025.605 0 1.094-.459 1.094-1.025v-.073h.078c.605 0 1.094-.459 1.094-1.025 0-.567-.49-1.026-1.094-1.026zm9.375 26.36h-3.515c-.604 0-1.094.458-1.094 1.025 0 .566.49 1.025 1.094 1.025h3.515c.605 0 1.094-.459 1.094-1.025 0-.567-.49-1.026-1.094-1.026z"/><g filter="url(#filter1_f)"><path fill="url(#paint0_linear)" fill-opacity=".8" fill-rule="evenodd" d="M13.003 8c0-1.105.934-2 2.087-2h45.389C67.394 6 73 11.373 73 18v38c0 1.105-.934 2-2.087 2-5.576 0-53.215-34.5-56.867-44-1.152 0-1.043-4.895-1.043-6z" clip-rule="evenodd"/></g><g filter="url(#filter2_f)"><path fill="#fff" fill-opacity=".6" d="M15 6h50v5H15z"/></g><defs><filter id="filter0_iii" width="80" height="89" x="0" y="-5" color-interpolation-filters="sRGB" filterUnits="userSpaceOnUse"><feFlood flood-opacity="0" result="BackgroundImageFix"/><feBlend in="SourceGraphic" in2="BackgroundImageFix" result="shape"/><feColorMatrix in="SourceAlpha" result="hardAlpha" values="0 0 0 0 0 0 0 0 0 0 0 0 0 0 0 0 0 0 127 0"/><feOffset dy="4"/><feGaussianBlur stdDeviation="7"/><feComposite in2="hardAlpha" k2="-1" k3="1" operator="arithmetic"/><feColorMatrix values="0 0 0 0 1 0 0 0 0 1 0 0 0 0 1 0 0 0 0.7 0"/><feBlend in2="shape" result="effect1_innerShadow"/><feColorMatrix in="SourceAlpha" result="hardAlpha" values="0 0 0 0 0 0 0 0 0 0 0 0 0 0 0 0 0 0 127 0"/><feOffset dy="-5"/><feGaussianBlur stdDeviation="7"/><feComposite in2="hardAlpha" k2="-1" k3="1" operator="arithmetic"/><feColorMatrix values="0 0 0 0 0 0 0 0 0 0 0 0 0 0 0 0 0 0 0.06 0"/><feBlend in2="effect1_innerShadow" result="effect2_innerShadow"/><feColorMatrix in="SourceAlpha" result="hardAlpha" values="0 0 0 0 0 0 0 0 0 0 0 0 0 0 0 0 0 0 127 0"/><feOffset dy="-5"/><feGaussianBlur stdDeviation="3"/><feComposite in2="hardAlpha" k2="-1" k3="1" operator="arithmetic"/><feColorMatrix values="0 0 0 0 1 0 0 0 0 1 0 0 0 0 1 0 0 0 0.6 0"/><feBlend in2="effect2_innerShadow" result="effect3_innerShadow"/></filter><filter id="filter1_f" width="70" height="62" x="8" y="1" color-interpolation-filters="sRGB" filterUnits="userSpaceOnUse"><feFlood flood-opacity="0" result="BackgroundImageFix"/><feBlend in="SourceGraphic" in2="BackgroundImageFix" result="shape"/><feGaussianBlur result="effect1_foregroundBlur" stdDeviation="2.5"/></filter><filter id="filter2_f" width="58" height="13" x="11" y="2" color-interpolation-filters="sRGB" filterUnits="userSpaceOnUse"><feFlood flood-opacity="0" result="BackgroundImageFix"/><feBlend in="SourceGraphic" in2="BackgroundImageFix" result="shape"/><feGaussianBlur result="effect1_foregroundBlur" stdDeviation="2"/></filter><linearGradient id="paint0_linear" x1="67.261" x2="38.987" y1="6" y2="29.202" gradientUnits="userSpaceOnUse"><stop stop-color="#fff"/><stop offset="1" stop-color="#fff" stop-opacity="0"/></linearGradient></defs></svg>